<mxfile host="app.diagrams.net" agent="Mozilla/5.0 (Windows NT 10.0; Win64; x64) AppleWebKit/537.36 (KHTML, like Gecko) Chrome/127.0.0.0 Safari/537.36" version="24.7.5">
  <diagram id="R2lEEEUBdFMjLlhIrx00" name="Page-1">
    <mxGraphModel dx="3019" dy="908" grid="0" gridSize="10" guides="1" tooltips="1" connect="1" arrows="1" fold="1" page="0" pageScale="1" pageWidth="850" pageHeight="1100" math="0" shadow="0" extFonts="Permanent Marker^https://fonts.googleapis.com/css?family=Permanent+Marker">
      <root>
        <mxCell id="0" />
        <mxCell id="1" parent="0" />
        <mxCell id="Mkx7goT2RhF-vi3lxjEB-1" value="DIM_FILMS_SCD" style="shape=table;startSize=30;container=1;collapsible=1;childLayout=tableLayout;fixedRows=1;rowLines=0;fontStyle=1;align=center;resizeLast=1;fontSize=15;" parent="1" vertex="1">
          <mxGeometry x="-538" y="706" width="290" height="450" as="geometry" />
        </mxCell>
        <mxCell id="Mkx7goT2RhF-vi3lxjEB-2" value="" style="shape=partialRectangle;collapsible=0;dropTarget=0;pointerEvents=0;fillColor=none;points=[[0,0.5],[1,0.5]];portConstraint=eastwest;top=0;left=0;right=0;bottom=1;" parent="Mkx7goT2RhF-vi3lxjEB-1" vertex="1">
          <mxGeometry y="30" width="290" height="30" as="geometry" />
        </mxCell>
        <mxCell id="Mkx7goT2RhF-vi3lxjEB-3" value="PK" style="shape=partialRectangle;overflow=hidden;connectable=0;fillColor=none;top=0;left=0;bottom=0;right=0;fontStyle=1;" parent="Mkx7goT2RhF-vi3lxjEB-2" vertex="1">
          <mxGeometry width="30" height="30" as="geometry">
            <mxRectangle width="30" height="30" as="alternateBounds" />
          </mxGeometry>
        </mxCell>
        <mxCell id="Mkx7goT2RhF-vi3lxjEB-4" value="FILM_SURR_ID" style="shape=partialRectangle;overflow=hidden;connectable=0;fillColor=none;top=0;left=0;bottom=0;right=0;align=left;spacingLeft=6;fontStyle=5;" parent="Mkx7goT2RhF-vi3lxjEB-2" vertex="1">
          <mxGeometry x="30" width="133.75" height="30" as="geometry">
            <mxRectangle width="133.75" height="30" as="alternateBounds" />
          </mxGeometry>
        </mxCell>
        <mxCell id="Mkx7goT2RhF-vi3lxjEB-5" value="BIGINT NOT NULL" style="shape=partialRectangle;overflow=hidden;connectable=0;fillColor=none;top=0;left=0;bottom=0;right=0;align=left;spacingLeft=6;fontStyle=5;" parent="Mkx7goT2RhF-vi3lxjEB-2" vertex="1">
          <mxGeometry x="163.75" width="126.25" height="30" as="geometry">
            <mxRectangle width="126.25" height="30" as="alternateBounds" />
          </mxGeometry>
        </mxCell>
        <mxCell id="Mkx7goT2RhF-vi3lxjEB-6" value="" style="shape=partialRectangle;collapsible=0;dropTarget=0;pointerEvents=0;fillColor=none;points=[[0,0.5],[1,0.5]];portConstraint=eastwest;top=0;left=0;right=0;bottom=0;" parent="Mkx7goT2RhF-vi3lxjEB-1" vertex="1">
          <mxGeometry y="60" width="290" height="30" as="geometry" />
        </mxCell>
        <mxCell id="Mkx7goT2RhF-vi3lxjEB-7" value="" style="shape=partialRectangle;overflow=hidden;connectable=0;fillColor=none;top=0;left=0;bottom=0;right=0;" parent="Mkx7goT2RhF-vi3lxjEB-6" vertex="1">
          <mxGeometry width="30" height="30" as="geometry">
            <mxRectangle width="30" height="30" as="alternateBounds" />
          </mxGeometry>
        </mxCell>
        <mxCell id="Mkx7goT2RhF-vi3lxjEB-8" value="FILM_NAME" style="shape=partialRectangle;overflow=hidden;connectable=0;fillColor=none;top=0;left=0;bottom=0;right=0;align=left;spacingLeft=6;fontStyle=1" parent="Mkx7goT2RhF-vi3lxjEB-6" vertex="1">
          <mxGeometry x="30" width="133.75" height="30" as="geometry">
            <mxRectangle width="133.75" height="30" as="alternateBounds" />
          </mxGeometry>
        </mxCell>
        <mxCell id="Mkx7goT2RhF-vi3lxjEB-9" value="VARCHAR(100)" style="shape=partialRectangle;overflow=hidden;connectable=0;fillColor=none;top=0;left=0;bottom=0;right=0;align=left;spacingLeft=6;fontStyle=1" parent="Mkx7goT2RhF-vi3lxjEB-6" vertex="1">
          <mxGeometry x="163.75" width="126.25" height="30" as="geometry">
            <mxRectangle width="126.25" height="30" as="alternateBounds" />
          </mxGeometry>
        </mxCell>
        <mxCell id="Mkx7goT2RhF-vi3lxjEB-10" value="" style="shape=partialRectangle;collapsible=0;dropTarget=0;pointerEvents=0;fillColor=none;points=[[0,0.5],[1,0.5]];portConstraint=eastwest;top=0;left=0;right=0;bottom=0;" parent="Mkx7goT2RhF-vi3lxjEB-1" vertex="1">
          <mxGeometry y="90" width="290" height="30" as="geometry" />
        </mxCell>
        <mxCell id="Mkx7goT2RhF-vi3lxjEB-11" value="" style="shape=partialRectangle;overflow=hidden;connectable=0;fillColor=none;top=0;left=0;bottom=0;right=0;" parent="Mkx7goT2RhF-vi3lxjEB-10" vertex="1">
          <mxGeometry width="30" height="30" as="geometry">
            <mxRectangle width="30" height="30" as="alternateBounds" />
          </mxGeometry>
        </mxCell>
        <mxCell id="Mkx7goT2RhF-vi3lxjEB-12" value="FILM_GENRE" style="shape=partialRectangle;overflow=hidden;connectable=0;fillColor=none;top=0;left=0;bottom=0;right=0;align=left;spacingLeft=6;fontStyle=1" parent="Mkx7goT2RhF-vi3lxjEB-10" vertex="1">
          <mxGeometry x="30" width="133.75" height="30" as="geometry">
            <mxRectangle width="133.75" height="30" as="alternateBounds" />
          </mxGeometry>
        </mxCell>
        <mxCell id="Mkx7goT2RhF-vi3lxjEB-13" value="VARCHAR(100)" style="shape=partialRectangle;overflow=hidden;connectable=0;fillColor=none;top=0;left=0;bottom=0;right=0;align=left;spacingLeft=6;fontStyle=1" parent="Mkx7goT2RhF-vi3lxjEB-10" vertex="1">
          <mxGeometry x="163.75" width="126.25" height="30" as="geometry">
            <mxRectangle width="126.25" height="30" as="alternateBounds" />
          </mxGeometry>
        </mxCell>
        <mxCell id="Mkx7goT2RhF-vi3lxjEB-14" style="shape=partialRectangle;collapsible=0;dropTarget=0;pointerEvents=0;fillColor=none;points=[[0,0.5],[1,0.5]];portConstraint=eastwest;top=0;left=0;right=0;bottom=0;" parent="Mkx7goT2RhF-vi3lxjEB-1" vertex="1">
          <mxGeometry y="120" width="290" height="30" as="geometry" />
        </mxCell>
        <mxCell id="Mkx7goT2RhF-vi3lxjEB-15" style="shape=partialRectangle;overflow=hidden;connectable=0;fillColor=none;top=0;left=0;bottom=0;right=0;" parent="Mkx7goT2RhF-vi3lxjEB-14" vertex="1">
          <mxGeometry width="30" height="30" as="geometry">
            <mxRectangle width="30" height="30" as="alternateBounds" />
          </mxGeometry>
        </mxCell>
        <mxCell id="Mkx7goT2RhF-vi3lxjEB-16" value="FILM_DURATION" style="shape=partialRectangle;overflow=hidden;connectable=0;fillColor=none;top=0;left=0;bottom=0;right=0;align=left;spacingLeft=6;fontStyle=1" parent="Mkx7goT2RhF-vi3lxjEB-14" vertex="1">
          <mxGeometry x="30" width="133.75" height="30" as="geometry">
            <mxRectangle width="133.75" height="30" as="alternateBounds" />
          </mxGeometry>
        </mxCell>
        <mxCell id="Mkx7goT2RhF-vi3lxjEB-17" value="INT" style="shape=partialRectangle;overflow=hidden;connectable=0;fillColor=none;top=0;left=0;bottom=0;right=0;align=left;spacingLeft=6;fontStyle=1" parent="Mkx7goT2RhF-vi3lxjEB-14" vertex="1">
          <mxGeometry x="163.75" width="126.25" height="30" as="geometry">
            <mxRectangle width="126.25" height="30" as="alternateBounds" />
          </mxGeometry>
        </mxCell>
        <mxCell id="Mkx7goT2RhF-vi3lxjEB-18" style="shape=partialRectangle;collapsible=0;dropTarget=0;pointerEvents=0;fillColor=none;points=[[0,0.5],[1,0.5]];portConstraint=eastwest;top=0;left=0;right=0;bottom=0;" parent="Mkx7goT2RhF-vi3lxjEB-1" vertex="1">
          <mxGeometry y="150" width="290" height="30" as="geometry" />
        </mxCell>
        <mxCell id="Mkx7goT2RhF-vi3lxjEB-19" style="shape=partialRectangle;overflow=hidden;connectable=0;fillColor=none;top=0;left=0;bottom=0;right=0;" parent="Mkx7goT2RhF-vi3lxjEB-18" vertex="1">
          <mxGeometry width="30" height="30" as="geometry">
            <mxRectangle width="30" height="30" as="alternateBounds" />
          </mxGeometry>
        </mxCell>
        <mxCell id="Mkx7goT2RhF-vi3lxjEB-20" value="FILM_RATING" style="shape=partialRectangle;overflow=hidden;connectable=0;fillColor=none;top=0;left=0;bottom=0;right=0;align=left;spacingLeft=6;fontStyle=1" parent="Mkx7goT2RhF-vi3lxjEB-18" vertex="1">
          <mxGeometry x="30" width="133.75" height="30" as="geometry">
            <mxRectangle width="133.75" height="30" as="alternateBounds" />
          </mxGeometry>
        </mxCell>
        <mxCell id="Mkx7goT2RhF-vi3lxjEB-21" value="VARCHAR(20)" style="shape=partialRectangle;overflow=hidden;connectable=0;fillColor=none;top=0;left=0;bottom=0;right=0;align=left;spacingLeft=6;fontStyle=1" parent="Mkx7goT2RhF-vi3lxjEB-18" vertex="1">
          <mxGeometry x="163.75" width="126.25" height="30" as="geometry">
            <mxRectangle width="126.25" height="30" as="alternateBounds" />
          </mxGeometry>
        </mxCell>
        <mxCell id="Mkx7goT2RhF-vi3lxjEB-22" style="shape=partialRectangle;collapsible=0;dropTarget=0;pointerEvents=0;fillColor=none;points=[[0,0.5],[1,0.5]];portConstraint=eastwest;top=0;left=0;right=0;bottom=0;" parent="Mkx7goT2RhF-vi3lxjEB-1" vertex="1">
          <mxGeometry y="180" width="290" height="30" as="geometry" />
        </mxCell>
        <mxCell id="Mkx7goT2RhF-vi3lxjEB-23" style="shape=partialRectangle;overflow=hidden;connectable=0;fillColor=none;top=0;left=0;bottom=0;right=0;" parent="Mkx7goT2RhF-vi3lxjEB-22" vertex="1">
          <mxGeometry width="30" height="30" as="geometry">
            <mxRectangle width="30" height="30" as="alternateBounds" />
          </mxGeometry>
        </mxCell>
        <mxCell id="Mkx7goT2RhF-vi3lxjEB-24" value="FILM_RELEASE_DT" style="shape=partialRectangle;overflow=hidden;connectable=0;fillColor=none;top=0;left=0;bottom=0;right=0;align=left;spacingLeft=6;fontStyle=1" parent="Mkx7goT2RhF-vi3lxjEB-22" vertex="1">
          <mxGeometry x="30" width="133.75" height="30" as="geometry">
            <mxRectangle width="133.75" height="30" as="alternateBounds" />
          </mxGeometry>
        </mxCell>
        <mxCell id="Mkx7goT2RhF-vi3lxjEB-25" value="DATE" style="shape=partialRectangle;overflow=hidden;connectable=0;fillColor=none;top=0;left=0;bottom=0;right=0;align=left;spacingLeft=6;fontStyle=1" parent="Mkx7goT2RhF-vi3lxjEB-22" vertex="1">
          <mxGeometry x="163.75" width="126.25" height="30" as="geometry">
            <mxRectangle width="126.25" height="30" as="alternateBounds" />
          </mxGeometry>
        </mxCell>
        <mxCell id="Mkx7goT2RhF-vi3lxjEB-26" style="shape=partialRectangle;collapsible=0;dropTarget=0;pointerEvents=0;fillColor=none;points=[[0,0.5],[1,0.5]];portConstraint=eastwest;top=0;left=0;right=0;bottom=0;" parent="Mkx7goT2RhF-vi3lxjEB-1" vertex="1">
          <mxGeometry y="210" width="290" height="30" as="geometry" />
        </mxCell>
        <mxCell id="Mkx7goT2RhF-vi3lxjEB-27" value="" style="shape=partialRectangle;overflow=hidden;connectable=0;fillColor=none;top=0;left=0;bottom=0;right=0;fontStyle=1" parent="Mkx7goT2RhF-vi3lxjEB-26" vertex="1">
          <mxGeometry width="30" height="30" as="geometry">
            <mxRectangle width="30" height="30" as="alternateBounds" />
          </mxGeometry>
        </mxCell>
        <mxCell id="Mkx7goT2RhF-vi3lxjEB-28" value="START_DT" style="shape=partialRectangle;overflow=hidden;connectable=0;fillColor=none;top=0;left=0;bottom=0;right=0;align=left;spacingLeft=6;fontStyle=1" parent="Mkx7goT2RhF-vi3lxjEB-26" vertex="1">
          <mxGeometry x="30" width="133.75" height="30" as="geometry">
            <mxRectangle width="133.75" height="30" as="alternateBounds" />
          </mxGeometry>
        </mxCell>
        <mxCell id="Mkx7goT2RhF-vi3lxjEB-29" value="DATE" style="shape=partialRectangle;overflow=hidden;connectable=0;fillColor=none;top=0;left=0;bottom=0;right=0;align=left;spacingLeft=6;fontStyle=1" parent="Mkx7goT2RhF-vi3lxjEB-26" vertex="1">
          <mxGeometry x="163.75" width="126.25" height="30" as="geometry">
            <mxRectangle width="126.25" height="30" as="alternateBounds" />
          </mxGeometry>
        </mxCell>
        <mxCell id="Mkx7goT2RhF-vi3lxjEB-30" style="shape=partialRectangle;collapsible=0;dropTarget=0;pointerEvents=0;fillColor=none;points=[[0,0.5],[1,0.5]];portConstraint=eastwest;top=0;left=0;right=0;bottom=0;" parent="Mkx7goT2RhF-vi3lxjEB-1" vertex="1">
          <mxGeometry y="240" width="290" height="30" as="geometry" />
        </mxCell>
        <mxCell id="Mkx7goT2RhF-vi3lxjEB-31" style="shape=partialRectangle;overflow=hidden;connectable=0;fillColor=none;top=0;left=0;bottom=0;right=0;" parent="Mkx7goT2RhF-vi3lxjEB-30" vertex="1">
          <mxGeometry width="30" height="30" as="geometry">
            <mxRectangle width="30" height="30" as="alternateBounds" />
          </mxGeometry>
        </mxCell>
        <mxCell id="Mkx7goT2RhF-vi3lxjEB-32" value="END_DT" style="shape=partialRectangle;overflow=hidden;connectable=0;fillColor=none;top=0;left=0;bottom=0;right=0;align=left;spacingLeft=6;fontStyle=1" parent="Mkx7goT2RhF-vi3lxjEB-30" vertex="1">
          <mxGeometry x="30" width="133.75" height="30" as="geometry">
            <mxRectangle width="133.75" height="30" as="alternateBounds" />
          </mxGeometry>
        </mxCell>
        <mxCell id="Mkx7goT2RhF-vi3lxjEB-33" value="DATE" style="shape=partialRectangle;overflow=hidden;connectable=0;fillColor=none;top=0;left=0;bottom=0;right=0;align=left;spacingLeft=6;fontStyle=1" parent="Mkx7goT2RhF-vi3lxjEB-30" vertex="1">
          <mxGeometry x="163.75" width="126.25" height="30" as="geometry">
            <mxRectangle width="126.25" height="30" as="alternateBounds" />
          </mxGeometry>
        </mxCell>
        <mxCell id="Mkx7goT2RhF-vi3lxjEB-34" style="shape=partialRectangle;collapsible=0;dropTarget=0;pointerEvents=0;fillColor=none;points=[[0,0.5],[1,0.5]];portConstraint=eastwest;top=0;left=0;right=0;bottom=0;" parent="Mkx7goT2RhF-vi3lxjEB-1" vertex="1">
          <mxGeometry y="270" width="290" height="30" as="geometry" />
        </mxCell>
        <mxCell id="Mkx7goT2RhF-vi3lxjEB-35" style="shape=partialRectangle;overflow=hidden;connectable=0;fillColor=none;top=0;left=0;bottom=0;right=0;" parent="Mkx7goT2RhF-vi3lxjEB-34" vertex="1">
          <mxGeometry width="30" height="30" as="geometry">
            <mxRectangle width="30" height="30" as="alternateBounds" />
          </mxGeometry>
        </mxCell>
        <mxCell id="Mkx7goT2RhF-vi3lxjEB-36" value="IS_ACTIVE" style="shape=partialRectangle;overflow=hidden;connectable=0;fillColor=none;top=0;left=0;bottom=0;right=0;align=left;spacingLeft=6;fontStyle=1" parent="Mkx7goT2RhF-vi3lxjEB-34" vertex="1">
          <mxGeometry x="30" width="133.75" height="30" as="geometry">
            <mxRectangle width="133.75" height="30" as="alternateBounds" />
          </mxGeometry>
        </mxCell>
        <mxCell id="Mkx7goT2RhF-vi3lxjEB-37" value="VARCHAR(1)" style="shape=partialRectangle;overflow=hidden;connectable=0;fillColor=none;top=0;left=0;bottom=0;right=0;align=left;spacingLeft=6;fontStyle=1" parent="Mkx7goT2RhF-vi3lxjEB-34" vertex="1">
          <mxGeometry x="163.75" width="126.25" height="30" as="geometry">
            <mxRectangle width="126.25" height="30" as="alternateBounds" />
          </mxGeometry>
        </mxCell>
        <mxCell id="Mkx7goT2RhF-vi3lxjEB-38" style="shape=partialRectangle;collapsible=0;dropTarget=0;pointerEvents=0;fillColor=none;points=[[0,0.5],[1,0.5]];portConstraint=eastwest;top=0;left=0;right=0;bottom=0;" parent="Mkx7goT2RhF-vi3lxjEB-1" vertex="1">
          <mxGeometry y="300" width="290" height="30" as="geometry" />
        </mxCell>
        <mxCell id="Mkx7goT2RhF-vi3lxjEB-39" style="shape=partialRectangle;overflow=hidden;connectable=0;fillColor=none;top=0;left=0;bottom=0;right=0;" parent="Mkx7goT2RhF-vi3lxjEB-38" vertex="1">
          <mxGeometry width="30" height="30" as="geometry">
            <mxRectangle width="30" height="30" as="alternateBounds" />
          </mxGeometry>
        </mxCell>
        <mxCell id="Mkx7goT2RhF-vi3lxjEB-40" value="TA_INSERT_DT" style="shape=partialRectangle;overflow=hidden;connectable=0;fillColor=none;top=0;left=0;bottom=0;right=0;align=left;spacingLeft=6;fontStyle=1" parent="Mkx7goT2RhF-vi3lxjEB-38" vertex="1">
          <mxGeometry x="30" width="133.75" height="30" as="geometry">
            <mxRectangle width="133.75" height="30" as="alternateBounds" />
          </mxGeometry>
        </mxCell>
        <mxCell id="Mkx7goT2RhF-vi3lxjEB-41" value="DATE" style="shape=partialRectangle;overflow=hidden;connectable=0;fillColor=none;top=0;left=0;bottom=0;right=0;align=left;spacingLeft=6;fontStyle=1" parent="Mkx7goT2RhF-vi3lxjEB-38" vertex="1">
          <mxGeometry x="163.75" width="126.25" height="30" as="geometry">
            <mxRectangle width="126.25" height="30" as="alternateBounds" />
          </mxGeometry>
        </mxCell>
        <mxCell id="Mkx7goT2RhF-vi3lxjEB-42" style="shape=partialRectangle;collapsible=0;dropTarget=0;pointerEvents=0;fillColor=none;points=[[0,0.5],[1,0.5]];portConstraint=eastwest;top=0;left=0;right=0;bottom=0;" parent="Mkx7goT2RhF-vi3lxjEB-1" vertex="1">
          <mxGeometry y="330" width="290" height="30" as="geometry" />
        </mxCell>
        <mxCell id="Mkx7goT2RhF-vi3lxjEB-43" style="shape=partialRectangle;overflow=hidden;connectable=0;fillColor=none;top=0;left=0;bottom=0;right=0;" parent="Mkx7goT2RhF-vi3lxjEB-42" vertex="1">
          <mxGeometry width="30" height="30" as="geometry">
            <mxRectangle width="30" height="30" as="alternateBounds" />
          </mxGeometry>
        </mxCell>
        <mxCell id="Mkx7goT2RhF-vi3lxjEB-44" value="TA_UPDATE_DT" style="shape=partialRectangle;overflow=hidden;connectable=0;fillColor=none;top=0;left=0;bottom=0;right=0;align=left;spacingLeft=6;fontStyle=1" parent="Mkx7goT2RhF-vi3lxjEB-42" vertex="1">
          <mxGeometry x="30" width="133.75" height="30" as="geometry">
            <mxRectangle width="133.75" height="30" as="alternateBounds" />
          </mxGeometry>
        </mxCell>
        <mxCell id="Mkx7goT2RhF-vi3lxjEB-45" value="DATE" style="shape=partialRectangle;overflow=hidden;connectable=0;fillColor=none;top=0;left=0;bottom=0;right=0;align=left;spacingLeft=6;fontStyle=1" parent="Mkx7goT2RhF-vi3lxjEB-42" vertex="1">
          <mxGeometry x="163.75" width="126.25" height="30" as="geometry">
            <mxRectangle width="126.25" height="30" as="alternateBounds" />
          </mxGeometry>
        </mxCell>
        <mxCell id="Mkx7goT2RhF-vi3lxjEB-46" style="shape=partialRectangle;collapsible=0;dropTarget=0;pointerEvents=0;fillColor=none;points=[[0,0.5],[1,0.5]];portConstraint=eastwest;top=0;left=0;right=0;bottom=0;" parent="Mkx7goT2RhF-vi3lxjEB-1" vertex="1">
          <mxGeometry y="360" width="290" height="30" as="geometry" />
        </mxCell>
        <mxCell id="Mkx7goT2RhF-vi3lxjEB-47" style="shape=partialRectangle;overflow=hidden;connectable=0;fillColor=none;top=0;left=0;bottom=0;right=0;" parent="Mkx7goT2RhF-vi3lxjEB-46" vertex="1">
          <mxGeometry width="30" height="30" as="geometry">
            <mxRectangle width="30" height="30" as="alternateBounds" />
          </mxGeometry>
        </mxCell>
        <mxCell id="Mkx7goT2RhF-vi3lxjEB-48" value="FILM_SRC_ID" style="shape=partialRectangle;overflow=hidden;connectable=0;fillColor=none;top=0;left=0;bottom=0;right=0;align=left;spacingLeft=6;fontStyle=1" parent="Mkx7goT2RhF-vi3lxjEB-46" vertex="1">
          <mxGeometry x="30" width="133.75" height="30" as="geometry">
            <mxRectangle width="133.75" height="30" as="alternateBounds" />
          </mxGeometry>
        </mxCell>
        <mxCell id="Mkx7goT2RhF-vi3lxjEB-49" value="VARCHAR" style="shape=partialRectangle;overflow=hidden;connectable=0;fillColor=none;top=0;left=0;bottom=0;right=0;align=left;spacingLeft=6;fontStyle=1" parent="Mkx7goT2RhF-vi3lxjEB-46" vertex="1">
          <mxGeometry x="163.75" width="126.25" height="30" as="geometry">
            <mxRectangle width="126.25" height="30" as="alternateBounds" />
          </mxGeometry>
        </mxCell>
        <mxCell id="Mkx7goT2RhF-vi3lxjEB-50" style="shape=partialRectangle;collapsible=0;dropTarget=0;pointerEvents=0;fillColor=none;points=[[0,0.5],[1,0.5]];portConstraint=eastwest;top=0;left=0;right=0;bottom=0;" parent="Mkx7goT2RhF-vi3lxjEB-1" vertex="1">
          <mxGeometry y="390" width="290" height="30" as="geometry" />
        </mxCell>
        <mxCell id="Mkx7goT2RhF-vi3lxjEB-51" style="shape=partialRectangle;overflow=hidden;connectable=0;fillColor=none;top=0;left=0;bottom=0;right=0;" parent="Mkx7goT2RhF-vi3lxjEB-50" vertex="1">
          <mxGeometry width="30" height="30" as="geometry">
            <mxRectangle width="30" height="30" as="alternateBounds" />
          </mxGeometry>
        </mxCell>
        <mxCell id="Mkx7goT2RhF-vi3lxjEB-52" value="SOURCE_SYSTEM" style="shape=partialRectangle;overflow=hidden;connectable=0;fillColor=none;top=0;left=0;bottom=0;right=0;align=left;spacingLeft=6;fontStyle=1" parent="Mkx7goT2RhF-vi3lxjEB-50" vertex="1">
          <mxGeometry x="30" width="133.75" height="30" as="geometry">
            <mxRectangle width="133.75" height="30" as="alternateBounds" />
          </mxGeometry>
        </mxCell>
        <mxCell id="Mkx7goT2RhF-vi3lxjEB-53" value="VARCHAR" style="shape=partialRectangle;overflow=hidden;connectable=0;fillColor=none;top=0;left=0;bottom=0;right=0;align=left;spacingLeft=6;fontStyle=1" parent="Mkx7goT2RhF-vi3lxjEB-50" vertex="1">
          <mxGeometry x="163.75" width="126.25" height="30" as="geometry">
            <mxRectangle width="126.25" height="30" as="alternateBounds" />
          </mxGeometry>
        </mxCell>
        <mxCell id="Mkx7goT2RhF-vi3lxjEB-54" style="shape=partialRectangle;collapsible=0;dropTarget=0;pointerEvents=0;fillColor=none;points=[[0,0.5],[1,0.5]];portConstraint=eastwest;top=0;left=0;right=0;bottom=0;" parent="Mkx7goT2RhF-vi3lxjEB-1" vertex="1">
          <mxGeometry y="420" width="290" height="30" as="geometry" />
        </mxCell>
        <mxCell id="Mkx7goT2RhF-vi3lxjEB-55" style="shape=partialRectangle;overflow=hidden;connectable=0;fillColor=none;top=0;left=0;bottom=0;right=0;" parent="Mkx7goT2RhF-vi3lxjEB-54" vertex="1">
          <mxGeometry width="30" height="30" as="geometry">
            <mxRectangle width="30" height="30" as="alternateBounds" />
          </mxGeometry>
        </mxCell>
        <mxCell id="Mkx7goT2RhF-vi3lxjEB-56" value="SOURCE_ENTITY" style="shape=partialRectangle;overflow=hidden;connectable=0;fillColor=none;top=0;left=0;bottom=0;right=0;align=left;spacingLeft=6;fontStyle=1" parent="Mkx7goT2RhF-vi3lxjEB-54" vertex="1">
          <mxGeometry x="30" width="133.75" height="30" as="geometry">
            <mxRectangle width="133.75" height="30" as="alternateBounds" />
          </mxGeometry>
        </mxCell>
        <mxCell id="Mkx7goT2RhF-vi3lxjEB-57" value="VARCHAR" style="shape=partialRectangle;overflow=hidden;connectable=0;fillColor=none;top=0;left=0;bottom=0;right=0;align=left;spacingLeft=6;fontStyle=1" parent="Mkx7goT2RhF-vi3lxjEB-54" vertex="1">
          <mxGeometry x="163.75" width="126.25" height="30" as="geometry">
            <mxRectangle width="126.25" height="30" as="alternateBounds" />
          </mxGeometry>
        </mxCell>
        <mxCell id="Mkx7goT2RhF-vi3lxjEB-58" value="DIM_CINEMAS" style="shape=table;startSize=30;container=1;collapsible=1;childLayout=tableLayout;fixedRows=1;rowLines=0;fontStyle=1;align=center;resizeLast=1;fontSize=15;" parent="1" vertex="1">
          <mxGeometry x="526" y="221" width="322" height="300" as="geometry" />
        </mxCell>
        <mxCell id="Mkx7goT2RhF-vi3lxjEB-59" value="" style="shape=partialRectangle;collapsible=0;dropTarget=0;pointerEvents=0;fillColor=none;points=[[0,0.5],[1,0.5]];portConstraint=eastwest;top=0;left=0;right=0;bottom=1;" parent="Mkx7goT2RhF-vi3lxjEB-58" vertex="1">
          <mxGeometry y="30" width="322" height="30" as="geometry" />
        </mxCell>
        <mxCell id="Mkx7goT2RhF-vi3lxjEB-60" value="PK" style="shape=partialRectangle;overflow=hidden;connectable=0;fillColor=none;top=0;left=0;bottom=0;right=0;fontStyle=1;" parent="Mkx7goT2RhF-vi3lxjEB-59" vertex="1">
          <mxGeometry width="30" height="30" as="geometry">
            <mxRectangle width="30" height="30" as="alternateBounds" />
          </mxGeometry>
        </mxCell>
        <mxCell id="Mkx7goT2RhF-vi3lxjEB-61" value="CINEMA_SURR_ID" style="shape=partialRectangle;overflow=hidden;connectable=0;fillColor=none;top=0;left=0;bottom=0;right=0;align=left;spacingLeft=6;fontStyle=5;" parent="Mkx7goT2RhF-vi3lxjEB-59" vertex="1">
          <mxGeometry x="30" width="169.27274946732905" height="30" as="geometry">
            <mxRectangle width="169.27274946732905" height="30" as="alternateBounds" />
          </mxGeometry>
        </mxCell>
        <mxCell id="Mkx7goT2RhF-vi3lxjEB-62" value="BIGINT NOT NULL" style="shape=partialRectangle;overflow=hidden;connectable=0;fillColor=none;top=0;left=0;bottom=0;right=0;align=left;spacingLeft=6;fontStyle=5;" parent="Mkx7goT2RhF-vi3lxjEB-59" vertex="1">
          <mxGeometry x="199.27274946732905" width="122.72725053267095" height="30" as="geometry">
            <mxRectangle width="122.72725053267095" height="30" as="alternateBounds" />
          </mxGeometry>
        </mxCell>
        <mxCell id="Mkx7goT2RhF-vi3lxjEB-63" value="" style="shape=partialRectangle;collapsible=0;dropTarget=0;pointerEvents=0;fillColor=none;points=[[0,0.5],[1,0.5]];portConstraint=eastwest;top=0;left=0;right=0;bottom=0;" parent="Mkx7goT2RhF-vi3lxjEB-58" vertex="1">
          <mxGeometry y="60" width="322" height="30" as="geometry" />
        </mxCell>
        <mxCell id="Mkx7goT2RhF-vi3lxjEB-64" value="" style="shape=partialRectangle;overflow=hidden;connectable=0;fillColor=none;top=0;left=0;bottom=0;right=0;" parent="Mkx7goT2RhF-vi3lxjEB-63" vertex="1">
          <mxGeometry width="30" height="30" as="geometry">
            <mxRectangle width="30" height="30" as="alternateBounds" />
          </mxGeometry>
        </mxCell>
        <mxCell id="Mkx7goT2RhF-vi3lxjEB-65" value="CINEMA_NAME" style="shape=partialRectangle;overflow=hidden;connectable=0;fillColor=none;top=0;left=0;bottom=0;right=0;align=left;spacingLeft=6;fontStyle=1" parent="Mkx7goT2RhF-vi3lxjEB-63" vertex="1">
          <mxGeometry x="30" width="169.27274946732905" height="30" as="geometry">
            <mxRectangle width="169.27274946732905" height="30" as="alternateBounds" />
          </mxGeometry>
        </mxCell>
        <mxCell id="Mkx7goT2RhF-vi3lxjEB-66" value="VARCHAR(100)" style="shape=partialRectangle;overflow=hidden;connectable=0;fillColor=none;top=0;left=0;bottom=0;right=0;align=left;spacingLeft=6;fontStyle=1" parent="Mkx7goT2RhF-vi3lxjEB-63" vertex="1">
          <mxGeometry x="199.27274946732905" width="122.72725053267095" height="30" as="geometry">
            <mxRectangle width="122.72725053267095" height="30" as="alternateBounds" />
          </mxGeometry>
        </mxCell>
        <mxCell id="Mkx7goT2RhF-vi3lxjEB-67" value="" style="shape=partialRectangle;collapsible=0;dropTarget=0;pointerEvents=0;fillColor=none;points=[[0,0.5],[1,0.5]];portConstraint=eastwest;top=0;left=0;right=0;bottom=0;" parent="Mkx7goT2RhF-vi3lxjEB-58" vertex="1">
          <mxGeometry y="90" width="322" height="30" as="geometry" />
        </mxCell>
        <mxCell id="Mkx7goT2RhF-vi3lxjEB-68" value="" style="shape=partialRectangle;overflow=hidden;connectable=0;fillColor=none;top=0;left=0;bottom=0;right=0;" parent="Mkx7goT2RhF-vi3lxjEB-67" vertex="1">
          <mxGeometry width="30" height="30" as="geometry">
            <mxRectangle width="30" height="30" as="alternateBounds" />
          </mxGeometry>
        </mxCell>
        <mxCell id="Mkx7goT2RhF-vi3lxjEB-69" value="CINEMA_CITY_NAME" style="shape=partialRectangle;overflow=hidden;connectable=0;fillColor=none;top=0;left=0;bottom=0;right=0;align=left;spacingLeft=6;fontStyle=1" parent="Mkx7goT2RhF-vi3lxjEB-67" vertex="1">
          <mxGeometry x="30" width="169.27274946732905" height="30" as="geometry">
            <mxRectangle width="169.27274946732905" height="30" as="alternateBounds" />
          </mxGeometry>
        </mxCell>
        <mxCell id="Mkx7goT2RhF-vi3lxjEB-70" value="VARCHAR(50)" style="shape=partialRectangle;overflow=hidden;connectable=0;fillColor=none;top=0;left=0;bottom=0;right=0;align=left;spacingLeft=6;fontStyle=1" parent="Mkx7goT2RhF-vi3lxjEB-67" vertex="1">
          <mxGeometry x="199.27274946732905" width="122.72725053267095" height="30" as="geometry">
            <mxRectangle width="122.72725053267095" height="30" as="alternateBounds" />
          </mxGeometry>
        </mxCell>
        <mxCell id="Mkx7goT2RhF-vi3lxjEB-71" style="shape=partialRectangle;collapsible=0;dropTarget=0;pointerEvents=0;fillColor=none;points=[[0,0.5],[1,0.5]];portConstraint=eastwest;top=0;left=0;right=0;bottom=0;" parent="Mkx7goT2RhF-vi3lxjEB-58" vertex="1">
          <mxGeometry y="120" width="322" height="30" as="geometry" />
        </mxCell>
        <mxCell id="Mkx7goT2RhF-vi3lxjEB-72" style="shape=partialRectangle;overflow=hidden;connectable=0;fillColor=none;top=0;left=0;bottom=0;right=0;" parent="Mkx7goT2RhF-vi3lxjEB-71" vertex="1">
          <mxGeometry width="30" height="30" as="geometry">
            <mxRectangle width="30" height="30" as="alternateBounds" />
          </mxGeometry>
        </mxCell>
        <mxCell id="Mkx7goT2RhF-vi3lxjEB-73" value="CINEMA_DISTRICT_NAME" style="shape=partialRectangle;overflow=hidden;connectable=0;fillColor=none;top=0;left=0;bottom=0;right=0;align=left;spacingLeft=6;fontStyle=1" parent="Mkx7goT2RhF-vi3lxjEB-71" vertex="1">
          <mxGeometry x="30" width="169.27274946732905" height="30" as="geometry">
            <mxRectangle width="169.27274946732905" height="30" as="alternateBounds" />
          </mxGeometry>
        </mxCell>
        <mxCell id="Mkx7goT2RhF-vi3lxjEB-74" value="VARCHAR(50)" style="shape=partialRectangle;overflow=hidden;connectable=0;fillColor=none;top=0;left=0;bottom=0;right=0;align=left;spacingLeft=6;fontStyle=1" parent="Mkx7goT2RhF-vi3lxjEB-71" vertex="1">
          <mxGeometry x="199.27274946732905" width="122.72725053267095" height="30" as="geometry">
            <mxRectangle width="122.72725053267095" height="30" as="alternateBounds" />
          </mxGeometry>
        </mxCell>
        <mxCell id="Mkx7goT2RhF-vi3lxjEB-75" style="shape=partialRectangle;collapsible=0;dropTarget=0;pointerEvents=0;fillColor=none;points=[[0,0.5],[1,0.5]];portConstraint=eastwest;top=0;left=0;right=0;bottom=0;" parent="Mkx7goT2RhF-vi3lxjEB-58" vertex="1">
          <mxGeometry y="150" width="322" height="30" as="geometry" />
        </mxCell>
        <mxCell id="Mkx7goT2RhF-vi3lxjEB-76" style="shape=partialRectangle;overflow=hidden;connectable=0;fillColor=none;top=0;left=0;bottom=0;right=0;" parent="Mkx7goT2RhF-vi3lxjEB-75" vertex="1">
          <mxGeometry width="30" height="30" as="geometry">
            <mxRectangle width="30" height="30" as="alternateBounds" />
          </mxGeometry>
        </mxCell>
        <mxCell id="Mkx7goT2RhF-vi3lxjEB-77" value="TA_INSERT_DT" style="shape=partialRectangle;overflow=hidden;connectable=0;fillColor=none;top=0;left=0;bottom=0;right=0;align=left;spacingLeft=6;fontStyle=1" parent="Mkx7goT2RhF-vi3lxjEB-75" vertex="1">
          <mxGeometry x="30" width="169.27274946732905" height="30" as="geometry">
            <mxRectangle width="169.27274946732905" height="30" as="alternateBounds" />
          </mxGeometry>
        </mxCell>
        <mxCell id="Mkx7goT2RhF-vi3lxjEB-78" value="DATE" style="shape=partialRectangle;overflow=hidden;connectable=0;fillColor=none;top=0;left=0;bottom=0;right=0;align=left;spacingLeft=6;fontStyle=1" parent="Mkx7goT2RhF-vi3lxjEB-75" vertex="1">
          <mxGeometry x="199.27274946732905" width="122.72725053267095" height="30" as="geometry">
            <mxRectangle width="122.72725053267095" height="30" as="alternateBounds" />
          </mxGeometry>
        </mxCell>
        <mxCell id="Mkx7goT2RhF-vi3lxjEB-79" style="shape=partialRectangle;collapsible=0;dropTarget=0;pointerEvents=0;fillColor=none;points=[[0,0.5],[1,0.5]];portConstraint=eastwest;top=0;left=0;right=0;bottom=0;" parent="Mkx7goT2RhF-vi3lxjEB-58" vertex="1">
          <mxGeometry y="180" width="322" height="30" as="geometry" />
        </mxCell>
        <mxCell id="Mkx7goT2RhF-vi3lxjEB-80" style="shape=partialRectangle;overflow=hidden;connectable=0;fillColor=none;top=0;left=0;bottom=0;right=0;" parent="Mkx7goT2RhF-vi3lxjEB-79" vertex="1">
          <mxGeometry width="30" height="30" as="geometry">
            <mxRectangle width="30" height="30" as="alternateBounds" />
          </mxGeometry>
        </mxCell>
        <mxCell id="Mkx7goT2RhF-vi3lxjEB-81" value="TA_UPDATE_DT" style="shape=partialRectangle;overflow=hidden;connectable=0;fillColor=none;top=0;left=0;bottom=0;right=0;align=left;spacingLeft=6;fontStyle=1" parent="Mkx7goT2RhF-vi3lxjEB-79" vertex="1">
          <mxGeometry x="30" width="169.27274946732905" height="30" as="geometry">
            <mxRectangle width="169.27274946732905" height="30" as="alternateBounds" />
          </mxGeometry>
        </mxCell>
        <mxCell id="Mkx7goT2RhF-vi3lxjEB-82" value="DATE" style="shape=partialRectangle;overflow=hidden;connectable=0;fillColor=none;top=0;left=0;bottom=0;right=0;align=left;spacingLeft=6;fontStyle=1" parent="Mkx7goT2RhF-vi3lxjEB-79" vertex="1">
          <mxGeometry x="199.27274946732905" width="122.72725053267095" height="30" as="geometry">
            <mxRectangle width="122.72725053267095" height="30" as="alternateBounds" />
          </mxGeometry>
        </mxCell>
        <mxCell id="Mkx7goT2RhF-vi3lxjEB-83" style="shape=partialRectangle;collapsible=0;dropTarget=0;pointerEvents=0;fillColor=none;points=[[0,0.5],[1,0.5]];portConstraint=eastwest;top=0;left=0;right=0;bottom=0;fontStyle=1" parent="Mkx7goT2RhF-vi3lxjEB-58" vertex="1">
          <mxGeometry y="210" width="322" height="30" as="geometry" />
        </mxCell>
        <mxCell id="Mkx7goT2RhF-vi3lxjEB-84" style="shape=partialRectangle;overflow=hidden;connectable=0;fillColor=none;top=0;left=0;bottom=0;right=0;" parent="Mkx7goT2RhF-vi3lxjEB-83" vertex="1">
          <mxGeometry width="30" height="30" as="geometry">
            <mxRectangle width="30" height="30" as="alternateBounds" />
          </mxGeometry>
        </mxCell>
        <mxCell id="Mkx7goT2RhF-vi3lxjEB-85" value="CINEMA_SRC_ID" style="shape=partialRectangle;overflow=hidden;connectable=0;fillColor=none;top=0;left=0;bottom=0;right=0;align=left;spacingLeft=6;fontStyle=1" parent="Mkx7goT2RhF-vi3lxjEB-83" vertex="1">
          <mxGeometry x="30" width="169.27274946732905" height="30" as="geometry">
            <mxRectangle width="169.27274946732905" height="30" as="alternateBounds" />
          </mxGeometry>
        </mxCell>
        <mxCell id="Mkx7goT2RhF-vi3lxjEB-86" value="VARCHAR" style="shape=partialRectangle;overflow=hidden;connectable=0;fillColor=none;top=0;left=0;bottom=0;right=0;align=left;spacingLeft=6;fontStyle=1" parent="Mkx7goT2RhF-vi3lxjEB-83" vertex="1">
          <mxGeometry x="199.27274946732905" width="122.72725053267095" height="30" as="geometry">
            <mxRectangle width="122.72725053267095" height="30" as="alternateBounds" />
          </mxGeometry>
        </mxCell>
        <mxCell id="Mkx7goT2RhF-vi3lxjEB-87" style="shape=partialRectangle;collapsible=0;dropTarget=0;pointerEvents=0;fillColor=none;points=[[0,0.5],[1,0.5]];portConstraint=eastwest;top=0;left=0;right=0;bottom=0;" parent="Mkx7goT2RhF-vi3lxjEB-58" vertex="1">
          <mxGeometry y="240" width="322" height="30" as="geometry" />
        </mxCell>
        <mxCell id="Mkx7goT2RhF-vi3lxjEB-88" style="shape=partialRectangle;overflow=hidden;connectable=0;fillColor=none;top=0;left=0;bottom=0;right=0;" parent="Mkx7goT2RhF-vi3lxjEB-87" vertex="1">
          <mxGeometry width="30" height="30" as="geometry">
            <mxRectangle width="30" height="30" as="alternateBounds" />
          </mxGeometry>
        </mxCell>
        <mxCell id="Mkx7goT2RhF-vi3lxjEB-89" value="SOURCE_SYSTEM" style="shape=partialRectangle;overflow=hidden;connectable=0;fillColor=none;top=0;left=0;bottom=0;right=0;align=left;spacingLeft=6;fontStyle=1" parent="Mkx7goT2RhF-vi3lxjEB-87" vertex="1">
          <mxGeometry x="30" width="169.27274946732905" height="30" as="geometry">
            <mxRectangle width="169.27274946732905" height="30" as="alternateBounds" />
          </mxGeometry>
        </mxCell>
        <mxCell id="Mkx7goT2RhF-vi3lxjEB-90" value="VARCHAR" style="shape=partialRectangle;overflow=hidden;connectable=0;fillColor=none;top=0;left=0;bottom=0;right=0;align=left;spacingLeft=6;fontStyle=1" parent="Mkx7goT2RhF-vi3lxjEB-87" vertex="1">
          <mxGeometry x="199.27274946732905" width="122.72725053267095" height="30" as="geometry">
            <mxRectangle width="122.72725053267095" height="30" as="alternateBounds" />
          </mxGeometry>
        </mxCell>
        <mxCell id="Mkx7goT2RhF-vi3lxjEB-91" style="shape=partialRectangle;collapsible=0;dropTarget=0;pointerEvents=0;fillColor=none;points=[[0,0.5],[1,0.5]];portConstraint=eastwest;top=0;left=0;right=0;bottom=0;" parent="Mkx7goT2RhF-vi3lxjEB-58" vertex="1">
          <mxGeometry y="270" width="322" height="30" as="geometry" />
        </mxCell>
        <mxCell id="Mkx7goT2RhF-vi3lxjEB-92" style="shape=partialRectangle;overflow=hidden;connectable=0;fillColor=none;top=0;left=0;bottom=0;right=0;" parent="Mkx7goT2RhF-vi3lxjEB-91" vertex="1">
          <mxGeometry width="30" height="30" as="geometry">
            <mxRectangle width="30" height="30" as="alternateBounds" />
          </mxGeometry>
        </mxCell>
        <mxCell id="Mkx7goT2RhF-vi3lxjEB-93" value="SOURCE_ENTITY" style="shape=partialRectangle;overflow=hidden;connectable=0;fillColor=none;top=0;left=0;bottom=0;right=0;align=left;spacingLeft=6;fontStyle=1" parent="Mkx7goT2RhF-vi3lxjEB-91" vertex="1">
          <mxGeometry x="30" width="169.27274946732905" height="30" as="geometry">
            <mxRectangle width="169.27274946732905" height="30" as="alternateBounds" />
          </mxGeometry>
        </mxCell>
        <mxCell id="Mkx7goT2RhF-vi3lxjEB-94" value="VARCHAR" style="shape=partialRectangle;overflow=hidden;connectable=0;fillColor=none;top=0;left=0;bottom=0;right=0;align=left;spacingLeft=6;fontStyle=1" parent="Mkx7goT2RhF-vi3lxjEB-91" vertex="1">
          <mxGeometry x="199.27274946732905" width="122.72725053267095" height="30" as="geometry">
            <mxRectangle width="122.72725053267095" height="30" as="alternateBounds" />
          </mxGeometry>
        </mxCell>
        <mxCell id="Mkx7goT2RhF-vi3lxjEB-95" value="DIM_DATES" style="shape=table;startSize=30;container=1;collapsible=1;childLayout=tableLayout;fixedRows=1;rowLines=0;fontStyle=1;align=center;resizeLast=1;fontSize=15;" parent="1" vertex="1">
          <mxGeometry x="-325" y="221" width="304" height="450" as="geometry" />
        </mxCell>
        <mxCell id="Mkx7goT2RhF-vi3lxjEB-96" value="" style="shape=partialRectangle;collapsible=0;dropTarget=0;pointerEvents=0;fillColor=none;points=[[0,0.5],[1,0.5]];portConstraint=eastwest;top=0;left=0;right=0;bottom=1;" parent="Mkx7goT2RhF-vi3lxjEB-95" vertex="1">
          <mxGeometry y="30" width="304" height="30" as="geometry" />
        </mxCell>
        <mxCell id="Mkx7goT2RhF-vi3lxjEB-97" value="PK" style="shape=partialRectangle;overflow=hidden;connectable=0;fillColor=none;top=0;left=0;bottom=0;right=0;fontStyle=1;" parent="Mkx7goT2RhF-vi3lxjEB-96" vertex="1">
          <mxGeometry width="30" height="30" as="geometry">
            <mxRectangle width="30" height="30" as="alternateBounds" />
          </mxGeometry>
        </mxCell>
        <mxCell id="Mkx7goT2RhF-vi3lxjEB-98" value="DATE_SURR_ID" style="shape=partialRectangle;overflow=hidden;connectable=0;fillColor=none;top=0;left=0;bottom=0;right=0;align=left;spacingLeft=6;fontStyle=5;" parent="Mkx7goT2RhF-vi3lxjEB-96" vertex="1">
          <mxGeometry x="30" width="149.21419852120542" height="30" as="geometry">
            <mxRectangle width="149.21419852120542" height="30" as="alternateBounds" />
          </mxGeometry>
        </mxCell>
        <mxCell id="Mkx7goT2RhF-vi3lxjEB-99" value="BIGINT NOT NULL" style="shape=partialRectangle;overflow=hidden;connectable=0;fillColor=none;top=0;left=0;bottom=0;right=0;align=left;spacingLeft=6;fontStyle=5;" parent="Mkx7goT2RhF-vi3lxjEB-96" vertex="1">
          <mxGeometry x="179.21419852120542" width="124.78580147879458" height="30" as="geometry">
            <mxRectangle width="124.78580147879458" height="30" as="alternateBounds" />
          </mxGeometry>
        </mxCell>
        <mxCell id="Mkx7goT2RhF-vi3lxjEB-100" value="" style="shape=partialRectangle;collapsible=0;dropTarget=0;pointerEvents=0;fillColor=none;points=[[0,0.5],[1,0.5]];portConstraint=eastwest;top=0;left=0;right=0;bottom=0;" parent="Mkx7goT2RhF-vi3lxjEB-95" vertex="1">
          <mxGeometry y="60" width="304" height="30" as="geometry" />
        </mxCell>
        <mxCell id="Mkx7goT2RhF-vi3lxjEB-101" value="" style="shape=partialRectangle;overflow=hidden;connectable=0;fillColor=none;top=0;left=0;bottom=0;right=0;" parent="Mkx7goT2RhF-vi3lxjEB-100" vertex="1">
          <mxGeometry width="30" height="30" as="geometry">
            <mxRectangle width="30" height="30" as="alternateBounds" />
          </mxGeometry>
        </mxCell>
        <mxCell id="Mkx7goT2RhF-vi3lxjEB-102" value="DATE_DT" style="shape=partialRectangle;overflow=hidden;connectable=0;fillColor=none;top=0;left=0;bottom=0;right=0;align=left;spacingLeft=6;fontStyle=1" parent="Mkx7goT2RhF-vi3lxjEB-100" vertex="1">
          <mxGeometry x="30" width="149.21419852120542" height="30" as="geometry">
            <mxRectangle width="149.21419852120542" height="30" as="alternateBounds" />
          </mxGeometry>
        </mxCell>
        <mxCell id="Mkx7goT2RhF-vi3lxjEB-103" value="TIMESTAMP" style="shape=partialRectangle;overflow=hidden;connectable=0;fillColor=none;top=0;left=0;bottom=0;right=0;align=left;spacingLeft=6;fontStyle=1" parent="Mkx7goT2RhF-vi3lxjEB-100" vertex="1">
          <mxGeometry x="179.21419852120542" width="124.78580147879458" height="30" as="geometry">
            <mxRectangle width="124.78580147879458" height="30" as="alternateBounds" />
          </mxGeometry>
        </mxCell>
        <mxCell id="Mkx7goT2RhF-vi3lxjEB-104" value="" style="shape=partialRectangle;collapsible=0;dropTarget=0;pointerEvents=0;fillColor=none;points=[[0,0.5],[1,0.5]];portConstraint=eastwest;top=0;left=0;right=0;bottom=0;" parent="Mkx7goT2RhF-vi3lxjEB-95" vertex="1">
          <mxGeometry y="90" width="304" height="30" as="geometry" />
        </mxCell>
        <mxCell id="Mkx7goT2RhF-vi3lxjEB-105" value="" style="shape=partialRectangle;overflow=hidden;connectable=0;fillColor=none;top=0;left=0;bottom=0;right=0;" parent="Mkx7goT2RhF-vi3lxjEB-104" vertex="1">
          <mxGeometry width="30" height="30" as="geometry">
            <mxRectangle width="30" height="30" as="alternateBounds" />
          </mxGeometry>
        </mxCell>
        <mxCell id="Mkx7goT2RhF-vi3lxjEB-106" value="DATE_MONTH" style="shape=partialRectangle;overflow=hidden;connectable=0;fillColor=none;top=0;left=0;bottom=0;right=0;align=left;spacingLeft=6;fontStyle=1" parent="Mkx7goT2RhF-vi3lxjEB-104" vertex="1">
          <mxGeometry x="30" width="149.21419852120542" height="30" as="geometry">
            <mxRectangle width="149.21419852120542" height="30" as="alternateBounds" />
          </mxGeometry>
        </mxCell>
        <mxCell id="Mkx7goT2RhF-vi3lxjEB-107" value="INT" style="shape=partialRectangle;overflow=hidden;connectable=0;fillColor=none;top=0;left=0;bottom=0;right=0;align=left;spacingLeft=6;fontStyle=1" parent="Mkx7goT2RhF-vi3lxjEB-104" vertex="1">
          <mxGeometry x="179.21419852120542" width="124.78580147879458" height="30" as="geometry">
            <mxRectangle width="124.78580147879458" height="30" as="alternateBounds" />
          </mxGeometry>
        </mxCell>
        <mxCell id="Mkx7goT2RhF-vi3lxjEB-108" style="shape=partialRectangle;collapsible=0;dropTarget=0;pointerEvents=0;fillColor=none;points=[[0,0.5],[1,0.5]];portConstraint=eastwest;top=0;left=0;right=0;bottom=0;" parent="Mkx7goT2RhF-vi3lxjEB-95" vertex="1">
          <mxGeometry y="120" width="304" height="30" as="geometry" />
        </mxCell>
        <mxCell id="Mkx7goT2RhF-vi3lxjEB-109" style="shape=partialRectangle;overflow=hidden;connectable=0;fillColor=none;top=0;left=0;bottom=0;right=0;" parent="Mkx7goT2RhF-vi3lxjEB-108" vertex="1">
          <mxGeometry width="30" height="30" as="geometry">
            <mxRectangle width="30" height="30" as="alternateBounds" />
          </mxGeometry>
        </mxCell>
        <mxCell id="Mkx7goT2RhF-vi3lxjEB-110" value="DATE_DAY" style="shape=partialRectangle;overflow=hidden;connectable=0;fillColor=none;top=0;left=0;bottom=0;right=0;align=left;spacingLeft=6;fontStyle=1" parent="Mkx7goT2RhF-vi3lxjEB-108" vertex="1">
          <mxGeometry x="30" width="149.21419852120542" height="30" as="geometry">
            <mxRectangle width="149.21419852120542" height="30" as="alternateBounds" />
          </mxGeometry>
        </mxCell>
        <mxCell id="Mkx7goT2RhF-vi3lxjEB-111" value="INT" style="shape=partialRectangle;overflow=hidden;connectable=0;fillColor=none;top=0;left=0;bottom=0;right=0;align=left;spacingLeft=6;fontStyle=1" parent="Mkx7goT2RhF-vi3lxjEB-108" vertex="1">
          <mxGeometry x="179.21419852120542" width="124.78580147879458" height="30" as="geometry">
            <mxRectangle width="124.78580147879458" height="30" as="alternateBounds" />
          </mxGeometry>
        </mxCell>
        <mxCell id="Mkx7goT2RhF-vi3lxjEB-112" style="shape=partialRectangle;collapsible=0;dropTarget=0;pointerEvents=0;fillColor=none;points=[[0,0.5],[1,0.5]];portConstraint=eastwest;top=0;left=0;right=0;bottom=0;" parent="Mkx7goT2RhF-vi3lxjEB-95" vertex="1">
          <mxGeometry y="150" width="304" height="30" as="geometry" />
        </mxCell>
        <mxCell id="Mkx7goT2RhF-vi3lxjEB-113" style="shape=partialRectangle;overflow=hidden;connectable=0;fillColor=none;top=0;left=0;bottom=0;right=0;" parent="Mkx7goT2RhF-vi3lxjEB-112" vertex="1">
          <mxGeometry width="30" height="30" as="geometry">
            <mxRectangle width="30" height="30" as="alternateBounds" />
          </mxGeometry>
        </mxCell>
        <mxCell id="Mkx7goT2RhF-vi3lxjEB-114" value="DATE_HOUR" style="shape=partialRectangle;overflow=hidden;connectable=0;fillColor=none;top=0;left=0;bottom=0;right=0;align=left;spacingLeft=6;fontStyle=1" parent="Mkx7goT2RhF-vi3lxjEB-112" vertex="1">
          <mxGeometry x="30" width="149.21419852120542" height="30" as="geometry">
            <mxRectangle width="149.21419852120542" height="30" as="alternateBounds" />
          </mxGeometry>
        </mxCell>
        <mxCell id="Mkx7goT2RhF-vi3lxjEB-115" value="INT" style="shape=partialRectangle;overflow=hidden;connectable=0;fillColor=none;top=0;left=0;bottom=0;right=0;align=left;spacingLeft=6;fontStyle=1" parent="Mkx7goT2RhF-vi3lxjEB-112" vertex="1">
          <mxGeometry x="179.21419852120542" width="124.78580147879458" height="30" as="geometry">
            <mxRectangle width="124.78580147879458" height="30" as="alternateBounds" />
          </mxGeometry>
        </mxCell>
        <mxCell id="Mkx7goT2RhF-vi3lxjEB-116" style="shape=partialRectangle;collapsible=0;dropTarget=0;pointerEvents=0;fillColor=none;points=[[0,0.5],[1,0.5]];portConstraint=eastwest;top=0;left=0;right=0;bottom=0;" parent="Mkx7goT2RhF-vi3lxjEB-95" vertex="1">
          <mxGeometry y="180" width="304" height="30" as="geometry" />
        </mxCell>
        <mxCell id="Mkx7goT2RhF-vi3lxjEB-117" style="shape=partialRectangle;overflow=hidden;connectable=0;fillColor=none;top=0;left=0;bottom=0;right=0;" parent="Mkx7goT2RhF-vi3lxjEB-116" vertex="1">
          <mxGeometry width="30" height="30" as="geometry">
            <mxRectangle width="30" height="30" as="alternateBounds" />
          </mxGeometry>
        </mxCell>
        <mxCell id="Mkx7goT2RhF-vi3lxjEB-118" value="DATE_MINUTE" style="shape=partialRectangle;overflow=hidden;connectable=0;fillColor=none;top=0;left=0;bottom=0;right=0;align=left;spacingLeft=6;fontStyle=1" parent="Mkx7goT2RhF-vi3lxjEB-116" vertex="1">
          <mxGeometry x="30" width="149.21419852120542" height="30" as="geometry">
            <mxRectangle width="149.21419852120542" height="30" as="alternateBounds" />
          </mxGeometry>
        </mxCell>
        <mxCell id="Mkx7goT2RhF-vi3lxjEB-119" value="INT" style="shape=partialRectangle;overflow=hidden;connectable=0;fillColor=none;top=0;left=0;bottom=0;right=0;align=left;spacingLeft=6;fontStyle=1" parent="Mkx7goT2RhF-vi3lxjEB-116" vertex="1">
          <mxGeometry x="179.21419852120542" width="124.78580147879458" height="30" as="geometry">
            <mxRectangle width="124.78580147879458" height="30" as="alternateBounds" />
          </mxGeometry>
        </mxCell>
        <mxCell id="Mkx7goT2RhF-vi3lxjEB-120" style="shape=partialRectangle;collapsible=0;dropTarget=0;pointerEvents=0;fillColor=none;points=[[0,0.5],[1,0.5]];portConstraint=eastwest;top=0;left=0;right=0;bottom=0;" parent="Mkx7goT2RhF-vi3lxjEB-95" vertex="1">
          <mxGeometry y="210" width="304" height="30" as="geometry" />
        </mxCell>
        <mxCell id="Mkx7goT2RhF-vi3lxjEB-121" style="shape=partialRectangle;overflow=hidden;connectable=0;fillColor=none;top=0;left=0;bottom=0;right=0;" parent="Mkx7goT2RhF-vi3lxjEB-120" vertex="1">
          <mxGeometry width="30" height="30" as="geometry">
            <mxRectangle width="30" height="30" as="alternateBounds" />
          </mxGeometry>
        </mxCell>
        <mxCell id="Mkx7goT2RhF-vi3lxjEB-122" value="DATE_SECOND" style="shape=partialRectangle;overflow=hidden;connectable=0;fillColor=none;top=0;left=0;bottom=0;right=0;align=left;spacingLeft=6;fontStyle=1" parent="Mkx7goT2RhF-vi3lxjEB-120" vertex="1">
          <mxGeometry x="30" width="149.21419852120542" height="30" as="geometry">
            <mxRectangle width="149.21419852120542" height="30" as="alternateBounds" />
          </mxGeometry>
        </mxCell>
        <mxCell id="Mkx7goT2RhF-vi3lxjEB-123" value="INT" style="shape=partialRectangle;overflow=hidden;connectable=0;fillColor=none;top=0;left=0;bottom=0;right=0;align=left;spacingLeft=6;fontStyle=1" parent="Mkx7goT2RhF-vi3lxjEB-120" vertex="1">
          <mxGeometry x="179.21419852120542" width="124.78580147879458" height="30" as="geometry">
            <mxRectangle width="124.78580147879458" height="30" as="alternateBounds" />
          </mxGeometry>
        </mxCell>
        <mxCell id="lDrXHmW2p7g8vtJwRlbW-5" style="shape=partialRectangle;collapsible=0;dropTarget=0;pointerEvents=0;fillColor=none;points=[[0,0.5],[1,0.5]];portConstraint=eastwest;top=0;left=0;right=0;bottom=0;" parent="Mkx7goT2RhF-vi3lxjEB-95" vertex="1">
          <mxGeometry y="240" width="304" height="30" as="geometry" />
        </mxCell>
        <mxCell id="lDrXHmW2p7g8vtJwRlbW-6" style="shape=partialRectangle;overflow=hidden;connectable=0;fillColor=none;top=0;left=0;bottom=0;right=0;" parent="lDrXHmW2p7g8vtJwRlbW-5" vertex="1">
          <mxGeometry width="30" height="30" as="geometry">
            <mxRectangle width="30" height="30" as="alternateBounds" />
          </mxGeometry>
        </mxCell>
        <mxCell id="lDrXHmW2p7g8vtJwRlbW-7" value="DATE_DAY_OF_WEEK" style="shape=partialRectangle;overflow=hidden;connectable=0;fillColor=none;top=0;left=0;bottom=0;right=0;align=left;spacingLeft=6;fontStyle=1" parent="lDrXHmW2p7g8vtJwRlbW-5" vertex="1">
          <mxGeometry x="30" width="149.21419852120542" height="30" as="geometry">
            <mxRectangle width="149.21419852120542" height="30" as="alternateBounds" />
          </mxGeometry>
        </mxCell>
        <mxCell id="lDrXHmW2p7g8vtJwRlbW-8" value="VARCHAR(20)" style="shape=partialRectangle;overflow=hidden;connectable=0;fillColor=none;top=0;left=0;bottom=0;right=0;align=left;spacingLeft=6;fontStyle=1" parent="lDrXHmW2p7g8vtJwRlbW-5" vertex="1">
          <mxGeometry x="179.21419852120542" width="124.78580147879458" height="30" as="geometry">
            <mxRectangle width="124.78580147879458" height="30" as="alternateBounds" />
          </mxGeometry>
        </mxCell>
        <mxCell id="lDrXHmW2p7g8vtJwRlbW-13" style="shape=partialRectangle;collapsible=0;dropTarget=0;pointerEvents=0;fillColor=none;points=[[0,0.5],[1,0.5]];portConstraint=eastwest;top=0;left=0;right=0;bottom=0;" parent="Mkx7goT2RhF-vi3lxjEB-95" vertex="1">
          <mxGeometry y="270" width="304" height="30" as="geometry" />
        </mxCell>
        <mxCell id="lDrXHmW2p7g8vtJwRlbW-14" style="shape=partialRectangle;overflow=hidden;connectable=0;fillColor=none;top=0;left=0;bottom=0;right=0;" parent="lDrXHmW2p7g8vtJwRlbW-13" vertex="1">
          <mxGeometry width="30" height="30" as="geometry">
            <mxRectangle width="30" height="30" as="alternateBounds" />
          </mxGeometry>
        </mxCell>
        <mxCell id="lDrXHmW2p7g8vtJwRlbW-15" value="DATE_IS_WEEKEND" style="shape=partialRectangle;overflow=hidden;connectable=0;fillColor=none;top=0;left=0;bottom=0;right=0;align=left;spacingLeft=6;fontStyle=1" parent="lDrXHmW2p7g8vtJwRlbW-13" vertex="1">
          <mxGeometry x="30" width="149.21419852120542" height="30" as="geometry">
            <mxRectangle width="149.21419852120542" height="30" as="alternateBounds" />
          </mxGeometry>
        </mxCell>
        <mxCell id="lDrXHmW2p7g8vtJwRlbW-16" value="BOOLEAN" style="shape=partialRectangle;overflow=hidden;connectable=0;fillColor=none;top=0;left=0;bottom=0;right=0;align=left;spacingLeft=6;fontStyle=1" parent="lDrXHmW2p7g8vtJwRlbW-13" vertex="1">
          <mxGeometry x="179.21419852120542" width="124.78580147879458" height="30" as="geometry">
            <mxRectangle width="124.78580147879458" height="30" as="alternateBounds" />
          </mxGeometry>
        </mxCell>
        <mxCell id="Mkx7goT2RhF-vi3lxjEB-124" style="shape=partialRectangle;collapsible=0;dropTarget=0;pointerEvents=0;fillColor=none;points=[[0,0.5],[1,0.5]];portConstraint=eastwest;top=0;left=0;right=0;bottom=0;" parent="Mkx7goT2RhF-vi3lxjEB-95" vertex="1">
          <mxGeometry y="300" width="304" height="30" as="geometry" />
        </mxCell>
        <mxCell id="Mkx7goT2RhF-vi3lxjEB-125" style="shape=partialRectangle;overflow=hidden;connectable=0;fillColor=none;top=0;left=0;bottom=0;right=0;" parent="Mkx7goT2RhF-vi3lxjEB-124" vertex="1">
          <mxGeometry width="30" height="30" as="geometry">
            <mxRectangle width="30" height="30" as="alternateBounds" />
          </mxGeometry>
        </mxCell>
        <mxCell id="Mkx7goT2RhF-vi3lxjEB-126" value="TA_INSERT_DT" style="shape=partialRectangle;overflow=hidden;connectable=0;fillColor=none;top=0;left=0;bottom=0;right=0;align=left;spacingLeft=6;fontStyle=1" parent="Mkx7goT2RhF-vi3lxjEB-124" vertex="1">
          <mxGeometry x="30" width="149.21419852120542" height="30" as="geometry">
            <mxRectangle width="149.21419852120542" height="30" as="alternateBounds" />
          </mxGeometry>
        </mxCell>
        <mxCell id="Mkx7goT2RhF-vi3lxjEB-127" value="DATE" style="shape=partialRectangle;overflow=hidden;connectable=0;fillColor=none;top=0;left=0;bottom=0;right=0;align=left;spacingLeft=6;fontStyle=1" parent="Mkx7goT2RhF-vi3lxjEB-124" vertex="1">
          <mxGeometry x="179.21419852120542" width="124.78580147879458" height="30" as="geometry">
            <mxRectangle width="124.78580147879458" height="30" as="alternateBounds" />
          </mxGeometry>
        </mxCell>
        <mxCell id="Mkx7goT2RhF-vi3lxjEB-128" style="shape=partialRectangle;collapsible=0;dropTarget=0;pointerEvents=0;fillColor=none;points=[[0,0.5],[1,0.5]];portConstraint=eastwest;top=0;left=0;right=0;bottom=0;" parent="Mkx7goT2RhF-vi3lxjEB-95" vertex="1">
          <mxGeometry y="330" width="304" height="30" as="geometry" />
        </mxCell>
        <mxCell id="Mkx7goT2RhF-vi3lxjEB-129" style="shape=partialRectangle;overflow=hidden;connectable=0;fillColor=none;top=0;left=0;bottom=0;right=0;" parent="Mkx7goT2RhF-vi3lxjEB-128" vertex="1">
          <mxGeometry width="30" height="30" as="geometry">
            <mxRectangle width="30" height="30" as="alternateBounds" />
          </mxGeometry>
        </mxCell>
        <mxCell id="Mkx7goT2RhF-vi3lxjEB-130" value="TA_UPDATE_DT" style="shape=partialRectangle;overflow=hidden;connectable=0;fillColor=none;top=0;left=0;bottom=0;right=0;align=left;spacingLeft=6;fontStyle=1" parent="Mkx7goT2RhF-vi3lxjEB-128" vertex="1">
          <mxGeometry x="30" width="149.21419852120542" height="30" as="geometry">
            <mxRectangle width="149.21419852120542" height="30" as="alternateBounds" />
          </mxGeometry>
        </mxCell>
        <mxCell id="Mkx7goT2RhF-vi3lxjEB-131" value="DATE" style="shape=partialRectangle;overflow=hidden;connectable=0;fillColor=none;top=0;left=0;bottom=0;right=0;align=left;spacingLeft=6;fontStyle=1" parent="Mkx7goT2RhF-vi3lxjEB-128" vertex="1">
          <mxGeometry x="179.21419852120542" width="124.78580147879458" height="30" as="geometry">
            <mxRectangle width="124.78580147879458" height="30" as="alternateBounds" />
          </mxGeometry>
        </mxCell>
        <mxCell id="Mkx7goT2RhF-vi3lxjEB-132" style="shape=partialRectangle;collapsible=0;dropTarget=0;pointerEvents=0;fillColor=none;points=[[0,0.5],[1,0.5]];portConstraint=eastwest;top=0;left=0;right=0;bottom=0;" parent="Mkx7goT2RhF-vi3lxjEB-95" vertex="1">
          <mxGeometry y="360" width="304" height="30" as="geometry" />
        </mxCell>
        <mxCell id="Mkx7goT2RhF-vi3lxjEB-133" style="shape=partialRectangle;overflow=hidden;connectable=0;fillColor=none;top=0;left=0;bottom=0;right=0;" parent="Mkx7goT2RhF-vi3lxjEB-132" vertex="1">
          <mxGeometry width="30" height="30" as="geometry">
            <mxRectangle width="30" height="30" as="alternateBounds" />
          </mxGeometry>
        </mxCell>
        <mxCell id="Mkx7goT2RhF-vi3lxjEB-134" value="DATE_SRC_ID" style="shape=partialRectangle;overflow=hidden;connectable=0;fillColor=none;top=0;left=0;bottom=0;right=0;align=left;spacingLeft=6;fontStyle=1" parent="Mkx7goT2RhF-vi3lxjEB-132" vertex="1">
          <mxGeometry x="30" width="149.21419852120542" height="30" as="geometry">
            <mxRectangle width="149.21419852120542" height="30" as="alternateBounds" />
          </mxGeometry>
        </mxCell>
        <mxCell id="Mkx7goT2RhF-vi3lxjEB-135" value="VARCHAR" style="shape=partialRectangle;overflow=hidden;connectable=0;fillColor=none;top=0;left=0;bottom=0;right=0;align=left;spacingLeft=6;fontStyle=1" parent="Mkx7goT2RhF-vi3lxjEB-132" vertex="1">
          <mxGeometry x="179.21419852120542" width="124.78580147879458" height="30" as="geometry">
            <mxRectangle width="124.78580147879458" height="30" as="alternateBounds" />
          </mxGeometry>
        </mxCell>
        <mxCell id="Mkx7goT2RhF-vi3lxjEB-136" style="shape=partialRectangle;collapsible=0;dropTarget=0;pointerEvents=0;fillColor=none;points=[[0,0.5],[1,0.5]];portConstraint=eastwest;top=0;left=0;right=0;bottom=0;" parent="Mkx7goT2RhF-vi3lxjEB-95" vertex="1">
          <mxGeometry y="390" width="304" height="30" as="geometry" />
        </mxCell>
        <mxCell id="Mkx7goT2RhF-vi3lxjEB-137" style="shape=partialRectangle;overflow=hidden;connectable=0;fillColor=none;top=0;left=0;bottom=0;right=0;" parent="Mkx7goT2RhF-vi3lxjEB-136" vertex="1">
          <mxGeometry width="30" height="30" as="geometry">
            <mxRectangle width="30" height="30" as="alternateBounds" />
          </mxGeometry>
        </mxCell>
        <mxCell id="Mkx7goT2RhF-vi3lxjEB-138" value="SOURCE_SYSTEM" style="shape=partialRectangle;overflow=hidden;connectable=0;fillColor=none;top=0;left=0;bottom=0;right=0;align=left;spacingLeft=6;fontStyle=1" parent="Mkx7goT2RhF-vi3lxjEB-136" vertex="1">
          <mxGeometry x="30" width="149.21419852120542" height="30" as="geometry">
            <mxRectangle width="149.21419852120542" height="30" as="alternateBounds" />
          </mxGeometry>
        </mxCell>
        <mxCell id="Mkx7goT2RhF-vi3lxjEB-139" value="VARCHAR" style="shape=partialRectangle;overflow=hidden;connectable=0;fillColor=none;top=0;left=0;bottom=0;right=0;align=left;spacingLeft=6;fontStyle=1" parent="Mkx7goT2RhF-vi3lxjEB-136" vertex="1">
          <mxGeometry x="179.21419852120542" width="124.78580147879458" height="30" as="geometry">
            <mxRectangle width="124.78580147879458" height="30" as="alternateBounds" />
          </mxGeometry>
        </mxCell>
        <mxCell id="Mkx7goT2RhF-vi3lxjEB-140" style="shape=partialRectangle;collapsible=0;dropTarget=0;pointerEvents=0;fillColor=none;points=[[0,0.5],[1,0.5]];portConstraint=eastwest;top=0;left=0;right=0;bottom=0;" parent="Mkx7goT2RhF-vi3lxjEB-95" vertex="1">
          <mxGeometry y="420" width="304" height="30" as="geometry" />
        </mxCell>
        <mxCell id="Mkx7goT2RhF-vi3lxjEB-141" style="shape=partialRectangle;overflow=hidden;connectable=0;fillColor=none;top=0;left=0;bottom=0;right=0;" parent="Mkx7goT2RhF-vi3lxjEB-140" vertex="1">
          <mxGeometry width="30" height="30" as="geometry">
            <mxRectangle width="30" height="30" as="alternateBounds" />
          </mxGeometry>
        </mxCell>
        <mxCell id="Mkx7goT2RhF-vi3lxjEB-142" value="SOURCE_ENTITY" style="shape=partialRectangle;overflow=hidden;connectable=0;fillColor=none;top=0;left=0;bottom=0;right=0;align=left;spacingLeft=6;fontStyle=1" parent="Mkx7goT2RhF-vi3lxjEB-140" vertex="1">
          <mxGeometry x="30" width="149.21419852120542" height="30" as="geometry">
            <mxRectangle width="149.21419852120542" height="30" as="alternateBounds" />
          </mxGeometry>
        </mxCell>
        <mxCell id="Mkx7goT2RhF-vi3lxjEB-143" value="VARCHAR" style="shape=partialRectangle;overflow=hidden;connectable=0;fillColor=none;top=0;left=0;bottom=0;right=0;align=left;spacingLeft=6;fontStyle=1" parent="Mkx7goT2RhF-vi3lxjEB-140" vertex="1">
          <mxGeometry x="179.21419852120542" width="124.78580147879458" height="30" as="geometry">
            <mxRectangle width="124.78580147879458" height="30" as="alternateBounds" />
          </mxGeometry>
        </mxCell>
        <mxCell id="Mkx7goT2RhF-vi3lxjEB-144" value="DIM_SCREENS" style="shape=table;startSize=31;container=1;collapsible=1;childLayout=tableLayout;fixedRows=1;rowLines=0;fontStyle=1;align=center;resizeLast=1;fontSize=15;" parent="1" vertex="1">
          <mxGeometry x="916" y="459" width="347" height="271" as="geometry" />
        </mxCell>
        <mxCell id="Mkx7goT2RhF-vi3lxjEB-145" value="" style="shape=partialRectangle;collapsible=0;dropTarget=0;pointerEvents=0;fillColor=none;points=[[0,0.5],[1,0.5]];portConstraint=eastwest;top=0;left=0;right=0;bottom=1;" parent="Mkx7goT2RhF-vi3lxjEB-144" vertex="1">
          <mxGeometry y="31" width="347" height="30" as="geometry" />
        </mxCell>
        <mxCell id="Mkx7goT2RhF-vi3lxjEB-146" value="PK" style="shape=partialRectangle;overflow=hidden;connectable=0;fillColor=none;top=0;left=0;bottom=0;right=0;fontStyle=1;" parent="Mkx7goT2RhF-vi3lxjEB-145" vertex="1">
          <mxGeometry width="30" height="30" as="geometry">
            <mxRectangle width="30" height="30" as="alternateBounds" />
          </mxGeometry>
        </mxCell>
        <mxCell id="Mkx7goT2RhF-vi3lxjEB-147" value="SCREEN_SURR_ID" style="shape=partialRectangle;overflow=hidden;connectable=0;fillColor=none;top=0;left=0;bottom=0;right=0;align=left;spacingLeft=6;fontStyle=5;" parent="Mkx7goT2RhF-vi3lxjEB-145" vertex="1">
          <mxGeometry x="30" width="192.58333333333326" height="30" as="geometry">
            <mxRectangle width="192.58333333333326" height="30" as="alternateBounds" />
          </mxGeometry>
        </mxCell>
        <mxCell id="Mkx7goT2RhF-vi3lxjEB-148" value="BIGINT NOT NULL" style="shape=partialRectangle;overflow=hidden;connectable=0;fillColor=none;top=0;left=0;bottom=0;right=0;align=left;spacingLeft=6;fontStyle=5;" parent="Mkx7goT2RhF-vi3lxjEB-145" vertex="1">
          <mxGeometry x="222.58333333333326" width="124.41666666666674" height="30" as="geometry">
            <mxRectangle width="124.41666666666674" height="30" as="alternateBounds" />
          </mxGeometry>
        </mxCell>
        <mxCell id="Mkx7goT2RhF-vi3lxjEB-149" value="" style="shape=partialRectangle;collapsible=0;dropTarget=0;pointerEvents=0;fillColor=none;points=[[0,0.5],[1,0.5]];portConstraint=eastwest;top=0;left=0;right=0;bottom=0;" parent="Mkx7goT2RhF-vi3lxjEB-144" vertex="1">
          <mxGeometry y="61" width="347" height="30" as="geometry" />
        </mxCell>
        <mxCell id="Mkx7goT2RhF-vi3lxjEB-150" value="" style="shape=partialRectangle;overflow=hidden;connectable=0;fillColor=none;top=0;left=0;bottom=0;right=0;" parent="Mkx7goT2RhF-vi3lxjEB-149" vertex="1">
          <mxGeometry width="30" height="30" as="geometry">
            <mxRectangle width="30" height="30" as="alternateBounds" />
          </mxGeometry>
        </mxCell>
        <mxCell id="Mkx7goT2RhF-vi3lxjEB-151" value="SCREEN_TYPE" style="shape=partialRectangle;overflow=hidden;connectable=0;fillColor=none;top=0;left=0;bottom=0;right=0;align=left;spacingLeft=6;fontStyle=1" parent="Mkx7goT2RhF-vi3lxjEB-149" vertex="1">
          <mxGeometry x="30" width="192.58333333333326" height="30" as="geometry">
            <mxRectangle width="192.58333333333326" height="30" as="alternateBounds" />
          </mxGeometry>
        </mxCell>
        <mxCell id="Mkx7goT2RhF-vi3lxjEB-152" value="VARCHAR(100)" style="shape=partialRectangle;overflow=hidden;connectable=0;fillColor=none;top=0;left=0;bottom=0;right=0;align=left;spacingLeft=6;fontStyle=1" parent="Mkx7goT2RhF-vi3lxjEB-149" vertex="1">
          <mxGeometry x="222.58333333333326" width="124.41666666666674" height="30" as="geometry">
            <mxRectangle width="124.41666666666674" height="30" as="alternateBounds" />
          </mxGeometry>
        </mxCell>
        <mxCell id="Mkx7goT2RhF-vi3lxjEB-153" value="" style="shape=partialRectangle;collapsible=0;dropTarget=0;pointerEvents=0;fillColor=none;points=[[0,0.5],[1,0.5]];portConstraint=eastwest;top=0;left=0;right=0;bottom=0;" parent="Mkx7goT2RhF-vi3lxjEB-144" vertex="1">
          <mxGeometry y="91" width="347" height="30" as="geometry" />
        </mxCell>
        <mxCell id="Mkx7goT2RhF-vi3lxjEB-154" value="" style="shape=partialRectangle;overflow=hidden;connectable=0;fillColor=none;top=0;left=0;bottom=0;right=0;" parent="Mkx7goT2RhF-vi3lxjEB-153" vertex="1">
          <mxGeometry width="30" height="30" as="geometry">
            <mxRectangle width="30" height="30" as="alternateBounds" />
          </mxGeometry>
        </mxCell>
        <mxCell id="Mkx7goT2RhF-vi3lxjEB-155" value="SCREEN_SEATING_CAPACITY" style="shape=partialRectangle;overflow=hidden;connectable=0;fillColor=none;top=0;left=0;bottom=0;right=0;align=left;spacingLeft=6;fontStyle=1" parent="Mkx7goT2RhF-vi3lxjEB-153" vertex="1">
          <mxGeometry x="30" width="192.58333333333326" height="30" as="geometry">
            <mxRectangle width="192.58333333333326" height="30" as="alternateBounds" />
          </mxGeometry>
        </mxCell>
        <mxCell id="Mkx7goT2RhF-vi3lxjEB-156" value="INT" style="shape=partialRectangle;overflow=hidden;connectable=0;fillColor=none;top=0;left=0;bottom=0;right=0;align=left;spacingLeft=6;fontStyle=1" parent="Mkx7goT2RhF-vi3lxjEB-153" vertex="1">
          <mxGeometry x="222.58333333333326" width="124.41666666666674" height="30" as="geometry">
            <mxRectangle width="124.41666666666674" height="30" as="alternateBounds" />
          </mxGeometry>
        </mxCell>
        <mxCell id="Mkx7goT2RhF-vi3lxjEB-161" style="shape=partialRectangle;collapsible=0;dropTarget=0;pointerEvents=0;fillColor=none;points=[[0,0.5],[1,0.5]];portConstraint=eastwest;top=0;left=0;right=0;bottom=0;" parent="Mkx7goT2RhF-vi3lxjEB-144" vertex="1">
          <mxGeometry y="121" width="347" height="30" as="geometry" />
        </mxCell>
        <mxCell id="Mkx7goT2RhF-vi3lxjEB-162" style="shape=partialRectangle;overflow=hidden;connectable=0;fillColor=none;top=0;left=0;bottom=0;right=0;" parent="Mkx7goT2RhF-vi3lxjEB-161" vertex="1">
          <mxGeometry width="30" height="30" as="geometry">
            <mxRectangle width="30" height="30" as="alternateBounds" />
          </mxGeometry>
        </mxCell>
        <mxCell id="Mkx7goT2RhF-vi3lxjEB-163" value="TA_INSERT_DT" style="shape=partialRectangle;overflow=hidden;connectable=0;fillColor=none;top=0;left=0;bottom=0;right=0;align=left;spacingLeft=6;fontStyle=1" parent="Mkx7goT2RhF-vi3lxjEB-161" vertex="1">
          <mxGeometry x="30" width="192.58333333333326" height="30" as="geometry">
            <mxRectangle width="192.58333333333326" height="30" as="alternateBounds" />
          </mxGeometry>
        </mxCell>
        <mxCell id="Mkx7goT2RhF-vi3lxjEB-164" value="DATE" style="shape=partialRectangle;overflow=hidden;connectable=0;fillColor=none;top=0;left=0;bottom=0;right=0;align=left;spacingLeft=6;fontStyle=1" parent="Mkx7goT2RhF-vi3lxjEB-161" vertex="1">
          <mxGeometry x="222.58333333333326" width="124.41666666666674" height="30" as="geometry">
            <mxRectangle width="124.41666666666674" height="30" as="alternateBounds" />
          </mxGeometry>
        </mxCell>
        <mxCell id="Mkx7goT2RhF-vi3lxjEB-165" style="shape=partialRectangle;collapsible=0;dropTarget=0;pointerEvents=0;fillColor=none;points=[[0,0.5],[1,0.5]];portConstraint=eastwest;top=0;left=0;right=0;bottom=0;" parent="Mkx7goT2RhF-vi3lxjEB-144" vertex="1">
          <mxGeometry y="151" width="347" height="30" as="geometry" />
        </mxCell>
        <mxCell id="Mkx7goT2RhF-vi3lxjEB-166" style="shape=partialRectangle;overflow=hidden;connectable=0;fillColor=none;top=0;left=0;bottom=0;right=0;" parent="Mkx7goT2RhF-vi3lxjEB-165" vertex="1">
          <mxGeometry width="30" height="30" as="geometry">
            <mxRectangle width="30" height="30" as="alternateBounds" />
          </mxGeometry>
        </mxCell>
        <mxCell id="Mkx7goT2RhF-vi3lxjEB-167" value="TA_UPDATE_DT" style="shape=partialRectangle;overflow=hidden;connectable=0;fillColor=none;top=0;left=0;bottom=0;right=0;align=left;spacingLeft=6;fontStyle=1" parent="Mkx7goT2RhF-vi3lxjEB-165" vertex="1">
          <mxGeometry x="30" width="192.58333333333326" height="30" as="geometry">
            <mxRectangle width="192.58333333333326" height="30" as="alternateBounds" />
          </mxGeometry>
        </mxCell>
        <mxCell id="Mkx7goT2RhF-vi3lxjEB-168" value="DATE" style="shape=partialRectangle;overflow=hidden;connectable=0;fillColor=none;top=0;left=0;bottom=0;right=0;align=left;spacingLeft=6;fontStyle=1" parent="Mkx7goT2RhF-vi3lxjEB-165" vertex="1">
          <mxGeometry x="222.58333333333326" width="124.41666666666674" height="30" as="geometry">
            <mxRectangle width="124.41666666666674" height="30" as="alternateBounds" />
          </mxGeometry>
        </mxCell>
        <mxCell id="Mkx7goT2RhF-vi3lxjEB-169" style="shape=partialRectangle;collapsible=0;dropTarget=0;pointerEvents=0;fillColor=none;points=[[0,0.5],[1,0.5]];portConstraint=eastwest;top=0;left=0;right=0;bottom=0;" parent="Mkx7goT2RhF-vi3lxjEB-144" vertex="1">
          <mxGeometry y="181" width="347" height="30" as="geometry" />
        </mxCell>
        <mxCell id="Mkx7goT2RhF-vi3lxjEB-170" style="shape=partialRectangle;overflow=hidden;connectable=0;fillColor=none;top=0;left=0;bottom=0;right=0;" parent="Mkx7goT2RhF-vi3lxjEB-169" vertex="1">
          <mxGeometry width="30" height="30" as="geometry">
            <mxRectangle width="30" height="30" as="alternateBounds" />
          </mxGeometry>
        </mxCell>
        <mxCell id="Mkx7goT2RhF-vi3lxjEB-171" value="SCREEN_SRC_ID" style="shape=partialRectangle;overflow=hidden;connectable=0;fillColor=none;top=0;left=0;bottom=0;right=0;align=left;spacingLeft=6;fontStyle=1" parent="Mkx7goT2RhF-vi3lxjEB-169" vertex="1">
          <mxGeometry x="30" width="192.58333333333326" height="30" as="geometry">
            <mxRectangle width="192.58333333333326" height="30" as="alternateBounds" />
          </mxGeometry>
        </mxCell>
        <mxCell id="Mkx7goT2RhF-vi3lxjEB-172" value="VARCHAR" style="shape=partialRectangle;overflow=hidden;connectable=0;fillColor=none;top=0;left=0;bottom=0;right=0;align=left;spacingLeft=6;fontStyle=1" parent="Mkx7goT2RhF-vi3lxjEB-169" vertex="1">
          <mxGeometry x="222.58333333333326" width="124.41666666666674" height="30" as="geometry">
            <mxRectangle width="124.41666666666674" height="30" as="alternateBounds" />
          </mxGeometry>
        </mxCell>
        <mxCell id="Mkx7goT2RhF-vi3lxjEB-173" style="shape=partialRectangle;collapsible=0;dropTarget=0;pointerEvents=0;fillColor=none;points=[[0,0.5],[1,0.5]];portConstraint=eastwest;top=0;left=0;right=0;bottom=0;" parent="Mkx7goT2RhF-vi3lxjEB-144" vertex="1">
          <mxGeometry y="211" width="347" height="30" as="geometry" />
        </mxCell>
        <mxCell id="Mkx7goT2RhF-vi3lxjEB-174" style="shape=partialRectangle;overflow=hidden;connectable=0;fillColor=none;top=0;left=0;bottom=0;right=0;" parent="Mkx7goT2RhF-vi3lxjEB-173" vertex="1">
          <mxGeometry width="30" height="30" as="geometry">
            <mxRectangle width="30" height="30" as="alternateBounds" />
          </mxGeometry>
        </mxCell>
        <mxCell id="Mkx7goT2RhF-vi3lxjEB-175" value="SOURCE_SYSTEM" style="shape=partialRectangle;overflow=hidden;connectable=0;fillColor=none;top=0;left=0;bottom=0;right=0;align=left;spacingLeft=6;fontStyle=1" parent="Mkx7goT2RhF-vi3lxjEB-173" vertex="1">
          <mxGeometry x="30" width="192.58333333333326" height="30" as="geometry">
            <mxRectangle width="192.58333333333326" height="30" as="alternateBounds" />
          </mxGeometry>
        </mxCell>
        <mxCell id="Mkx7goT2RhF-vi3lxjEB-176" value="VARCHAR" style="shape=partialRectangle;overflow=hidden;connectable=0;fillColor=none;top=0;left=0;bottom=0;right=0;align=left;spacingLeft=6;fontStyle=1" parent="Mkx7goT2RhF-vi3lxjEB-173" vertex="1">
          <mxGeometry x="222.58333333333326" width="124.41666666666674" height="30" as="geometry">
            <mxRectangle width="124.41666666666674" height="30" as="alternateBounds" />
          </mxGeometry>
        </mxCell>
        <mxCell id="Mkx7goT2RhF-vi3lxjEB-177" style="shape=partialRectangle;collapsible=0;dropTarget=0;pointerEvents=0;fillColor=none;points=[[0,0.5],[1,0.5]];portConstraint=eastwest;top=0;left=0;right=0;bottom=0;" parent="Mkx7goT2RhF-vi3lxjEB-144" vertex="1">
          <mxGeometry y="241" width="347" height="30" as="geometry" />
        </mxCell>
        <mxCell id="Mkx7goT2RhF-vi3lxjEB-178" style="shape=partialRectangle;overflow=hidden;connectable=0;fillColor=none;top=0;left=0;bottom=0;right=0;" parent="Mkx7goT2RhF-vi3lxjEB-177" vertex="1">
          <mxGeometry width="30" height="30" as="geometry">
            <mxRectangle width="30" height="30" as="alternateBounds" />
          </mxGeometry>
        </mxCell>
        <mxCell id="Mkx7goT2RhF-vi3lxjEB-179" value="SOURCE_ENTITY" style="shape=partialRectangle;overflow=hidden;connectable=0;fillColor=none;top=0;left=0;bottom=0;right=0;align=left;spacingLeft=6;fontStyle=1" parent="Mkx7goT2RhF-vi3lxjEB-177" vertex="1">
          <mxGeometry x="30" width="192.58333333333326" height="30" as="geometry">
            <mxRectangle width="192.58333333333326" height="30" as="alternateBounds" />
          </mxGeometry>
        </mxCell>
        <mxCell id="Mkx7goT2RhF-vi3lxjEB-180" value="VARCHAR" style="shape=partialRectangle;overflow=hidden;connectable=0;fillColor=none;top=0;left=0;bottom=0;right=0;align=left;spacingLeft=6;fontStyle=1" parent="Mkx7goT2RhF-vi3lxjEB-177" vertex="1">
          <mxGeometry x="222.58333333333326" width="124.41666666666674" height="30" as="geometry">
            <mxRectangle width="124.41666666666674" height="30" as="alternateBounds" />
          </mxGeometry>
        </mxCell>
        <mxCell id="Mkx7goT2RhF-vi3lxjEB-181" value="DIM_DISCOUNTS" style="shape=table;startSize=30;container=1;collapsible=1;childLayout=tableLayout;fixedRows=1;rowLines=0;fontStyle=1;align=center;resizeLast=1;fontSize=15;" parent="1" vertex="1">
          <mxGeometry x="-234" y="798" width="333" height="300" as="geometry" />
        </mxCell>
        <mxCell id="Mkx7goT2RhF-vi3lxjEB-182" value="" style="shape=partialRectangle;collapsible=0;dropTarget=0;pointerEvents=0;fillColor=none;points=[[0,0.5],[1,0.5]];portConstraint=eastwest;top=0;left=0;right=0;bottom=1;" parent="Mkx7goT2RhF-vi3lxjEB-181" vertex="1">
          <mxGeometry y="30" width="333" height="30" as="geometry" />
        </mxCell>
        <mxCell id="Mkx7goT2RhF-vi3lxjEB-183" value="PK" style="shape=partialRectangle;overflow=hidden;connectable=0;fillColor=none;top=0;left=0;bottom=0;right=0;fontStyle=1;" parent="Mkx7goT2RhF-vi3lxjEB-182" vertex="1">
          <mxGeometry width="30" height="30" as="geometry">
            <mxRectangle width="30" height="30" as="alternateBounds" />
          </mxGeometry>
        </mxCell>
        <mxCell id="Mkx7goT2RhF-vi3lxjEB-184" value="DISCOUNT_SURR_ID" style="shape=partialRectangle;overflow=hidden;connectable=0;fillColor=none;top=0;left=0;bottom=0;right=0;align=left;spacingLeft=6;fontStyle=5;" parent="Mkx7goT2RhF-vi3lxjEB-182" vertex="1">
          <mxGeometry x="30" width="175.58335367838558" height="30" as="geometry">
            <mxRectangle width="175.58335367838558" height="30" as="alternateBounds" />
          </mxGeometry>
        </mxCell>
        <mxCell id="Mkx7goT2RhF-vi3lxjEB-185" value="BIGINT NOT NULL" style="shape=partialRectangle;overflow=hidden;connectable=0;fillColor=none;top=0;left=0;bottom=0;right=0;align=left;spacingLeft=6;fontStyle=5;" parent="Mkx7goT2RhF-vi3lxjEB-182" vertex="1">
          <mxGeometry x="205.58335367838558" width="127.41664632161442" height="30" as="geometry">
            <mxRectangle width="127.41664632161442" height="30" as="alternateBounds" />
          </mxGeometry>
        </mxCell>
        <mxCell id="Mkx7goT2RhF-vi3lxjEB-186" value="" style="shape=partialRectangle;collapsible=0;dropTarget=0;pointerEvents=0;fillColor=none;points=[[0,0.5],[1,0.5]];portConstraint=eastwest;top=0;left=0;right=0;bottom=0;" parent="Mkx7goT2RhF-vi3lxjEB-181" vertex="1">
          <mxGeometry y="60" width="333" height="30" as="geometry" />
        </mxCell>
        <mxCell id="Mkx7goT2RhF-vi3lxjEB-187" value="" style="shape=partialRectangle;overflow=hidden;connectable=0;fillColor=none;top=0;left=0;bottom=0;right=0;" parent="Mkx7goT2RhF-vi3lxjEB-186" vertex="1">
          <mxGeometry width="30" height="30" as="geometry">
            <mxRectangle width="30" height="30" as="alternateBounds" />
          </mxGeometry>
        </mxCell>
        <mxCell id="Mkx7goT2RhF-vi3lxjEB-188" value="DISCOUNT_PERCENTAGE" style="shape=partialRectangle;overflow=hidden;connectable=0;fillColor=none;top=0;left=0;bottom=0;right=0;align=left;spacingLeft=6;fontStyle=1" parent="Mkx7goT2RhF-vi3lxjEB-186" vertex="1">
          <mxGeometry x="30" width="175.58335367838558" height="30" as="geometry">
            <mxRectangle width="175.58335367838558" height="30" as="alternateBounds" />
          </mxGeometry>
        </mxCell>
        <mxCell id="Mkx7goT2RhF-vi3lxjEB-189" value="DECIMAL" style="shape=partialRectangle;overflow=hidden;connectable=0;fillColor=none;top=0;left=0;bottom=0;right=0;align=left;spacingLeft=6;fontStyle=1" parent="Mkx7goT2RhF-vi3lxjEB-186" vertex="1">
          <mxGeometry x="205.58335367838558" width="127.41664632161442" height="30" as="geometry">
            <mxRectangle width="127.41664632161442" height="30" as="alternateBounds" />
          </mxGeometry>
        </mxCell>
        <mxCell id="Mkx7goT2RhF-vi3lxjEB-190" value="" style="shape=partialRectangle;collapsible=0;dropTarget=0;pointerEvents=0;fillColor=none;points=[[0,0.5],[1,0.5]];portConstraint=eastwest;top=0;left=0;right=0;bottom=0;" parent="Mkx7goT2RhF-vi3lxjEB-181" vertex="1">
          <mxGeometry y="90" width="333" height="30" as="geometry" />
        </mxCell>
        <mxCell id="Mkx7goT2RhF-vi3lxjEB-191" value="" style="shape=partialRectangle;overflow=hidden;connectable=0;fillColor=none;top=0;left=0;bottom=0;right=0;" parent="Mkx7goT2RhF-vi3lxjEB-190" vertex="1">
          <mxGeometry width="30" height="30" as="geometry">
            <mxRectangle width="30" height="30" as="alternateBounds" />
          </mxGeometry>
        </mxCell>
        <mxCell id="Mkx7goT2RhF-vi3lxjEB-192" value="DISCOUNT_DESCRIPTION" style="shape=partialRectangle;overflow=hidden;connectable=0;fillColor=none;top=0;left=0;bottom=0;right=0;align=left;spacingLeft=6;fontStyle=1" parent="Mkx7goT2RhF-vi3lxjEB-190" vertex="1">
          <mxGeometry x="30" width="175.58335367838558" height="30" as="geometry">
            <mxRectangle width="175.58335367838558" height="30" as="alternateBounds" />
          </mxGeometry>
        </mxCell>
        <mxCell id="Mkx7goT2RhF-vi3lxjEB-193" value="VARCHAR(1000)" style="shape=partialRectangle;overflow=hidden;connectable=0;fillColor=none;top=0;left=0;bottom=0;right=0;align=left;spacingLeft=6;fontStyle=1" parent="Mkx7goT2RhF-vi3lxjEB-190" vertex="1">
          <mxGeometry x="205.58335367838558" width="127.41664632161442" height="30" as="geometry">
            <mxRectangle width="127.41664632161442" height="30" as="alternateBounds" />
          </mxGeometry>
        </mxCell>
        <mxCell id="Mkx7goT2RhF-vi3lxjEB-194" style="shape=partialRectangle;collapsible=0;dropTarget=0;pointerEvents=0;fillColor=none;points=[[0,0.5],[1,0.5]];portConstraint=eastwest;top=0;left=0;right=0;bottom=0;" parent="Mkx7goT2RhF-vi3lxjEB-181" vertex="1">
          <mxGeometry y="120" width="333" height="30" as="geometry" />
        </mxCell>
        <mxCell id="Mkx7goT2RhF-vi3lxjEB-195" style="shape=partialRectangle;overflow=hidden;connectable=0;fillColor=none;top=0;left=0;bottom=0;right=0;" parent="Mkx7goT2RhF-vi3lxjEB-194" vertex="1">
          <mxGeometry width="30" height="30" as="geometry">
            <mxRectangle width="30" height="30" as="alternateBounds" />
          </mxGeometry>
        </mxCell>
        <mxCell id="Mkx7goT2RhF-vi3lxjEB-196" value="DISCOUNT_DATE" style="shape=partialRectangle;overflow=hidden;connectable=0;fillColor=none;top=0;left=0;bottom=0;right=0;align=left;spacingLeft=6;fontStyle=1" parent="Mkx7goT2RhF-vi3lxjEB-194" vertex="1">
          <mxGeometry x="30" width="175.58335367838558" height="30" as="geometry">
            <mxRectangle width="175.58335367838558" height="30" as="alternateBounds" />
          </mxGeometry>
        </mxCell>
        <mxCell id="Mkx7goT2RhF-vi3lxjEB-197" value="DATE " style="shape=partialRectangle;overflow=hidden;connectable=0;fillColor=none;top=0;left=0;bottom=0;right=0;align=left;spacingLeft=6;fontStyle=1" parent="Mkx7goT2RhF-vi3lxjEB-194" vertex="1">
          <mxGeometry x="205.58335367838558" width="127.41664632161442" height="30" as="geometry">
            <mxRectangle width="127.41664632161442" height="30" as="alternateBounds" />
          </mxGeometry>
        </mxCell>
        <mxCell id="Mkx7goT2RhF-vi3lxjEB-198" style="shape=partialRectangle;collapsible=0;dropTarget=0;pointerEvents=0;fillColor=none;points=[[0,0.5],[1,0.5]];portConstraint=eastwest;top=0;left=0;right=0;bottom=0;" parent="Mkx7goT2RhF-vi3lxjEB-181" vertex="1">
          <mxGeometry y="150" width="333" height="30" as="geometry" />
        </mxCell>
        <mxCell id="Mkx7goT2RhF-vi3lxjEB-199" style="shape=partialRectangle;overflow=hidden;connectable=0;fillColor=none;top=0;left=0;bottom=0;right=0;" parent="Mkx7goT2RhF-vi3lxjEB-198" vertex="1">
          <mxGeometry width="30" height="30" as="geometry">
            <mxRectangle width="30" height="30" as="alternateBounds" />
          </mxGeometry>
        </mxCell>
        <mxCell id="Mkx7goT2RhF-vi3lxjEB-200" value="TA_INSERT_DT" style="shape=partialRectangle;overflow=hidden;connectable=0;fillColor=none;top=0;left=0;bottom=0;right=0;align=left;spacingLeft=6;fontStyle=1" parent="Mkx7goT2RhF-vi3lxjEB-198" vertex="1">
          <mxGeometry x="30" width="175.58335367838558" height="30" as="geometry">
            <mxRectangle width="175.58335367838558" height="30" as="alternateBounds" />
          </mxGeometry>
        </mxCell>
        <mxCell id="Mkx7goT2RhF-vi3lxjEB-201" value="DATE" style="shape=partialRectangle;overflow=hidden;connectable=0;fillColor=none;top=0;left=0;bottom=0;right=0;align=left;spacingLeft=6;fontStyle=1" parent="Mkx7goT2RhF-vi3lxjEB-198" vertex="1">
          <mxGeometry x="205.58335367838558" width="127.41664632161442" height="30" as="geometry">
            <mxRectangle width="127.41664632161442" height="30" as="alternateBounds" />
          </mxGeometry>
        </mxCell>
        <mxCell id="Mkx7goT2RhF-vi3lxjEB-202" style="shape=partialRectangle;collapsible=0;dropTarget=0;pointerEvents=0;fillColor=none;points=[[0,0.5],[1,0.5]];portConstraint=eastwest;top=0;left=0;right=0;bottom=0;" parent="Mkx7goT2RhF-vi3lxjEB-181" vertex="1">
          <mxGeometry y="180" width="333" height="30" as="geometry" />
        </mxCell>
        <mxCell id="Mkx7goT2RhF-vi3lxjEB-203" style="shape=partialRectangle;overflow=hidden;connectable=0;fillColor=none;top=0;left=0;bottom=0;right=0;" parent="Mkx7goT2RhF-vi3lxjEB-202" vertex="1">
          <mxGeometry width="30" height="30" as="geometry">
            <mxRectangle width="30" height="30" as="alternateBounds" />
          </mxGeometry>
        </mxCell>
        <mxCell id="Mkx7goT2RhF-vi3lxjEB-204" value="TA_UPDATE_DT" style="shape=partialRectangle;overflow=hidden;connectable=0;fillColor=none;top=0;left=0;bottom=0;right=0;align=left;spacingLeft=6;fontStyle=1" parent="Mkx7goT2RhF-vi3lxjEB-202" vertex="1">
          <mxGeometry x="30" width="175.58335367838558" height="30" as="geometry">
            <mxRectangle width="175.58335367838558" height="30" as="alternateBounds" />
          </mxGeometry>
        </mxCell>
        <mxCell id="Mkx7goT2RhF-vi3lxjEB-205" value="DATE" style="shape=partialRectangle;overflow=hidden;connectable=0;fillColor=none;top=0;left=0;bottom=0;right=0;align=left;spacingLeft=6;fontStyle=1" parent="Mkx7goT2RhF-vi3lxjEB-202" vertex="1">
          <mxGeometry x="205.58335367838558" width="127.41664632161442" height="30" as="geometry">
            <mxRectangle width="127.41664632161442" height="30" as="alternateBounds" />
          </mxGeometry>
        </mxCell>
        <mxCell id="Mkx7goT2RhF-vi3lxjEB-206" style="shape=partialRectangle;collapsible=0;dropTarget=0;pointerEvents=0;fillColor=none;points=[[0,0.5],[1,0.5]];portConstraint=eastwest;top=0;left=0;right=0;bottom=0;" parent="Mkx7goT2RhF-vi3lxjEB-181" vertex="1">
          <mxGeometry y="210" width="333" height="30" as="geometry" />
        </mxCell>
        <mxCell id="Mkx7goT2RhF-vi3lxjEB-207" style="shape=partialRectangle;overflow=hidden;connectable=0;fillColor=none;top=0;left=0;bottom=0;right=0;" parent="Mkx7goT2RhF-vi3lxjEB-206" vertex="1">
          <mxGeometry width="30" height="30" as="geometry">
            <mxRectangle width="30" height="30" as="alternateBounds" />
          </mxGeometry>
        </mxCell>
        <mxCell id="Mkx7goT2RhF-vi3lxjEB-208" value="DISCOUNT_SRC_ID" style="shape=partialRectangle;overflow=hidden;connectable=0;fillColor=none;top=0;left=0;bottom=0;right=0;align=left;spacingLeft=6;fontStyle=1" parent="Mkx7goT2RhF-vi3lxjEB-206" vertex="1">
          <mxGeometry x="30" width="175.58335367838558" height="30" as="geometry">
            <mxRectangle width="175.58335367838558" height="30" as="alternateBounds" />
          </mxGeometry>
        </mxCell>
        <mxCell id="Mkx7goT2RhF-vi3lxjEB-209" value="VARCHAR" style="shape=partialRectangle;overflow=hidden;connectable=0;fillColor=none;top=0;left=0;bottom=0;right=0;align=left;spacingLeft=6;fontStyle=1" parent="Mkx7goT2RhF-vi3lxjEB-206" vertex="1">
          <mxGeometry x="205.58335367838558" width="127.41664632161442" height="30" as="geometry">
            <mxRectangle width="127.41664632161442" height="30" as="alternateBounds" />
          </mxGeometry>
        </mxCell>
        <mxCell id="Mkx7goT2RhF-vi3lxjEB-210" style="shape=partialRectangle;collapsible=0;dropTarget=0;pointerEvents=0;fillColor=none;points=[[0,0.5],[1,0.5]];portConstraint=eastwest;top=0;left=0;right=0;bottom=0;" parent="Mkx7goT2RhF-vi3lxjEB-181" vertex="1">
          <mxGeometry y="240" width="333" height="30" as="geometry" />
        </mxCell>
        <mxCell id="Mkx7goT2RhF-vi3lxjEB-211" style="shape=partialRectangle;overflow=hidden;connectable=0;fillColor=none;top=0;left=0;bottom=0;right=0;" parent="Mkx7goT2RhF-vi3lxjEB-210" vertex="1">
          <mxGeometry width="30" height="30" as="geometry">
            <mxRectangle width="30" height="30" as="alternateBounds" />
          </mxGeometry>
        </mxCell>
        <mxCell id="Mkx7goT2RhF-vi3lxjEB-212" value="SOURCE_SYSTEM" style="shape=partialRectangle;overflow=hidden;connectable=0;fillColor=none;top=0;left=0;bottom=0;right=0;align=left;spacingLeft=6;fontStyle=1" parent="Mkx7goT2RhF-vi3lxjEB-210" vertex="1">
          <mxGeometry x="30" width="175.58335367838558" height="30" as="geometry">
            <mxRectangle width="175.58335367838558" height="30" as="alternateBounds" />
          </mxGeometry>
        </mxCell>
        <mxCell id="Mkx7goT2RhF-vi3lxjEB-213" value="VARCHAR" style="shape=partialRectangle;overflow=hidden;connectable=0;fillColor=none;top=0;left=0;bottom=0;right=0;align=left;spacingLeft=6;fontStyle=1" parent="Mkx7goT2RhF-vi3lxjEB-210" vertex="1">
          <mxGeometry x="205.58335367838558" width="127.41664632161442" height="30" as="geometry">
            <mxRectangle width="127.41664632161442" height="30" as="alternateBounds" />
          </mxGeometry>
        </mxCell>
        <mxCell id="Mkx7goT2RhF-vi3lxjEB-214" style="shape=partialRectangle;collapsible=0;dropTarget=0;pointerEvents=0;fillColor=none;points=[[0,0.5],[1,0.5]];portConstraint=eastwest;top=0;left=0;right=0;bottom=0;" parent="Mkx7goT2RhF-vi3lxjEB-181" vertex="1">
          <mxGeometry y="270" width="333" height="30" as="geometry" />
        </mxCell>
        <mxCell id="Mkx7goT2RhF-vi3lxjEB-215" style="shape=partialRectangle;overflow=hidden;connectable=0;fillColor=none;top=0;left=0;bottom=0;right=0;" parent="Mkx7goT2RhF-vi3lxjEB-214" vertex="1">
          <mxGeometry width="30" height="30" as="geometry">
            <mxRectangle width="30" height="30" as="alternateBounds" />
          </mxGeometry>
        </mxCell>
        <mxCell id="Mkx7goT2RhF-vi3lxjEB-216" value="SOURCE_ENTITY" style="shape=partialRectangle;overflow=hidden;connectable=0;fillColor=none;top=0;left=0;bottom=0;right=0;align=left;spacingLeft=6;fontStyle=1" parent="Mkx7goT2RhF-vi3lxjEB-214" vertex="1">
          <mxGeometry x="30" width="175.58335367838558" height="30" as="geometry">
            <mxRectangle width="175.58335367838558" height="30" as="alternateBounds" />
          </mxGeometry>
        </mxCell>
        <mxCell id="Mkx7goT2RhF-vi3lxjEB-217" value="VARCHAR" style="shape=partialRectangle;overflow=hidden;connectable=0;fillColor=none;top=0;left=0;bottom=0;right=0;align=left;spacingLeft=6;fontStyle=1" parent="Mkx7goT2RhF-vi3lxjEB-214" vertex="1">
          <mxGeometry x="205.58335367838558" width="127.41664632161442" height="30" as="geometry">
            <mxRectangle width="127.41664632161442" height="30" as="alternateBounds" />
          </mxGeometry>
        </mxCell>
        <mxCell id="Mkx7goT2RhF-vi3lxjEB-247" value="DIM_PAYMENTS" style="shape=table;startSize=30;container=1;collapsible=1;childLayout=tableLayout;fixedRows=1;rowLines=0;fontStyle=1;align=center;resizeLast=1;fontSize=15;" parent="1" vertex="1">
          <mxGeometry x="93" y="221" width="374" height="240" as="geometry" />
        </mxCell>
        <mxCell id="Mkx7goT2RhF-vi3lxjEB-248" value="" style="shape=partialRectangle;collapsible=0;dropTarget=0;pointerEvents=0;fillColor=none;points=[[0,0.5],[1,0.5]];portConstraint=eastwest;top=0;left=0;right=0;bottom=1;" parent="Mkx7goT2RhF-vi3lxjEB-247" vertex="1">
          <mxGeometry y="30" width="374" height="30" as="geometry" />
        </mxCell>
        <mxCell id="Mkx7goT2RhF-vi3lxjEB-249" value="PK" style="shape=partialRectangle;overflow=hidden;connectable=0;fillColor=none;top=0;left=0;bottom=0;right=0;fontStyle=1;" parent="Mkx7goT2RhF-vi3lxjEB-248" vertex="1">
          <mxGeometry width="30" height="30" as="geometry">
            <mxRectangle width="30" height="30" as="alternateBounds" />
          </mxGeometry>
        </mxCell>
        <mxCell id="Mkx7goT2RhF-vi3lxjEB-250" value="PAYMENT_SURR_ID" style="shape=partialRectangle;overflow=hidden;connectable=0;fillColor=none;top=0;left=0;bottom=0;right=0;align=left;spacingLeft=6;fontStyle=5;" parent="Mkx7goT2RhF-vi3lxjEB-248" vertex="1">
          <mxGeometry x="30" width="220" height="30" as="geometry">
            <mxRectangle width="220" height="30" as="alternateBounds" />
          </mxGeometry>
        </mxCell>
        <mxCell id="Mkx7goT2RhF-vi3lxjEB-251" value="BIGINT NOT NULL" style="shape=partialRectangle;overflow=hidden;connectable=0;fillColor=none;top=0;left=0;bottom=0;right=0;align=left;spacingLeft=6;fontStyle=5;" parent="Mkx7goT2RhF-vi3lxjEB-248" vertex="1">
          <mxGeometry x="250" width="124" height="30" as="geometry">
            <mxRectangle width="124" height="30" as="alternateBounds" />
          </mxGeometry>
        </mxCell>
        <mxCell id="Mkx7goT2RhF-vi3lxjEB-252" value="" style="shape=partialRectangle;collapsible=0;dropTarget=0;pointerEvents=0;fillColor=none;points=[[0,0.5],[1,0.5]];portConstraint=eastwest;top=0;left=0;right=0;bottom=0;" parent="Mkx7goT2RhF-vi3lxjEB-247" vertex="1">
          <mxGeometry y="60" width="374" height="30" as="geometry" />
        </mxCell>
        <mxCell id="Mkx7goT2RhF-vi3lxjEB-253" value="" style="shape=partialRectangle;overflow=hidden;connectable=0;fillColor=none;top=0;left=0;bottom=0;right=0;" parent="Mkx7goT2RhF-vi3lxjEB-252" vertex="1">
          <mxGeometry width="30" height="30" as="geometry">
            <mxRectangle width="30" height="30" as="alternateBounds" />
          </mxGeometry>
        </mxCell>
        <mxCell id="Mkx7goT2RhF-vi3lxjEB-254" value="PAYMENT_METHOD" style="shape=partialRectangle;overflow=hidden;connectable=0;fillColor=none;top=0;left=0;bottom=0;right=0;align=left;spacingLeft=6;fontStyle=1" parent="Mkx7goT2RhF-vi3lxjEB-252" vertex="1">
          <mxGeometry x="30" width="220" height="30" as="geometry">
            <mxRectangle width="220" height="30" as="alternateBounds" />
          </mxGeometry>
        </mxCell>
        <mxCell id="Mkx7goT2RhF-vi3lxjEB-255" value="VARCHAR(30)" style="shape=partialRectangle;overflow=hidden;connectable=0;fillColor=none;top=0;left=0;bottom=0;right=0;align=left;spacingLeft=6;fontStyle=1" parent="Mkx7goT2RhF-vi3lxjEB-252" vertex="1">
          <mxGeometry x="250" width="124" height="30" as="geometry">
            <mxRectangle width="124" height="30" as="alternateBounds" />
          </mxGeometry>
        </mxCell>
        <mxCell id="Mkx7goT2RhF-vi3lxjEB-256" style="shape=partialRectangle;collapsible=0;dropTarget=0;pointerEvents=0;fillColor=none;points=[[0,0.5],[1,0.5]];portConstraint=eastwest;top=0;left=0;right=0;bottom=0;" parent="Mkx7goT2RhF-vi3lxjEB-247" vertex="1">
          <mxGeometry y="90" width="374" height="30" as="geometry" />
        </mxCell>
        <mxCell id="Mkx7goT2RhF-vi3lxjEB-257" style="shape=partialRectangle;overflow=hidden;connectable=0;fillColor=none;top=0;left=0;bottom=0;right=0;" parent="Mkx7goT2RhF-vi3lxjEB-256" vertex="1">
          <mxGeometry width="30" height="30" as="geometry">
            <mxRectangle width="30" height="30" as="alternateBounds" />
          </mxGeometry>
        </mxCell>
        <mxCell id="Mkx7goT2RhF-vi3lxjEB-258" value="TA_INSERT_DT" style="shape=partialRectangle;overflow=hidden;connectable=0;fillColor=none;top=0;left=0;bottom=0;right=0;align=left;spacingLeft=6;fontStyle=1" parent="Mkx7goT2RhF-vi3lxjEB-256" vertex="1">
          <mxGeometry x="30" width="220" height="30" as="geometry">
            <mxRectangle width="220" height="30" as="alternateBounds" />
          </mxGeometry>
        </mxCell>
        <mxCell id="Mkx7goT2RhF-vi3lxjEB-259" value="DATE" style="shape=partialRectangle;overflow=hidden;connectable=0;fillColor=none;top=0;left=0;bottom=0;right=0;align=left;spacingLeft=6;fontStyle=1" parent="Mkx7goT2RhF-vi3lxjEB-256" vertex="1">
          <mxGeometry x="250" width="124" height="30" as="geometry">
            <mxRectangle width="124" height="30" as="alternateBounds" />
          </mxGeometry>
        </mxCell>
        <mxCell id="Mkx7goT2RhF-vi3lxjEB-260" style="shape=partialRectangle;collapsible=0;dropTarget=0;pointerEvents=0;fillColor=none;points=[[0,0.5],[1,0.5]];portConstraint=eastwest;top=0;left=0;right=0;bottom=0;" parent="Mkx7goT2RhF-vi3lxjEB-247" vertex="1">
          <mxGeometry y="120" width="374" height="30" as="geometry" />
        </mxCell>
        <mxCell id="Mkx7goT2RhF-vi3lxjEB-261" style="shape=partialRectangle;overflow=hidden;connectable=0;fillColor=none;top=0;left=0;bottom=0;right=0;" parent="Mkx7goT2RhF-vi3lxjEB-260" vertex="1">
          <mxGeometry width="30" height="30" as="geometry">
            <mxRectangle width="30" height="30" as="alternateBounds" />
          </mxGeometry>
        </mxCell>
        <mxCell id="Mkx7goT2RhF-vi3lxjEB-262" value="TA_UPDATE_DT" style="shape=partialRectangle;overflow=hidden;connectable=0;fillColor=none;top=0;left=0;bottom=0;right=0;align=left;spacingLeft=6;fontStyle=1" parent="Mkx7goT2RhF-vi3lxjEB-260" vertex="1">
          <mxGeometry x="30" width="220" height="30" as="geometry">
            <mxRectangle width="220" height="30" as="alternateBounds" />
          </mxGeometry>
        </mxCell>
        <mxCell id="Mkx7goT2RhF-vi3lxjEB-263" value="DATE" style="shape=partialRectangle;overflow=hidden;connectable=0;fillColor=none;top=0;left=0;bottom=0;right=0;align=left;spacingLeft=6;fontStyle=1" parent="Mkx7goT2RhF-vi3lxjEB-260" vertex="1">
          <mxGeometry x="250" width="124" height="30" as="geometry">
            <mxRectangle width="124" height="30" as="alternateBounds" />
          </mxGeometry>
        </mxCell>
        <mxCell id="Mkx7goT2RhF-vi3lxjEB-264" style="shape=partialRectangle;collapsible=0;dropTarget=0;pointerEvents=0;fillColor=none;points=[[0,0.5],[1,0.5]];portConstraint=eastwest;top=0;left=0;right=0;bottom=0;" parent="Mkx7goT2RhF-vi3lxjEB-247" vertex="1">
          <mxGeometry y="150" width="374" height="30" as="geometry" />
        </mxCell>
        <mxCell id="Mkx7goT2RhF-vi3lxjEB-265" style="shape=partialRectangle;overflow=hidden;connectable=0;fillColor=none;top=0;left=0;bottom=0;right=0;" parent="Mkx7goT2RhF-vi3lxjEB-264" vertex="1">
          <mxGeometry width="30" height="30" as="geometry">
            <mxRectangle width="30" height="30" as="alternateBounds" />
          </mxGeometry>
        </mxCell>
        <mxCell id="Mkx7goT2RhF-vi3lxjEB-266" value="PAYMENT_SRC_ID" style="shape=partialRectangle;overflow=hidden;connectable=0;fillColor=none;top=0;left=0;bottom=0;right=0;align=left;spacingLeft=6;fontStyle=1" parent="Mkx7goT2RhF-vi3lxjEB-264" vertex="1">
          <mxGeometry x="30" width="220" height="30" as="geometry">
            <mxRectangle width="220" height="30" as="alternateBounds" />
          </mxGeometry>
        </mxCell>
        <mxCell id="Mkx7goT2RhF-vi3lxjEB-267" value="VARCHAR" style="shape=partialRectangle;overflow=hidden;connectable=0;fillColor=none;top=0;left=0;bottom=0;right=0;align=left;spacingLeft=6;fontStyle=1" parent="Mkx7goT2RhF-vi3lxjEB-264" vertex="1">
          <mxGeometry x="250" width="124" height="30" as="geometry">
            <mxRectangle width="124" height="30" as="alternateBounds" />
          </mxGeometry>
        </mxCell>
        <mxCell id="Mkx7goT2RhF-vi3lxjEB-268" style="shape=partialRectangle;collapsible=0;dropTarget=0;pointerEvents=0;fillColor=none;points=[[0,0.5],[1,0.5]];portConstraint=eastwest;top=0;left=0;right=0;bottom=0;" parent="Mkx7goT2RhF-vi3lxjEB-247" vertex="1">
          <mxGeometry y="180" width="374" height="30" as="geometry" />
        </mxCell>
        <mxCell id="Mkx7goT2RhF-vi3lxjEB-269" style="shape=partialRectangle;overflow=hidden;connectable=0;fillColor=none;top=0;left=0;bottom=0;right=0;" parent="Mkx7goT2RhF-vi3lxjEB-268" vertex="1">
          <mxGeometry width="30" height="30" as="geometry">
            <mxRectangle width="30" height="30" as="alternateBounds" />
          </mxGeometry>
        </mxCell>
        <mxCell id="Mkx7goT2RhF-vi3lxjEB-270" value="SOURCE_SYSTEM" style="shape=partialRectangle;overflow=hidden;connectable=0;fillColor=none;top=0;left=0;bottom=0;right=0;align=left;spacingLeft=6;fontStyle=1" parent="Mkx7goT2RhF-vi3lxjEB-268" vertex="1">
          <mxGeometry x="30" width="220" height="30" as="geometry">
            <mxRectangle width="220" height="30" as="alternateBounds" />
          </mxGeometry>
        </mxCell>
        <mxCell id="Mkx7goT2RhF-vi3lxjEB-271" value="VARCHAR" style="shape=partialRectangle;overflow=hidden;connectable=0;fillColor=none;top=0;left=0;bottom=0;right=0;align=left;spacingLeft=6;fontStyle=1" parent="Mkx7goT2RhF-vi3lxjEB-268" vertex="1">
          <mxGeometry x="250" width="124" height="30" as="geometry">
            <mxRectangle width="124" height="30" as="alternateBounds" />
          </mxGeometry>
        </mxCell>
        <mxCell id="Mkx7goT2RhF-vi3lxjEB-272" style="shape=partialRectangle;collapsible=0;dropTarget=0;pointerEvents=0;fillColor=none;points=[[0,0.5],[1,0.5]];portConstraint=eastwest;top=0;left=0;right=0;bottom=0;" parent="Mkx7goT2RhF-vi3lxjEB-247" vertex="1">
          <mxGeometry y="210" width="374" height="30" as="geometry" />
        </mxCell>
        <mxCell id="Mkx7goT2RhF-vi3lxjEB-273" style="shape=partialRectangle;overflow=hidden;connectable=0;fillColor=none;top=0;left=0;bottom=0;right=0;" parent="Mkx7goT2RhF-vi3lxjEB-272" vertex="1">
          <mxGeometry width="30" height="30" as="geometry">
            <mxRectangle width="30" height="30" as="alternateBounds" />
          </mxGeometry>
        </mxCell>
        <mxCell id="Mkx7goT2RhF-vi3lxjEB-274" value="SOURCE_ENTITY" style="shape=partialRectangle;overflow=hidden;connectable=0;fillColor=none;top=0;left=0;bottom=0;right=0;align=left;spacingLeft=6;fontStyle=1" parent="Mkx7goT2RhF-vi3lxjEB-272" vertex="1">
          <mxGeometry x="30" width="220" height="30" as="geometry">
            <mxRectangle width="220" height="30" as="alternateBounds" />
          </mxGeometry>
        </mxCell>
        <mxCell id="Mkx7goT2RhF-vi3lxjEB-275" value="VARCHAR" style="shape=partialRectangle;overflow=hidden;connectable=0;fillColor=none;top=0;left=0;bottom=0;right=0;align=left;spacingLeft=6;fontStyle=1" parent="Mkx7goT2RhF-vi3lxjEB-272" vertex="1">
          <mxGeometry x="250" width="124" height="30" as="geometry">
            <mxRectangle width="124" height="30" as="alternateBounds" />
          </mxGeometry>
        </mxCell>
        <mxCell id="Mkx7goT2RhF-vi3lxjEB-276" value="DIM_EMPLOYEES" style="shape=table;startSize=30;container=1;collapsible=1;childLayout=tableLayout;fixedRows=1;rowLines=0;fontStyle=1;align=center;resizeLast=1;fontSize=15;" parent="1" vertex="1">
          <mxGeometry x="872" y="738" width="319" height="360" as="geometry" />
        </mxCell>
        <mxCell id="Mkx7goT2RhF-vi3lxjEB-277" value="" style="shape=partialRectangle;collapsible=0;dropTarget=0;pointerEvents=0;fillColor=none;points=[[0,0.5],[1,0.5]];portConstraint=eastwest;top=0;left=0;right=0;bottom=1;" parent="Mkx7goT2RhF-vi3lxjEB-276" vertex="1">
          <mxGeometry y="30" width="319" height="30" as="geometry" />
        </mxCell>
        <mxCell id="Mkx7goT2RhF-vi3lxjEB-278" value="PK" style="shape=partialRectangle;overflow=hidden;connectable=0;fillColor=none;top=0;left=0;bottom=0;right=0;fontStyle=1;" parent="Mkx7goT2RhF-vi3lxjEB-277" vertex="1">
          <mxGeometry width="30" height="30" as="geometry">
            <mxRectangle width="30" height="30" as="alternateBounds" />
          </mxGeometry>
        </mxCell>
        <mxCell id="Mkx7goT2RhF-vi3lxjEB-279" value="EMPLOYEE_SURR_ID" style="shape=partialRectangle;overflow=hidden;connectable=0;fillColor=none;top=0;left=0;bottom=0;right=0;align=left;spacingLeft=6;fontStyle=5;" parent="Mkx7goT2RhF-vi3lxjEB-277" vertex="1">
          <mxGeometry x="30" width="167.5834147135422" height="30" as="geometry">
            <mxRectangle width="167.5834147135422" height="30" as="alternateBounds" />
          </mxGeometry>
        </mxCell>
        <mxCell id="Mkx7goT2RhF-vi3lxjEB-280" value="BIGINT NOT NULL" style="shape=partialRectangle;overflow=hidden;connectable=0;fillColor=none;top=0;left=0;bottom=0;right=0;align=left;spacingLeft=6;fontStyle=5;" parent="Mkx7goT2RhF-vi3lxjEB-277" vertex="1">
          <mxGeometry x="197.5834147135422" width="121.4165852864578" height="30" as="geometry">
            <mxRectangle width="121.4165852864578" height="30" as="alternateBounds" />
          </mxGeometry>
        </mxCell>
        <mxCell id="Mkx7goT2RhF-vi3lxjEB-281" value="" style="shape=partialRectangle;collapsible=0;dropTarget=0;pointerEvents=0;fillColor=none;points=[[0,0.5],[1,0.5]];portConstraint=eastwest;top=0;left=0;right=0;bottom=0;" parent="Mkx7goT2RhF-vi3lxjEB-276" vertex="1">
          <mxGeometry y="60" width="319" height="30" as="geometry" />
        </mxCell>
        <mxCell id="Mkx7goT2RhF-vi3lxjEB-282" value="" style="shape=partialRectangle;overflow=hidden;connectable=0;fillColor=none;top=0;left=0;bottom=0;right=0;" parent="Mkx7goT2RhF-vi3lxjEB-281" vertex="1">
          <mxGeometry width="30" height="30" as="geometry">
            <mxRectangle width="30" height="30" as="alternateBounds" />
          </mxGeometry>
        </mxCell>
        <mxCell id="Mkx7goT2RhF-vi3lxjEB-283" value="EMPLOYEE_FIRST_NAME" style="shape=partialRectangle;overflow=hidden;connectable=0;fillColor=none;top=0;left=0;bottom=0;right=0;align=left;spacingLeft=6;fontStyle=1" parent="Mkx7goT2RhF-vi3lxjEB-281" vertex="1">
          <mxGeometry x="30" width="167.5834147135422" height="30" as="geometry">
            <mxRectangle width="167.5834147135422" height="30" as="alternateBounds" />
          </mxGeometry>
        </mxCell>
        <mxCell id="Mkx7goT2RhF-vi3lxjEB-284" value="VARCHAR(100)" style="shape=partialRectangle;overflow=hidden;connectable=0;fillColor=none;top=0;left=0;bottom=0;right=0;align=left;spacingLeft=6;fontStyle=1" parent="Mkx7goT2RhF-vi3lxjEB-281" vertex="1">
          <mxGeometry x="197.5834147135422" width="121.4165852864578" height="30" as="geometry">
            <mxRectangle width="121.4165852864578" height="30" as="alternateBounds" />
          </mxGeometry>
        </mxCell>
        <mxCell id="Mkx7goT2RhF-vi3lxjEB-285" value="" style="shape=partialRectangle;collapsible=0;dropTarget=0;pointerEvents=0;fillColor=none;points=[[0,0.5],[1,0.5]];portConstraint=eastwest;top=0;left=0;right=0;bottom=0;" parent="Mkx7goT2RhF-vi3lxjEB-276" vertex="1">
          <mxGeometry y="90" width="319" height="30" as="geometry" />
        </mxCell>
        <mxCell id="Mkx7goT2RhF-vi3lxjEB-286" value="" style="shape=partialRectangle;overflow=hidden;connectable=0;fillColor=none;top=0;left=0;bottom=0;right=0;" parent="Mkx7goT2RhF-vi3lxjEB-285" vertex="1">
          <mxGeometry width="30" height="30" as="geometry">
            <mxRectangle width="30" height="30" as="alternateBounds" />
          </mxGeometry>
        </mxCell>
        <mxCell id="Mkx7goT2RhF-vi3lxjEB-287" value="EMPLOYEE_LAST_NAME" style="shape=partialRectangle;overflow=hidden;connectable=0;fillColor=none;top=0;left=0;bottom=0;right=0;align=left;spacingLeft=6;fontStyle=1" parent="Mkx7goT2RhF-vi3lxjEB-285" vertex="1">
          <mxGeometry x="30" width="167.5834147135422" height="30" as="geometry">
            <mxRectangle width="167.5834147135422" height="30" as="alternateBounds" />
          </mxGeometry>
        </mxCell>
        <mxCell id="Mkx7goT2RhF-vi3lxjEB-288" value="VARCHAR(100)" style="shape=partialRectangle;overflow=hidden;connectable=0;fillColor=none;top=0;left=0;bottom=0;right=0;align=left;spacingLeft=6;fontStyle=1" parent="Mkx7goT2RhF-vi3lxjEB-285" vertex="1">
          <mxGeometry x="197.5834147135422" width="121.4165852864578" height="30" as="geometry">
            <mxRectangle width="121.4165852864578" height="30" as="alternateBounds" />
          </mxGeometry>
        </mxCell>
        <mxCell id="Mkx7goT2RhF-vi3lxjEB-289" style="shape=partialRectangle;collapsible=0;dropTarget=0;pointerEvents=0;fillColor=none;points=[[0,0.5],[1,0.5]];portConstraint=eastwest;top=0;left=0;right=0;bottom=0;" parent="Mkx7goT2RhF-vi3lxjEB-276" vertex="1">
          <mxGeometry y="120" width="319" height="30" as="geometry" />
        </mxCell>
        <mxCell id="Mkx7goT2RhF-vi3lxjEB-290" value="" style="shape=partialRectangle;overflow=hidden;connectable=0;fillColor=none;top=0;left=0;bottom=0;right=0;" parent="Mkx7goT2RhF-vi3lxjEB-289" vertex="1">
          <mxGeometry width="30" height="30" as="geometry">
            <mxRectangle width="30" height="30" as="alternateBounds" />
          </mxGeometry>
        </mxCell>
        <mxCell id="Mkx7goT2RhF-vi3lxjEB-291" value="EMPLOYEE_GENDER" style="shape=partialRectangle;overflow=hidden;connectable=0;fillColor=none;top=0;left=0;bottom=0;right=0;align=left;spacingLeft=6;fontStyle=1" parent="Mkx7goT2RhF-vi3lxjEB-289" vertex="1">
          <mxGeometry x="30" width="167.5834147135422" height="30" as="geometry">
            <mxRectangle width="167.5834147135422" height="30" as="alternateBounds" />
          </mxGeometry>
        </mxCell>
        <mxCell id="Mkx7goT2RhF-vi3lxjEB-292" value="VARCHAR(30)" style="shape=partialRectangle;overflow=hidden;connectable=0;fillColor=none;top=0;left=0;bottom=0;right=0;align=left;spacingLeft=6;fontStyle=1" parent="Mkx7goT2RhF-vi3lxjEB-289" vertex="1">
          <mxGeometry x="197.5834147135422" width="121.4165852864578" height="30" as="geometry">
            <mxRectangle width="121.4165852864578" height="30" as="alternateBounds" />
          </mxGeometry>
        </mxCell>
        <mxCell id="Mkx7goT2RhF-vi3lxjEB-293" style="shape=partialRectangle;collapsible=0;dropTarget=0;pointerEvents=0;fillColor=none;points=[[0,0.5],[1,0.5]];portConstraint=eastwest;top=0;left=0;right=0;bottom=0;" parent="Mkx7goT2RhF-vi3lxjEB-276" vertex="1">
          <mxGeometry y="150" width="319" height="30" as="geometry" />
        </mxCell>
        <mxCell id="Mkx7goT2RhF-vi3lxjEB-294" style="shape=partialRectangle;overflow=hidden;connectable=0;fillColor=none;top=0;left=0;bottom=0;right=0;" parent="Mkx7goT2RhF-vi3lxjEB-293" vertex="1">
          <mxGeometry width="30" height="30" as="geometry">
            <mxRectangle width="30" height="30" as="alternateBounds" />
          </mxGeometry>
        </mxCell>
        <mxCell id="Mkx7goT2RhF-vi3lxjEB-295" value="EMPLOYEE_DOB" style="shape=partialRectangle;overflow=hidden;connectable=0;fillColor=none;top=0;left=0;bottom=0;right=0;align=left;spacingLeft=6;fontStyle=1" parent="Mkx7goT2RhF-vi3lxjEB-293" vertex="1">
          <mxGeometry x="30" width="167.5834147135422" height="30" as="geometry">
            <mxRectangle width="167.5834147135422" height="30" as="alternateBounds" />
          </mxGeometry>
        </mxCell>
        <mxCell id="Mkx7goT2RhF-vi3lxjEB-296" value="DATE" style="shape=partialRectangle;overflow=hidden;connectable=0;fillColor=none;top=0;left=0;bottom=0;right=0;align=left;spacingLeft=6;fontStyle=1" parent="Mkx7goT2RhF-vi3lxjEB-293" vertex="1">
          <mxGeometry x="197.5834147135422" width="121.4165852864578" height="30" as="geometry">
            <mxRectangle width="121.4165852864578" height="30" as="alternateBounds" />
          </mxGeometry>
        </mxCell>
        <mxCell id="Mkx7goT2RhF-vi3lxjEB-297" style="shape=partialRectangle;collapsible=0;dropTarget=0;pointerEvents=0;fillColor=none;points=[[0,0.5],[1,0.5]];portConstraint=eastwest;top=0;left=0;right=0;bottom=0;" parent="Mkx7goT2RhF-vi3lxjEB-276" vertex="1">
          <mxGeometry y="180" width="319" height="30" as="geometry" />
        </mxCell>
        <mxCell id="Mkx7goT2RhF-vi3lxjEB-298" style="shape=partialRectangle;overflow=hidden;connectable=0;fillColor=none;top=0;left=0;bottom=0;right=0;" parent="Mkx7goT2RhF-vi3lxjEB-297" vertex="1">
          <mxGeometry width="30" height="30" as="geometry">
            <mxRectangle width="30" height="30" as="alternateBounds" />
          </mxGeometry>
        </mxCell>
        <mxCell id="Mkx7goT2RhF-vi3lxjEB-299" value="EMPLOYEE_PHONE" style="shape=partialRectangle;overflow=hidden;connectable=0;fillColor=none;top=0;left=0;bottom=0;right=0;align=left;spacingLeft=6;fontStyle=1" parent="Mkx7goT2RhF-vi3lxjEB-297" vertex="1">
          <mxGeometry x="30" width="167.5834147135422" height="30" as="geometry">
            <mxRectangle width="167.5834147135422" height="30" as="alternateBounds" />
          </mxGeometry>
        </mxCell>
        <mxCell id="Mkx7goT2RhF-vi3lxjEB-300" value="VARCHAR(20)" style="shape=partialRectangle;overflow=hidden;connectable=0;fillColor=none;top=0;left=0;bottom=0;right=0;align=left;spacingLeft=6;fontStyle=1" parent="Mkx7goT2RhF-vi3lxjEB-297" vertex="1">
          <mxGeometry x="197.5834147135422" width="121.4165852864578" height="30" as="geometry">
            <mxRectangle width="121.4165852864578" height="30" as="alternateBounds" />
          </mxGeometry>
        </mxCell>
        <mxCell id="Mkx7goT2RhF-vi3lxjEB-301" style="shape=partialRectangle;collapsible=0;dropTarget=0;pointerEvents=0;fillColor=none;points=[[0,0.5],[1,0.5]];portConstraint=eastwest;top=0;left=0;right=0;bottom=0;" parent="Mkx7goT2RhF-vi3lxjEB-276" vertex="1">
          <mxGeometry y="210" width="319" height="30" as="geometry" />
        </mxCell>
        <mxCell id="Mkx7goT2RhF-vi3lxjEB-302" style="shape=partialRectangle;overflow=hidden;connectable=0;fillColor=none;top=0;left=0;bottom=0;right=0;" parent="Mkx7goT2RhF-vi3lxjEB-301" vertex="1">
          <mxGeometry width="30" height="30" as="geometry">
            <mxRectangle width="30" height="30" as="alternateBounds" />
          </mxGeometry>
        </mxCell>
        <mxCell id="Mkx7goT2RhF-vi3lxjEB-303" value="TA_INSERT_DT" style="shape=partialRectangle;overflow=hidden;connectable=0;fillColor=none;top=0;left=0;bottom=0;right=0;align=left;spacingLeft=6;fontStyle=1" parent="Mkx7goT2RhF-vi3lxjEB-301" vertex="1">
          <mxGeometry x="30" width="167.5834147135422" height="30" as="geometry">
            <mxRectangle width="167.5834147135422" height="30" as="alternateBounds" />
          </mxGeometry>
        </mxCell>
        <mxCell id="Mkx7goT2RhF-vi3lxjEB-304" value="DATE" style="shape=partialRectangle;overflow=hidden;connectable=0;fillColor=none;top=0;left=0;bottom=0;right=0;align=left;spacingLeft=6;fontStyle=1" parent="Mkx7goT2RhF-vi3lxjEB-301" vertex="1">
          <mxGeometry x="197.5834147135422" width="121.4165852864578" height="30" as="geometry">
            <mxRectangle width="121.4165852864578" height="30" as="alternateBounds" />
          </mxGeometry>
        </mxCell>
        <mxCell id="Mkx7goT2RhF-vi3lxjEB-305" style="shape=partialRectangle;collapsible=0;dropTarget=0;pointerEvents=0;fillColor=none;points=[[0,0.5],[1,0.5]];portConstraint=eastwest;top=0;left=0;right=0;bottom=0;" parent="Mkx7goT2RhF-vi3lxjEB-276" vertex="1">
          <mxGeometry y="240" width="319" height="30" as="geometry" />
        </mxCell>
        <mxCell id="Mkx7goT2RhF-vi3lxjEB-306" style="shape=partialRectangle;overflow=hidden;connectable=0;fillColor=none;top=0;left=0;bottom=0;right=0;" parent="Mkx7goT2RhF-vi3lxjEB-305" vertex="1">
          <mxGeometry width="30" height="30" as="geometry">
            <mxRectangle width="30" height="30" as="alternateBounds" />
          </mxGeometry>
        </mxCell>
        <mxCell id="Mkx7goT2RhF-vi3lxjEB-307" value="TA_UPDATE_DT" style="shape=partialRectangle;overflow=hidden;connectable=0;fillColor=none;top=0;left=0;bottom=0;right=0;align=left;spacingLeft=6;fontStyle=1" parent="Mkx7goT2RhF-vi3lxjEB-305" vertex="1">
          <mxGeometry x="30" width="167.5834147135422" height="30" as="geometry">
            <mxRectangle width="167.5834147135422" height="30" as="alternateBounds" />
          </mxGeometry>
        </mxCell>
        <mxCell id="Mkx7goT2RhF-vi3lxjEB-308" value="DATE" style="shape=partialRectangle;overflow=hidden;connectable=0;fillColor=none;top=0;left=0;bottom=0;right=0;align=left;spacingLeft=6;fontStyle=1" parent="Mkx7goT2RhF-vi3lxjEB-305" vertex="1">
          <mxGeometry x="197.5834147135422" width="121.4165852864578" height="30" as="geometry">
            <mxRectangle width="121.4165852864578" height="30" as="alternateBounds" />
          </mxGeometry>
        </mxCell>
        <mxCell id="Mkx7goT2RhF-vi3lxjEB-309" style="shape=partialRectangle;collapsible=0;dropTarget=0;pointerEvents=0;fillColor=none;points=[[0,0.5],[1,0.5]];portConstraint=eastwest;top=0;left=0;right=0;bottom=0;" parent="Mkx7goT2RhF-vi3lxjEB-276" vertex="1">
          <mxGeometry y="270" width="319" height="30" as="geometry" />
        </mxCell>
        <mxCell id="Mkx7goT2RhF-vi3lxjEB-310" style="shape=partialRectangle;overflow=hidden;connectable=0;fillColor=none;top=0;left=0;bottom=0;right=0;" parent="Mkx7goT2RhF-vi3lxjEB-309" vertex="1">
          <mxGeometry width="30" height="30" as="geometry">
            <mxRectangle width="30" height="30" as="alternateBounds" />
          </mxGeometry>
        </mxCell>
        <mxCell id="Mkx7goT2RhF-vi3lxjEB-311" value="EMPLOYEE_SRC_ID" style="shape=partialRectangle;overflow=hidden;connectable=0;fillColor=none;top=0;left=0;bottom=0;right=0;align=left;spacingLeft=6;fontStyle=1" parent="Mkx7goT2RhF-vi3lxjEB-309" vertex="1">
          <mxGeometry x="30" width="167.5834147135422" height="30" as="geometry">
            <mxRectangle width="167.5834147135422" height="30" as="alternateBounds" />
          </mxGeometry>
        </mxCell>
        <mxCell id="Mkx7goT2RhF-vi3lxjEB-312" value="VARCHAR" style="shape=partialRectangle;overflow=hidden;connectable=0;fillColor=none;top=0;left=0;bottom=0;right=0;align=left;spacingLeft=6;fontStyle=1" parent="Mkx7goT2RhF-vi3lxjEB-309" vertex="1">
          <mxGeometry x="197.5834147135422" width="121.4165852864578" height="30" as="geometry">
            <mxRectangle width="121.4165852864578" height="30" as="alternateBounds" />
          </mxGeometry>
        </mxCell>
        <mxCell id="Mkx7goT2RhF-vi3lxjEB-313" style="shape=partialRectangle;collapsible=0;dropTarget=0;pointerEvents=0;fillColor=none;points=[[0,0.5],[1,0.5]];portConstraint=eastwest;top=0;left=0;right=0;bottom=0;" parent="Mkx7goT2RhF-vi3lxjEB-276" vertex="1">
          <mxGeometry y="300" width="319" height="30" as="geometry" />
        </mxCell>
        <mxCell id="Mkx7goT2RhF-vi3lxjEB-314" style="shape=partialRectangle;overflow=hidden;connectable=0;fillColor=none;top=0;left=0;bottom=0;right=0;" parent="Mkx7goT2RhF-vi3lxjEB-313" vertex="1">
          <mxGeometry width="30" height="30" as="geometry">
            <mxRectangle width="30" height="30" as="alternateBounds" />
          </mxGeometry>
        </mxCell>
        <mxCell id="Mkx7goT2RhF-vi3lxjEB-315" value="SOURCE_SYSTEM" style="shape=partialRectangle;overflow=hidden;connectable=0;fillColor=none;top=0;left=0;bottom=0;right=0;align=left;spacingLeft=6;fontStyle=1" parent="Mkx7goT2RhF-vi3lxjEB-313" vertex="1">
          <mxGeometry x="30" width="167.5834147135422" height="30" as="geometry">
            <mxRectangle width="167.5834147135422" height="30" as="alternateBounds" />
          </mxGeometry>
        </mxCell>
        <mxCell id="Mkx7goT2RhF-vi3lxjEB-316" value="VARCHAR" style="shape=partialRectangle;overflow=hidden;connectable=0;fillColor=none;top=0;left=0;bottom=0;right=0;align=left;spacingLeft=6;fontStyle=1" parent="Mkx7goT2RhF-vi3lxjEB-313" vertex="1">
          <mxGeometry x="197.5834147135422" width="121.4165852864578" height="30" as="geometry">
            <mxRectangle width="121.4165852864578" height="30" as="alternateBounds" />
          </mxGeometry>
        </mxCell>
        <mxCell id="Mkx7goT2RhF-vi3lxjEB-317" style="shape=partialRectangle;collapsible=0;dropTarget=0;pointerEvents=0;fillColor=none;points=[[0,0.5],[1,0.5]];portConstraint=eastwest;top=0;left=0;right=0;bottom=0;" parent="Mkx7goT2RhF-vi3lxjEB-276" vertex="1">
          <mxGeometry y="330" width="319" height="30" as="geometry" />
        </mxCell>
        <mxCell id="Mkx7goT2RhF-vi3lxjEB-318" style="shape=partialRectangle;overflow=hidden;connectable=0;fillColor=none;top=0;left=0;bottom=0;right=0;" parent="Mkx7goT2RhF-vi3lxjEB-317" vertex="1">
          <mxGeometry width="30" height="30" as="geometry">
            <mxRectangle width="30" height="30" as="alternateBounds" />
          </mxGeometry>
        </mxCell>
        <mxCell id="Mkx7goT2RhF-vi3lxjEB-319" value="SOURCE_ENTITY" style="shape=partialRectangle;overflow=hidden;connectable=0;fillColor=none;top=0;left=0;bottom=0;right=0;align=left;spacingLeft=6;fontStyle=1" parent="Mkx7goT2RhF-vi3lxjEB-317" vertex="1">
          <mxGeometry x="30" width="167.5834147135422" height="30" as="geometry">
            <mxRectangle width="167.5834147135422" height="30" as="alternateBounds" />
          </mxGeometry>
        </mxCell>
        <mxCell id="Mkx7goT2RhF-vi3lxjEB-320" value="VARCHAR" style="shape=partialRectangle;overflow=hidden;connectable=0;fillColor=none;top=0;left=0;bottom=0;right=0;align=left;spacingLeft=6;fontStyle=1" parent="Mkx7goT2RhF-vi3lxjEB-317" vertex="1">
          <mxGeometry x="197.5834147135422" width="121.4165852864578" height="30" as="geometry">
            <mxRectangle width="121.4165852864578" height="30" as="alternateBounds" />
          </mxGeometry>
        </mxCell>
        <mxCell id="Mkx7goT2RhF-vi3lxjEB-366" value="FCT_SALES_TX" style="shape=table;startSize=30;container=1;collapsible=1;childLayout=tableLayout;fixedRows=1;rowLines=0;fontStyle=1;align=center;resizeLast=1;fontSize=15;" parent="1" vertex="1">
          <mxGeometry x="140" y="466" width="327" height="690" as="geometry" />
        </mxCell>
        <mxCell id="Mkx7goT2RhF-vi3lxjEB-367" value="" style="shape=partialRectangle;collapsible=0;dropTarget=0;pointerEvents=0;fillColor=none;points=[[0,0.5],[1,0.5]];portConstraint=eastwest;top=0;left=0;right=0;bottom=1;" parent="Mkx7goT2RhF-vi3lxjEB-366" vertex="1">
          <mxGeometry y="30" width="327" height="30" as="geometry" />
        </mxCell>
        <mxCell id="Mkx7goT2RhF-vi3lxjEB-368" value="PK" style="shape=partialRectangle;overflow=hidden;connectable=0;fillColor=none;top=0;left=0;bottom=0;right=0;fontStyle=1;" parent="Mkx7goT2RhF-vi3lxjEB-367" vertex="1">
          <mxGeometry width="30" height="30" as="geometry">
            <mxRectangle width="30" height="30" as="alternateBounds" />
          </mxGeometry>
        </mxCell>
        <mxCell id="Mkx7goT2RhF-vi3lxjEB-369" value="SALE_SURR_ID" style="shape=partialRectangle;overflow=hidden;connectable=0;fillColor=none;top=0;left=0;bottom=0;right=0;align=left;spacingLeft=6;fontStyle=5;" parent="Mkx7goT2RhF-vi3lxjEB-367" vertex="1">
          <mxGeometry x="30" width="181.29411764705873" height="30" as="geometry">
            <mxRectangle width="181.29411764705873" height="30" as="alternateBounds" />
          </mxGeometry>
        </mxCell>
        <mxCell id="Mkx7goT2RhF-vi3lxjEB-370" value="BIGINT NOT NULL" style="shape=partialRectangle;overflow=hidden;connectable=0;fillColor=none;top=0;left=0;bottom=0;right=0;align=left;spacingLeft=6;fontStyle=5;" parent="Mkx7goT2RhF-vi3lxjEB-367" vertex="1">
          <mxGeometry x="211.29411764705873" width="115.70588235294127" height="30" as="geometry">
            <mxRectangle width="115.70588235294127" height="30" as="alternateBounds" />
          </mxGeometry>
        </mxCell>
        <mxCell id="Mkx7goT2RhF-vi3lxjEB-371" value="" style="shape=partialRectangle;collapsible=0;dropTarget=0;pointerEvents=0;fillColor=none;points=[[0,0.5],[1,0.5]];portConstraint=eastwest;top=0;left=0;right=0;bottom=0;" parent="Mkx7goT2RhF-vi3lxjEB-366" vertex="1">
          <mxGeometry y="60" width="327" height="30" as="geometry" />
        </mxCell>
        <mxCell id="Mkx7goT2RhF-vi3lxjEB-372" value="FK1" style="shape=partialRectangle;overflow=hidden;connectable=0;fillColor=none;top=0;left=0;bottom=0;right=0;fontStyle=1" parent="Mkx7goT2RhF-vi3lxjEB-371" vertex="1">
          <mxGeometry width="30" height="30" as="geometry">
            <mxRectangle width="30" height="30" as="alternateBounds" />
          </mxGeometry>
        </mxCell>
        <mxCell id="Mkx7goT2RhF-vi3lxjEB-373" value="SALE_FILM_SURR_ID" style="shape=partialRectangle;overflow=hidden;connectable=0;fillColor=none;top=0;left=0;bottom=0;right=0;align=left;spacingLeft=6;fontStyle=1" parent="Mkx7goT2RhF-vi3lxjEB-371" vertex="1">
          <mxGeometry x="30" width="181.29411764705873" height="30" as="geometry">
            <mxRectangle width="181.29411764705873" height="30" as="alternateBounds" />
          </mxGeometry>
        </mxCell>
        <mxCell id="Mkx7goT2RhF-vi3lxjEB-374" value="VARCHAR(100)" style="shape=partialRectangle;overflow=hidden;connectable=0;fillColor=none;top=0;left=0;bottom=0;right=0;align=left;spacingLeft=6;fontStyle=1" parent="Mkx7goT2RhF-vi3lxjEB-371" vertex="1">
          <mxGeometry x="211.29411764705873" width="115.70588235294127" height="30" as="geometry">
            <mxRectangle width="115.70588235294127" height="30" as="alternateBounds" />
          </mxGeometry>
        </mxCell>
        <mxCell id="1iPeIdBlMXEdmm0ZqGiX-1" style="shape=partialRectangle;collapsible=0;dropTarget=0;pointerEvents=0;fillColor=none;points=[[0,0.5],[1,0.5]];portConstraint=eastwest;top=0;left=0;right=0;bottom=0;" parent="Mkx7goT2RhF-vi3lxjEB-366" vertex="1">
          <mxGeometry y="90" width="327" height="30" as="geometry" />
        </mxCell>
        <mxCell id="1iPeIdBlMXEdmm0ZqGiX-2" value="FK1" style="shape=partialRectangle;overflow=hidden;connectable=0;fillColor=none;top=0;left=0;bottom=0;right=0;fontStyle=1" parent="1iPeIdBlMXEdmm0ZqGiX-1" vertex="1">
          <mxGeometry width="30" height="30" as="geometry">
            <mxRectangle width="30" height="30" as="alternateBounds" />
          </mxGeometry>
        </mxCell>
        <mxCell id="1iPeIdBlMXEdmm0ZqGiX-3" value="SALE_FILM_START_DT" style="shape=partialRectangle;overflow=hidden;connectable=0;fillColor=none;top=0;left=0;bottom=0;right=0;align=left;spacingLeft=6;fontStyle=1" parent="1iPeIdBlMXEdmm0ZqGiX-1" vertex="1">
          <mxGeometry x="30" width="181.29411764705873" height="30" as="geometry">
            <mxRectangle width="181.29411764705873" height="30" as="alternateBounds" />
          </mxGeometry>
        </mxCell>
        <mxCell id="1iPeIdBlMXEdmm0ZqGiX-4" value="DATE" style="shape=partialRectangle;overflow=hidden;connectable=0;fillColor=none;top=0;left=0;bottom=0;right=0;align=left;spacingLeft=6;fontStyle=1" parent="1iPeIdBlMXEdmm0ZqGiX-1" vertex="1">
          <mxGeometry x="211.29411764705873" width="115.70588235294127" height="30" as="geometry">
            <mxRectangle width="115.70588235294127" height="30" as="alternateBounds" />
          </mxGeometry>
        </mxCell>
        <mxCell id="Mkx7goT2RhF-vi3lxjEB-375" value="" style="shape=partialRectangle;collapsible=0;dropTarget=0;pointerEvents=0;fillColor=none;points=[[0,0.5],[1,0.5]];portConstraint=eastwest;top=0;left=0;right=0;bottom=0;" parent="Mkx7goT2RhF-vi3lxjEB-366" vertex="1">
          <mxGeometry y="120" width="327" height="30" as="geometry" />
        </mxCell>
        <mxCell id="Mkx7goT2RhF-vi3lxjEB-376" value="FK2" style="shape=partialRectangle;overflow=hidden;connectable=0;fillColor=none;top=0;left=0;bottom=0;right=0;fontStyle=1" parent="Mkx7goT2RhF-vi3lxjEB-375" vertex="1">
          <mxGeometry width="30" height="30" as="geometry">
            <mxRectangle width="30" height="30" as="alternateBounds" />
          </mxGeometry>
        </mxCell>
        <mxCell id="Mkx7goT2RhF-vi3lxjEB-377" value="SALE_CINEMA_SURR_ID" style="shape=partialRectangle;overflow=hidden;connectable=0;fillColor=none;top=0;left=0;bottom=0;right=0;align=left;spacingLeft=6;fontStyle=1" parent="Mkx7goT2RhF-vi3lxjEB-375" vertex="1">
          <mxGeometry x="30" width="181.29411764705873" height="30" as="geometry">
            <mxRectangle width="181.29411764705873" height="30" as="alternateBounds" />
          </mxGeometry>
        </mxCell>
        <mxCell id="Mkx7goT2RhF-vi3lxjEB-378" value="INT" style="shape=partialRectangle;overflow=hidden;connectable=0;fillColor=none;top=0;left=0;bottom=0;right=0;align=left;spacingLeft=6;fontStyle=1" parent="Mkx7goT2RhF-vi3lxjEB-375" vertex="1">
          <mxGeometry x="211.29411764705873" width="115.70588235294127" height="30" as="geometry">
            <mxRectangle width="115.70588235294127" height="30" as="alternateBounds" />
          </mxGeometry>
        </mxCell>
        <mxCell id="Mkx7goT2RhF-vi3lxjEB-379" style="shape=partialRectangle;collapsible=0;dropTarget=0;pointerEvents=0;fillColor=none;points=[[0,0.5],[1,0.5]];portConstraint=eastwest;top=0;left=0;right=0;bottom=0;" parent="Mkx7goT2RhF-vi3lxjEB-366" vertex="1">
          <mxGeometry y="150" width="327" height="30" as="geometry" />
        </mxCell>
        <mxCell id="Mkx7goT2RhF-vi3lxjEB-380" value="FK3" style="shape=partialRectangle;overflow=hidden;connectable=0;fillColor=none;top=0;left=0;bottom=0;right=0;fontStyle=1" parent="Mkx7goT2RhF-vi3lxjEB-379" vertex="1">
          <mxGeometry width="30" height="30" as="geometry">
            <mxRectangle width="30" height="30" as="alternateBounds" />
          </mxGeometry>
        </mxCell>
        <mxCell id="Mkx7goT2RhF-vi3lxjEB-381" value="SALE_PAYMENT_SURR_ID" style="shape=partialRectangle;overflow=hidden;connectable=0;fillColor=none;top=0;left=0;bottom=0;right=0;align=left;spacingLeft=6;fontStyle=1" parent="Mkx7goT2RhF-vi3lxjEB-379" vertex="1">
          <mxGeometry x="30" width="181.29411764705873" height="30" as="geometry">
            <mxRectangle width="181.29411764705873" height="30" as="alternateBounds" />
          </mxGeometry>
        </mxCell>
        <mxCell id="Mkx7goT2RhF-vi3lxjEB-382" value="INT" style="shape=partialRectangle;overflow=hidden;connectable=0;fillColor=none;top=0;left=0;bottom=0;right=0;align=left;spacingLeft=6;fontStyle=1" parent="Mkx7goT2RhF-vi3lxjEB-379" vertex="1">
          <mxGeometry x="211.29411764705873" width="115.70588235294127" height="30" as="geometry">
            <mxRectangle width="115.70588235294127" height="30" as="alternateBounds" />
          </mxGeometry>
        </mxCell>
        <mxCell id="Mkx7goT2RhF-vi3lxjEB-498" style="shape=partialRectangle;collapsible=0;dropTarget=0;pointerEvents=0;fillColor=none;points=[[0,0.5],[1,0.5]];portConstraint=eastwest;top=0;left=0;right=0;bottom=0;" parent="Mkx7goT2RhF-vi3lxjEB-366" vertex="1">
          <mxGeometry y="180" width="327" height="30" as="geometry" />
        </mxCell>
        <mxCell id="Mkx7goT2RhF-vi3lxjEB-499" value="FK4" style="shape=partialRectangle;overflow=hidden;connectable=0;fillColor=none;top=0;left=0;bottom=0;right=0;fontStyle=1" parent="Mkx7goT2RhF-vi3lxjEB-498" vertex="1">
          <mxGeometry width="30" height="30" as="geometry">
            <mxRectangle width="30" height="30" as="alternateBounds" />
          </mxGeometry>
        </mxCell>
        <mxCell id="Mkx7goT2RhF-vi3lxjEB-500" value="SALE_SCREEN_SURR_ID" style="shape=partialRectangle;overflow=hidden;connectable=0;fillColor=none;top=0;left=0;bottom=0;right=0;align=left;spacingLeft=6;fontStyle=1" parent="Mkx7goT2RhF-vi3lxjEB-498" vertex="1">
          <mxGeometry x="30" width="181.29411764705873" height="30" as="geometry">
            <mxRectangle width="181.29411764705873" height="30" as="alternateBounds" />
          </mxGeometry>
        </mxCell>
        <mxCell id="Mkx7goT2RhF-vi3lxjEB-501" value="INT" style="shape=partialRectangle;overflow=hidden;connectable=0;fillColor=none;top=0;left=0;bottom=0;right=0;align=left;spacingLeft=6;fontStyle=1" parent="Mkx7goT2RhF-vi3lxjEB-498" vertex="1">
          <mxGeometry x="211.29411764705873" width="115.70588235294127" height="30" as="geometry">
            <mxRectangle width="115.70588235294127" height="30" as="alternateBounds" />
          </mxGeometry>
        </mxCell>
        <mxCell id="Mkx7goT2RhF-vi3lxjEB-387" style="shape=partialRectangle;collapsible=0;dropTarget=0;pointerEvents=0;fillColor=none;points=[[0,0.5],[1,0.5]];portConstraint=eastwest;top=0;left=0;right=0;bottom=0;" parent="Mkx7goT2RhF-vi3lxjEB-366" vertex="1">
          <mxGeometry y="210" width="327" height="30" as="geometry" />
        </mxCell>
        <mxCell id="Mkx7goT2RhF-vi3lxjEB-388" value="FK5" style="shape=partialRectangle;overflow=hidden;connectable=0;fillColor=none;top=0;left=0;bottom=0;right=0;fontStyle=1" parent="Mkx7goT2RhF-vi3lxjEB-387" vertex="1">
          <mxGeometry width="30" height="30" as="geometry">
            <mxRectangle width="30" height="30" as="alternateBounds" />
          </mxGeometry>
        </mxCell>
        <mxCell id="Mkx7goT2RhF-vi3lxjEB-389" value="SALE_DATE_SURR_ID" style="shape=partialRectangle;overflow=hidden;connectable=0;fillColor=none;top=0;left=0;bottom=0;right=0;align=left;spacingLeft=6;fontStyle=1" parent="Mkx7goT2RhF-vi3lxjEB-387" vertex="1">
          <mxGeometry x="30" width="181.29411764705873" height="30" as="geometry">
            <mxRectangle width="181.29411764705873" height="30" as="alternateBounds" />
          </mxGeometry>
        </mxCell>
        <mxCell id="Mkx7goT2RhF-vi3lxjEB-390" value="TIMESTAMP" style="shape=partialRectangle;overflow=hidden;connectable=0;fillColor=none;top=0;left=0;bottom=0;right=0;align=left;spacingLeft=6;fontStyle=1" parent="Mkx7goT2RhF-vi3lxjEB-387" vertex="1">
          <mxGeometry x="211.29411764705873" width="115.70588235294127" height="30" as="geometry">
            <mxRectangle width="115.70588235294127" height="30" as="alternateBounds" />
          </mxGeometry>
        </mxCell>
        <mxCell id="Mkx7goT2RhF-vi3lxjEB-391" style="shape=partialRectangle;collapsible=0;dropTarget=0;pointerEvents=0;fillColor=none;points=[[0,0.5],[1,0.5]];portConstraint=eastwest;top=0;left=0;right=0;bottom=0;" parent="Mkx7goT2RhF-vi3lxjEB-366" vertex="1">
          <mxGeometry y="240" width="327" height="30" as="geometry" />
        </mxCell>
        <mxCell id="Mkx7goT2RhF-vi3lxjEB-392" value="FK6" style="shape=partialRectangle;overflow=hidden;connectable=0;fillColor=none;top=0;left=0;bottom=0;right=0;fontStyle=1" parent="Mkx7goT2RhF-vi3lxjEB-391" vertex="1">
          <mxGeometry width="30" height="30" as="geometry">
            <mxRectangle width="30" height="30" as="alternateBounds" />
          </mxGeometry>
        </mxCell>
        <mxCell id="Mkx7goT2RhF-vi3lxjEB-393" value="SALE_DISCOUNT_SURR_ID" style="shape=partialRectangle;overflow=hidden;connectable=0;fillColor=none;top=0;left=0;bottom=0;right=0;align=left;spacingLeft=6;fontStyle=1" parent="Mkx7goT2RhF-vi3lxjEB-391" vertex="1">
          <mxGeometry x="30" width="181.29411764705873" height="30" as="geometry">
            <mxRectangle width="181.29411764705873" height="30" as="alternateBounds" />
          </mxGeometry>
        </mxCell>
        <mxCell id="Mkx7goT2RhF-vi3lxjEB-394" value="INT" style="shape=partialRectangle;overflow=hidden;connectable=0;fillColor=none;top=0;left=0;bottom=0;right=0;align=left;spacingLeft=6;fontStyle=1" parent="Mkx7goT2RhF-vi3lxjEB-391" vertex="1">
          <mxGeometry x="211.29411764705873" width="115.70588235294127" height="30" as="geometry">
            <mxRectangle width="115.70588235294127" height="30" as="alternateBounds" />
          </mxGeometry>
        </mxCell>
        <mxCell id="Mkx7goT2RhF-vi3lxjEB-395" style="shape=partialRectangle;collapsible=0;dropTarget=0;pointerEvents=0;fillColor=none;points=[[0,0.5],[1,0.5]];portConstraint=eastwest;top=0;left=0;right=0;bottom=0;" parent="Mkx7goT2RhF-vi3lxjEB-366" vertex="1">
          <mxGeometry y="270" width="327" height="30" as="geometry" />
        </mxCell>
        <mxCell id="Mkx7goT2RhF-vi3lxjEB-396" value="FK7" style="shape=partialRectangle;overflow=hidden;connectable=0;fillColor=none;top=0;left=0;bottom=0;right=0;fontStyle=1" parent="Mkx7goT2RhF-vi3lxjEB-395" vertex="1">
          <mxGeometry width="30" height="30" as="geometry">
            <mxRectangle width="30" height="30" as="alternateBounds" />
          </mxGeometry>
        </mxCell>
        <mxCell id="Mkx7goT2RhF-vi3lxjEB-397" value="SALE_EMPLOYEE_SURR_ID" style="shape=partialRectangle;overflow=hidden;connectable=0;fillColor=none;top=0;left=0;bottom=0;right=0;align=left;spacingLeft=6;fontStyle=1" parent="Mkx7goT2RhF-vi3lxjEB-395" vertex="1">
          <mxGeometry x="30" width="181.29411764705873" height="30" as="geometry">
            <mxRectangle width="181.29411764705873" height="30" as="alternateBounds" />
          </mxGeometry>
        </mxCell>
        <mxCell id="Mkx7goT2RhF-vi3lxjEB-398" value="INT" style="shape=partialRectangle;overflow=hidden;connectable=0;fillColor=none;top=0;left=0;bottom=0;right=0;align=left;spacingLeft=6;fontStyle=1" parent="Mkx7goT2RhF-vi3lxjEB-395" vertex="1">
          <mxGeometry x="211.29411764705873" width="115.70588235294127" height="30" as="geometry">
            <mxRectangle width="115.70588235294127" height="30" as="alternateBounds" />
          </mxGeometry>
        </mxCell>
        <mxCell id="Mkx7goT2RhF-vi3lxjEB-399" style="shape=partialRectangle;collapsible=0;dropTarget=0;pointerEvents=0;fillColor=none;points=[[0,0.5],[1,0.5]];portConstraint=eastwest;top=0;left=0;right=0;bottom=0;" parent="Mkx7goT2RhF-vi3lxjEB-366" vertex="1">
          <mxGeometry y="300" width="327" height="30" as="geometry" />
        </mxCell>
        <mxCell id="Mkx7goT2RhF-vi3lxjEB-400" value="FK8" style="shape=partialRectangle;overflow=hidden;connectable=0;fillColor=none;top=0;left=0;bottom=0;right=0;fontStyle=1" parent="Mkx7goT2RhF-vi3lxjEB-399" vertex="1">
          <mxGeometry width="30" height="30" as="geometry">
            <mxRectangle width="30" height="30" as="alternateBounds" />
          </mxGeometry>
        </mxCell>
        <mxCell id="Mkx7goT2RhF-vi3lxjEB-401" value="SALE_CUSTOMER_SURR_ID" style="shape=partialRectangle;overflow=hidden;connectable=0;fillColor=none;top=0;left=0;bottom=0;right=0;align=left;spacingLeft=6;fontStyle=1" parent="Mkx7goT2RhF-vi3lxjEB-399" vertex="1">
          <mxGeometry x="30" width="181.29411764705873" height="30" as="geometry">
            <mxRectangle width="181.29411764705873" height="30" as="alternateBounds" />
          </mxGeometry>
        </mxCell>
        <mxCell id="Mkx7goT2RhF-vi3lxjEB-402" value="INT" style="shape=partialRectangle;overflow=hidden;connectable=0;fillColor=none;top=0;left=0;bottom=0;right=0;align=left;spacingLeft=6;fontStyle=1" parent="Mkx7goT2RhF-vi3lxjEB-399" vertex="1">
          <mxGeometry x="211.29411764705873" width="115.70588235294127" height="30" as="geometry">
            <mxRectangle width="115.70588235294127" height="30" as="alternateBounds" />
          </mxGeometry>
        </mxCell>
        <mxCell id="lDrXHmW2p7g8vtJwRlbW-21" style="shape=partialRectangle;collapsible=0;dropTarget=0;pointerEvents=0;fillColor=none;points=[[0,0.5],[1,0.5]];portConstraint=eastwest;top=0;left=0;right=0;bottom=0;" parent="Mkx7goT2RhF-vi3lxjEB-366" vertex="1">
          <mxGeometry y="330" width="327" height="30" as="geometry" />
        </mxCell>
        <mxCell id="lDrXHmW2p7g8vtJwRlbW-22" style="shape=partialRectangle;overflow=hidden;connectable=0;fillColor=none;top=0;left=0;bottom=0;right=0;" parent="lDrXHmW2p7g8vtJwRlbW-21" vertex="1">
          <mxGeometry width="30" height="30" as="geometry">
            <mxRectangle width="30" height="30" as="alternateBounds" />
          </mxGeometry>
        </mxCell>
        <mxCell id="lDrXHmW2p7g8vtJwRlbW-23" value="SALE_TICKET_ID" style="shape=partialRectangle;overflow=hidden;connectable=0;fillColor=none;top=0;left=0;bottom=0;right=0;align=left;spacingLeft=6;fontStyle=1" parent="lDrXHmW2p7g8vtJwRlbW-21" vertex="1">
          <mxGeometry x="30" width="181.29411764705873" height="30" as="geometry">
            <mxRectangle width="181.29411764705873" height="30" as="alternateBounds" />
          </mxGeometry>
        </mxCell>
        <mxCell id="lDrXHmW2p7g8vtJwRlbW-24" value="VARCHAR(50)" style="shape=partialRectangle;overflow=hidden;connectable=0;fillColor=none;top=0;left=0;bottom=0;right=0;align=left;spacingLeft=6;fontStyle=1" parent="lDrXHmW2p7g8vtJwRlbW-21" vertex="1">
          <mxGeometry x="211.29411764705873" width="115.70588235294127" height="30" as="geometry">
            <mxRectangle width="115.70588235294127" height="30" as="alternateBounds" />
          </mxGeometry>
        </mxCell>
        <mxCell id="lDrXHmW2p7g8vtJwRlbW-17" style="shape=partialRectangle;collapsible=0;dropTarget=0;pointerEvents=0;fillColor=none;points=[[0,0.5],[1,0.5]];portConstraint=eastwest;top=0;left=0;right=0;bottom=0;" parent="Mkx7goT2RhF-vi3lxjEB-366" vertex="1">
          <mxGeometry y="360" width="327" height="30" as="geometry" />
        </mxCell>
        <mxCell id="lDrXHmW2p7g8vtJwRlbW-18" style="shape=partialRectangle;overflow=hidden;connectable=0;fillColor=none;top=0;left=0;bottom=0;right=0;" parent="lDrXHmW2p7g8vtJwRlbW-17" vertex="1">
          <mxGeometry width="30" height="30" as="geometry">
            <mxRectangle width="30" height="30" as="alternateBounds" />
          </mxGeometry>
        </mxCell>
        <mxCell id="lDrXHmW2p7g8vtJwRlbW-19" value="SALE_TICKET_PRICE" style="shape=partialRectangle;overflow=hidden;connectable=0;fillColor=none;top=0;left=0;bottom=0;right=0;align=left;spacingLeft=6;fontStyle=1" parent="lDrXHmW2p7g8vtJwRlbW-17" vertex="1">
          <mxGeometry x="30" width="181.29411764705873" height="30" as="geometry">
            <mxRectangle width="181.29411764705873" height="30" as="alternateBounds" />
          </mxGeometry>
        </mxCell>
        <mxCell id="lDrXHmW2p7g8vtJwRlbW-20" value="DECIMAL" style="shape=partialRectangle;overflow=hidden;connectable=0;fillColor=none;top=0;left=0;bottom=0;right=0;align=left;spacingLeft=6;fontStyle=1" parent="lDrXHmW2p7g8vtJwRlbW-17" vertex="1">
          <mxGeometry x="211.29411764705873" width="115.70588235294127" height="30" as="geometry">
            <mxRectangle width="115.70588235294127" height="30" as="alternateBounds" />
          </mxGeometry>
        </mxCell>
        <mxCell id="Mkx7goT2RhF-vi3lxjEB-507" style="shape=partialRectangle;collapsible=0;dropTarget=0;pointerEvents=0;fillColor=none;points=[[0,0.5],[1,0.5]];portConstraint=eastwest;top=0;left=0;right=0;bottom=0;" parent="Mkx7goT2RhF-vi3lxjEB-366" vertex="1">
          <mxGeometry y="390" width="327" height="30" as="geometry" />
        </mxCell>
        <mxCell id="Mkx7goT2RhF-vi3lxjEB-508" style="shape=partialRectangle;overflow=hidden;connectable=0;fillColor=none;top=0;left=0;bottom=0;right=0;" parent="Mkx7goT2RhF-vi3lxjEB-507" vertex="1">
          <mxGeometry width="30" height="30" as="geometry">
            <mxRectangle width="30" height="30" as="alternateBounds" />
          </mxGeometry>
        </mxCell>
        <mxCell id="Mkx7goT2RhF-vi3lxjEB-509" value="FILM_START_TIME" style="shape=partialRectangle;overflow=hidden;connectable=0;fillColor=none;top=0;left=0;bottom=0;right=0;align=left;spacingLeft=6;fontStyle=1" parent="Mkx7goT2RhF-vi3lxjEB-507" vertex="1">
          <mxGeometry x="30" width="181.29411764705873" height="30" as="geometry">
            <mxRectangle width="181.29411764705873" height="30" as="alternateBounds" />
          </mxGeometry>
        </mxCell>
        <mxCell id="Mkx7goT2RhF-vi3lxjEB-510" value="VARCHAR(50)" style="shape=partialRectangle;overflow=hidden;connectable=0;fillColor=none;top=0;left=0;bottom=0;right=0;align=left;spacingLeft=6;fontStyle=1" parent="Mkx7goT2RhF-vi3lxjEB-507" vertex="1">
          <mxGeometry x="211.29411764705873" width="115.70588235294127" height="30" as="geometry">
            <mxRectangle width="115.70588235294127" height="30" as="alternateBounds" />
          </mxGeometry>
        </mxCell>
        <mxCell id="Mkx7goT2RhF-vi3lxjEB-503" style="shape=partialRectangle;collapsible=0;dropTarget=0;pointerEvents=0;fillColor=none;points=[[0,0.5],[1,0.5]];portConstraint=eastwest;top=0;left=0;right=0;bottom=0;" parent="Mkx7goT2RhF-vi3lxjEB-366" vertex="1">
          <mxGeometry y="420" width="327" height="30" as="geometry" />
        </mxCell>
        <mxCell id="Mkx7goT2RhF-vi3lxjEB-504" style="shape=partialRectangle;overflow=hidden;connectable=0;fillColor=none;top=0;left=0;bottom=0;right=0;" parent="Mkx7goT2RhF-vi3lxjEB-503" vertex="1">
          <mxGeometry width="30" height="30" as="geometry">
            <mxRectangle width="30" height="30" as="alternateBounds" />
          </mxGeometry>
        </mxCell>
        <mxCell id="Mkx7goT2RhF-vi3lxjEB-505" value="FILM_END_TIME" style="shape=partialRectangle;overflow=hidden;connectable=0;fillColor=none;top=0;left=0;bottom=0;right=0;align=left;spacingLeft=6;fontStyle=1" parent="Mkx7goT2RhF-vi3lxjEB-503" vertex="1">
          <mxGeometry x="30" width="181.29411764705873" height="30" as="geometry">
            <mxRectangle width="181.29411764705873" height="30" as="alternateBounds" />
          </mxGeometry>
        </mxCell>
        <mxCell id="Mkx7goT2RhF-vi3lxjEB-506" value="VARCHAR(50)" style="shape=partialRectangle;overflow=hidden;connectable=0;fillColor=none;top=0;left=0;bottom=0;right=0;align=left;spacingLeft=6;fontStyle=1" parent="Mkx7goT2RhF-vi3lxjEB-503" vertex="1">
          <mxGeometry x="211.29411764705873" width="115.70588235294127" height="30" as="geometry">
            <mxRectangle width="115.70588235294127" height="30" as="alternateBounds" />
          </mxGeometry>
        </mxCell>
        <mxCell id="baeth4Plhp6aWftDGWgm-1" style="shape=partialRectangle;collapsible=0;dropTarget=0;pointerEvents=0;fillColor=none;points=[[0,0.5],[1,0.5]];portConstraint=eastwest;top=0;left=0;right=0;bottom=0;" parent="Mkx7goT2RhF-vi3lxjEB-366" vertex="1">
          <mxGeometry y="450" width="327" height="30" as="geometry" />
        </mxCell>
        <mxCell id="baeth4Plhp6aWftDGWgm-2" style="shape=partialRectangle;overflow=hidden;connectable=0;fillColor=none;top=0;left=0;bottom=0;right=0;" parent="baeth4Plhp6aWftDGWgm-1" vertex="1">
          <mxGeometry width="30" height="30" as="geometry">
            <mxRectangle width="30" height="30" as="alternateBounds" />
          </mxGeometry>
        </mxCell>
        <mxCell id="baeth4Plhp6aWftDGWgm-3" value="FILM_SHOW_DT" style="shape=partialRectangle;overflow=hidden;connectable=0;fillColor=none;top=0;left=0;bottom=0;right=0;align=left;spacingLeft=6;fontStyle=1" parent="baeth4Plhp6aWftDGWgm-1" vertex="1">
          <mxGeometry x="30" width="181.29411764705873" height="30" as="geometry">
            <mxRectangle width="181.29411764705873" height="30" as="alternateBounds" />
          </mxGeometry>
        </mxCell>
        <mxCell id="baeth4Plhp6aWftDGWgm-4" value="DATE" style="shape=partialRectangle;overflow=hidden;connectable=0;fillColor=none;top=0;left=0;bottom=0;right=0;align=left;spacingLeft=6;fontStyle=1" parent="baeth4Plhp6aWftDGWgm-1" vertex="1">
          <mxGeometry x="211.29411764705873" width="115.70588235294127" height="30" as="geometry">
            <mxRectangle width="115.70588235294127" height="30" as="alternateBounds" />
          </mxGeometry>
        </mxCell>
        <mxCell id="Mkx7goT2RhF-vi3lxjEB-515" style="shape=partialRectangle;collapsible=0;dropTarget=0;pointerEvents=0;fillColor=none;points=[[0,0.5],[1,0.5]];portConstraint=eastwest;top=0;left=0;right=0;bottom=0;" parent="Mkx7goT2RhF-vi3lxjEB-366" vertex="1">
          <mxGeometry y="480" width="327" height="30" as="geometry" />
        </mxCell>
        <mxCell id="Mkx7goT2RhF-vi3lxjEB-516" style="shape=partialRectangle;overflow=hidden;connectable=0;fillColor=none;top=0;left=0;bottom=0;right=0;" parent="Mkx7goT2RhF-vi3lxjEB-515" vertex="1">
          <mxGeometry width="30" height="30" as="geometry">
            <mxRectangle width="30" height="30" as="alternateBounds" />
          </mxGeometry>
        </mxCell>
        <mxCell id="Mkx7goT2RhF-vi3lxjEB-517" value="PAID_AMOUNT" style="shape=partialRectangle;overflow=hidden;connectable=0;fillColor=none;top=0;left=0;bottom=0;right=0;align=left;spacingLeft=6;fontStyle=1" parent="Mkx7goT2RhF-vi3lxjEB-515" vertex="1">
          <mxGeometry x="30" width="181.29411764705873" height="30" as="geometry">
            <mxRectangle width="181.29411764705873" height="30" as="alternateBounds" />
          </mxGeometry>
        </mxCell>
        <mxCell id="Mkx7goT2RhF-vi3lxjEB-518" value="DECIMAL" style="shape=partialRectangle;overflow=hidden;connectable=0;fillColor=none;top=0;left=0;bottom=0;right=0;align=left;spacingLeft=6;fontStyle=1" parent="Mkx7goT2RhF-vi3lxjEB-515" vertex="1">
          <mxGeometry x="211.29411764705873" width="115.70588235294127" height="30" as="geometry">
            <mxRectangle width="115.70588235294127" height="30" as="alternateBounds" />
          </mxGeometry>
        </mxCell>
        <mxCell id="Mkx7goT2RhF-vi3lxjEB-511" style="shape=partialRectangle;collapsible=0;dropTarget=0;pointerEvents=0;fillColor=none;points=[[0,0.5],[1,0.5]];portConstraint=eastwest;top=0;left=0;right=0;bottom=0;" parent="Mkx7goT2RhF-vi3lxjEB-366" vertex="1">
          <mxGeometry y="510" width="327" height="30" as="geometry" />
        </mxCell>
        <mxCell id="Mkx7goT2RhF-vi3lxjEB-512" style="shape=partialRectangle;overflow=hidden;connectable=0;fillColor=none;top=0;left=0;bottom=0;right=0;" parent="Mkx7goT2RhF-vi3lxjEB-511" vertex="1">
          <mxGeometry width="30" height="30" as="geometry">
            <mxRectangle width="30" height="30" as="alternateBounds" />
          </mxGeometry>
        </mxCell>
        <mxCell id="Mkx7goT2RhF-vi3lxjEB-513" value="DISCOUNT_AMOUNT" style="shape=partialRectangle;overflow=hidden;connectable=0;fillColor=none;top=0;left=0;bottom=0;right=0;align=left;spacingLeft=6;fontStyle=1" parent="Mkx7goT2RhF-vi3lxjEB-511" vertex="1">
          <mxGeometry x="30" width="181.29411764705873" height="30" as="geometry">
            <mxRectangle width="181.29411764705873" height="30" as="alternateBounds" />
          </mxGeometry>
        </mxCell>
        <mxCell id="Mkx7goT2RhF-vi3lxjEB-514" value="DECIMAL" style="shape=partialRectangle;overflow=hidden;connectable=0;fillColor=none;top=0;left=0;bottom=0;right=0;align=left;spacingLeft=6;fontStyle=1" parent="Mkx7goT2RhF-vi3lxjEB-511" vertex="1">
          <mxGeometry x="211.29411764705873" width="115.70588235294127" height="30" as="geometry">
            <mxRectangle width="115.70588235294127" height="30" as="alternateBounds" />
          </mxGeometry>
        </mxCell>
        <mxCell id="Mkx7goT2RhF-vi3lxjEB-403" style="shape=partialRectangle;collapsible=0;dropTarget=0;pointerEvents=0;fillColor=none;points=[[0,0.5],[1,0.5]];portConstraint=eastwest;top=0;left=0;right=0;bottom=0;" parent="Mkx7goT2RhF-vi3lxjEB-366" vertex="1">
          <mxGeometry y="540" width="327" height="30" as="geometry" />
        </mxCell>
        <mxCell id="Mkx7goT2RhF-vi3lxjEB-404" style="shape=partialRectangle;overflow=hidden;connectable=0;fillColor=none;top=0;left=0;bottom=0;right=0;" parent="Mkx7goT2RhF-vi3lxjEB-403" vertex="1">
          <mxGeometry width="30" height="30" as="geometry">
            <mxRectangle width="30" height="30" as="alternateBounds" />
          </mxGeometry>
        </mxCell>
        <mxCell id="Mkx7goT2RhF-vi3lxjEB-405" value="TA_INSERT_DT" style="shape=partialRectangle;overflow=hidden;connectable=0;fillColor=none;top=0;left=0;bottom=0;right=0;align=left;spacingLeft=6;fontStyle=1" parent="Mkx7goT2RhF-vi3lxjEB-403" vertex="1">
          <mxGeometry x="30" width="181.29411764705873" height="30" as="geometry">
            <mxRectangle width="181.29411764705873" height="30" as="alternateBounds" />
          </mxGeometry>
        </mxCell>
        <mxCell id="Mkx7goT2RhF-vi3lxjEB-406" value="DATE" style="shape=partialRectangle;overflow=hidden;connectable=0;fillColor=none;top=0;left=0;bottom=0;right=0;align=left;spacingLeft=6;fontStyle=1" parent="Mkx7goT2RhF-vi3lxjEB-403" vertex="1">
          <mxGeometry x="211.29411764705873" width="115.70588235294127" height="30" as="geometry">
            <mxRectangle width="115.70588235294127" height="30" as="alternateBounds" />
          </mxGeometry>
        </mxCell>
        <mxCell id="Mkx7goT2RhF-vi3lxjEB-407" style="shape=partialRectangle;collapsible=0;dropTarget=0;pointerEvents=0;fillColor=none;points=[[0,0.5],[1,0.5]];portConstraint=eastwest;top=0;left=0;right=0;bottom=0;" parent="Mkx7goT2RhF-vi3lxjEB-366" vertex="1">
          <mxGeometry y="570" width="327" height="30" as="geometry" />
        </mxCell>
        <mxCell id="Mkx7goT2RhF-vi3lxjEB-408" style="shape=partialRectangle;overflow=hidden;connectable=0;fillColor=none;top=0;left=0;bottom=0;right=0;" parent="Mkx7goT2RhF-vi3lxjEB-407" vertex="1">
          <mxGeometry width="30" height="30" as="geometry">
            <mxRectangle width="30" height="30" as="alternateBounds" />
          </mxGeometry>
        </mxCell>
        <mxCell id="Mkx7goT2RhF-vi3lxjEB-409" value="TA_UPDATE_DT" style="shape=partialRectangle;overflow=hidden;connectable=0;fillColor=none;top=0;left=0;bottom=0;right=0;align=left;spacingLeft=6;fontStyle=1" parent="Mkx7goT2RhF-vi3lxjEB-407" vertex="1">
          <mxGeometry x="30" width="181.29411764705873" height="30" as="geometry">
            <mxRectangle width="181.29411764705873" height="30" as="alternateBounds" />
          </mxGeometry>
        </mxCell>
        <mxCell id="Mkx7goT2RhF-vi3lxjEB-410" value="DATE" style="shape=partialRectangle;overflow=hidden;connectable=0;fillColor=none;top=0;left=0;bottom=0;right=0;align=left;spacingLeft=6;fontStyle=1" parent="Mkx7goT2RhF-vi3lxjEB-407" vertex="1">
          <mxGeometry x="211.29411764705873" width="115.70588235294127" height="30" as="geometry">
            <mxRectangle width="115.70588235294127" height="30" as="alternateBounds" />
          </mxGeometry>
        </mxCell>
        <mxCell id="Mkx7goT2RhF-vi3lxjEB-411" style="shape=partialRectangle;collapsible=0;dropTarget=0;pointerEvents=0;fillColor=none;points=[[0,0.5],[1,0.5]];portConstraint=eastwest;top=0;left=0;right=0;bottom=0;" parent="Mkx7goT2RhF-vi3lxjEB-366" vertex="1">
          <mxGeometry y="600" width="327" height="30" as="geometry" />
        </mxCell>
        <mxCell id="Mkx7goT2RhF-vi3lxjEB-412" style="shape=partialRectangle;overflow=hidden;connectable=0;fillColor=none;top=0;left=0;bottom=0;right=0;" parent="Mkx7goT2RhF-vi3lxjEB-411" vertex="1">
          <mxGeometry width="30" height="30" as="geometry">
            <mxRectangle width="30" height="30" as="alternateBounds" />
          </mxGeometry>
        </mxCell>
        <mxCell id="Mkx7goT2RhF-vi3lxjEB-413" value="SALE_SRC_ID" style="shape=partialRectangle;overflow=hidden;connectable=0;fillColor=none;top=0;left=0;bottom=0;right=0;align=left;spacingLeft=6;fontStyle=1" parent="Mkx7goT2RhF-vi3lxjEB-411" vertex="1">
          <mxGeometry x="30" width="181.29411764705873" height="30" as="geometry">
            <mxRectangle width="181.29411764705873" height="30" as="alternateBounds" />
          </mxGeometry>
        </mxCell>
        <mxCell id="Mkx7goT2RhF-vi3lxjEB-414" value="VARCHAR" style="shape=partialRectangle;overflow=hidden;connectable=0;fillColor=none;top=0;left=0;bottom=0;right=0;align=left;spacingLeft=6;fontStyle=1" parent="Mkx7goT2RhF-vi3lxjEB-411" vertex="1">
          <mxGeometry x="211.29411764705873" width="115.70588235294127" height="30" as="geometry">
            <mxRectangle width="115.70588235294127" height="30" as="alternateBounds" />
          </mxGeometry>
        </mxCell>
        <mxCell id="Mkx7goT2RhF-vi3lxjEB-415" style="shape=partialRectangle;collapsible=0;dropTarget=0;pointerEvents=0;fillColor=none;points=[[0,0.5],[1,0.5]];portConstraint=eastwest;top=0;left=0;right=0;bottom=0;" parent="Mkx7goT2RhF-vi3lxjEB-366" vertex="1">
          <mxGeometry y="630" width="327" height="30" as="geometry" />
        </mxCell>
        <mxCell id="Mkx7goT2RhF-vi3lxjEB-416" style="shape=partialRectangle;overflow=hidden;connectable=0;fillColor=none;top=0;left=0;bottom=0;right=0;" parent="Mkx7goT2RhF-vi3lxjEB-415" vertex="1">
          <mxGeometry width="30" height="30" as="geometry">
            <mxRectangle width="30" height="30" as="alternateBounds" />
          </mxGeometry>
        </mxCell>
        <mxCell id="Mkx7goT2RhF-vi3lxjEB-417" value="SOURCE_SYSTEM" style="shape=partialRectangle;overflow=hidden;connectable=0;fillColor=none;top=0;left=0;bottom=0;right=0;align=left;spacingLeft=6;fontStyle=1" parent="Mkx7goT2RhF-vi3lxjEB-415" vertex="1">
          <mxGeometry x="30" width="181.29411764705873" height="30" as="geometry">
            <mxRectangle width="181.29411764705873" height="30" as="alternateBounds" />
          </mxGeometry>
        </mxCell>
        <mxCell id="Mkx7goT2RhF-vi3lxjEB-418" value="VARCHAR" style="shape=partialRectangle;overflow=hidden;connectable=0;fillColor=none;top=0;left=0;bottom=0;right=0;align=left;spacingLeft=6;fontStyle=1" parent="Mkx7goT2RhF-vi3lxjEB-415" vertex="1">
          <mxGeometry x="211.29411764705873" width="115.70588235294127" height="30" as="geometry">
            <mxRectangle width="115.70588235294127" height="30" as="alternateBounds" />
          </mxGeometry>
        </mxCell>
        <mxCell id="Mkx7goT2RhF-vi3lxjEB-419" style="shape=partialRectangle;collapsible=0;dropTarget=0;pointerEvents=0;fillColor=none;points=[[0,0.5],[1,0.5]];portConstraint=eastwest;top=0;left=0;right=0;bottom=0;" parent="Mkx7goT2RhF-vi3lxjEB-366" vertex="1">
          <mxGeometry y="660" width="327" height="30" as="geometry" />
        </mxCell>
        <mxCell id="Mkx7goT2RhF-vi3lxjEB-420" style="shape=partialRectangle;overflow=hidden;connectable=0;fillColor=none;top=0;left=0;bottom=0;right=0;" parent="Mkx7goT2RhF-vi3lxjEB-419" vertex="1">
          <mxGeometry width="30" height="30" as="geometry">
            <mxRectangle width="30" height="30" as="alternateBounds" />
          </mxGeometry>
        </mxCell>
        <mxCell id="Mkx7goT2RhF-vi3lxjEB-421" value="SOURCE_ENTITY" style="shape=partialRectangle;overflow=hidden;connectable=0;fillColor=none;top=0;left=0;bottom=0;right=0;align=left;spacingLeft=6;fontStyle=1" parent="Mkx7goT2RhF-vi3lxjEB-419" vertex="1">
          <mxGeometry x="30" width="181.29411764705873" height="30" as="geometry">
            <mxRectangle width="181.29411764705873" height="30" as="alternateBounds" />
          </mxGeometry>
        </mxCell>
        <mxCell id="Mkx7goT2RhF-vi3lxjEB-422" value="VARCHAR" style="shape=partialRectangle;overflow=hidden;connectable=0;fillColor=none;top=0;left=0;bottom=0;right=0;align=left;spacingLeft=6;fontStyle=1" parent="Mkx7goT2RhF-vi3lxjEB-419" vertex="1">
          <mxGeometry x="211.29411764705873" width="115.70588235294127" height="30" as="geometry">
            <mxRectangle width="115.70588235294127" height="30" as="alternateBounds" />
          </mxGeometry>
        </mxCell>
        <mxCell id="Mkx7goT2RhF-vi3lxjEB-423" value="" style="edgeStyle=entityRelationEdgeStyle;fontSize=12;html=1;endArrow=ERoneToMany;rounded=0;exitX=1;exitY=0.5;exitDx=0;exitDy=0;" parent="1" source="Mkx7goT2RhF-vi3lxjEB-2" target="Mkx7goT2RhF-vi3lxjEB-371" edge="1">
          <mxGeometry width="100" height="100" relative="1" as="geometry">
            <mxPoint x="-192" y="809" as="sourcePoint" />
            <mxPoint x="41" y="676" as="targetPoint" />
            <Array as="points">
              <mxPoint x="-54" y="686" />
            </Array>
          </mxGeometry>
        </mxCell>
        <mxCell id="Mkx7goT2RhF-vi3lxjEB-426" value="" style="edgeStyle=entityRelationEdgeStyle;fontSize=12;html=1;endArrow=ERoneToMany;rounded=0;entryX=1;entryY=0.5;entryDx=0;entryDy=0;exitX=0;exitY=0.5;exitDx=0;exitDy=0;" parent="1" source="Mkx7goT2RhF-vi3lxjEB-59" target="Mkx7goT2RhF-vi3lxjEB-375" edge="1">
          <mxGeometry width="100" height="100" relative="1" as="geometry">
            <mxPoint x="-336" y="696" as="sourcePoint" />
            <mxPoint x="90" y="596" as="targetPoint" />
            <Array as="points">
              <mxPoint x="-44" y="696" />
              <mxPoint x="20" y="731" />
              <mxPoint x="-65" y="704" />
              <mxPoint x="-66" y="701" />
            </Array>
          </mxGeometry>
        </mxCell>
        <mxCell id="Mkx7goT2RhF-vi3lxjEB-427" value="" style="edgeStyle=entityRelationEdgeStyle;fontSize=12;html=1;endArrow=ERoneToMany;rounded=0;entryX=1;entryY=0.5;entryDx=0;entryDy=0;exitX=1;exitY=0.5;exitDx=0;exitDy=0;" parent="1" source="Mkx7goT2RhF-vi3lxjEB-248" target="Mkx7goT2RhF-vi3lxjEB-379" edge="1">
          <mxGeometry width="100" height="100" relative="1" as="geometry">
            <mxPoint x="-326" y="706" as="sourcePoint" />
            <mxPoint x="100" y="606" as="targetPoint" />
            <Array as="points">
              <mxPoint x="-34" y="706" />
              <mxPoint x="30" y="741" />
              <mxPoint x="-55" y="714" />
              <mxPoint x="-56" y="711" />
            </Array>
          </mxGeometry>
        </mxCell>
        <mxCell id="Mkx7goT2RhF-vi3lxjEB-429" value="" style="edgeStyle=entityRelationEdgeStyle;fontSize=12;html=1;endArrow=ERoneToMany;rounded=0;entryX=0;entryY=0.5;entryDx=0;entryDy=0;exitX=1;exitY=0.5;exitDx=0;exitDy=0;" parent="1" source="Mkx7goT2RhF-vi3lxjEB-182" target="Mkx7goT2RhF-vi3lxjEB-391" edge="1">
          <mxGeometry width="100" height="100" relative="1" as="geometry">
            <mxPoint x="-306" y="726" as="sourcePoint" />
            <mxPoint x="120" y="626" as="targetPoint" />
            <Array as="points">
              <mxPoint x="-14" y="726" />
              <mxPoint x="-130" y="777" />
              <mxPoint x="50" y="761" />
              <mxPoint x="-35" y="734" />
              <mxPoint x="-36" y="731" />
            </Array>
          </mxGeometry>
        </mxCell>
        <mxCell id="Mkx7goT2RhF-vi3lxjEB-430" value="" style="edgeStyle=entityRelationEdgeStyle;fontSize=12;html=1;endArrow=ERoneToMany;rounded=0;entryX=1;entryY=0.5;entryDx=0;entryDy=0;exitX=0;exitY=0.5;exitDx=0;exitDy=0;" parent="1" source="Mkx7goT2RhF-vi3lxjEB-277" target="Mkx7goT2RhF-vi3lxjEB-395" edge="1">
          <mxGeometry width="100" height="100" relative="1" as="geometry">
            <mxPoint x="-296" y="736" as="sourcePoint" />
            <mxPoint x="130" y="636" as="targetPoint" />
            <Array as="points">
              <mxPoint x="-25" y="744" />
              <mxPoint x="-26" y="741" />
            </Array>
          </mxGeometry>
        </mxCell>
        <mxCell id="Mkx7goT2RhF-vi3lxjEB-431" value="" style="edgeStyle=entityRelationEdgeStyle;fontSize=12;html=1;endArrow=ERoneToMany;rounded=0;entryX=1;entryY=0.5;entryDx=0;entryDy=0;exitX=0;exitY=0.5;exitDx=0;exitDy=0;" parent="1" source="Mkx7goT2RhF-vi3lxjEB-322" target="Mkx7goT2RhF-vi3lxjEB-399" edge="1">
          <mxGeometry width="100" height="100" relative="1" as="geometry">
            <mxPoint x="-286" y="746" as="sourcePoint" />
            <mxPoint x="140" y="646" as="targetPoint" />
            <Array as="points">
              <mxPoint x="6" y="746" />
              <mxPoint x="70" y="781" />
              <mxPoint x="-15" y="754" />
              <mxPoint x="-16" y="751" />
            </Array>
          </mxGeometry>
        </mxCell>
        <mxCell id="Mkx7goT2RhF-vi3lxjEB-432" value="" style="edgeStyle=entityRelationEdgeStyle;fontSize=12;html=1;endArrow=ERoneToMany;rounded=0;entryX=1;entryY=0.5;entryDx=0;entryDy=0;exitX=0;exitY=0.5;exitDx=0;exitDy=0;" parent="1" source="Mkx7goT2RhF-vi3lxjEB-145" target="Mkx7goT2RhF-vi3lxjEB-498" edge="1">
          <mxGeometry width="100" height="100" relative="1" as="geometry">
            <mxPoint x="577" y="616" as="sourcePoint" />
            <mxPoint x="697" y="765" as="targetPoint" />
            <Array as="points">
              <mxPoint x="6" y="746" />
              <mxPoint x="856" y="731" />
              <mxPoint x="70" y="781" />
              <mxPoint x="-15" y="754" />
              <mxPoint x="-16" y="751" />
            </Array>
          </mxGeometry>
        </mxCell>
        <mxCell id="Mkx7goT2RhF-vi3lxjEB-497" value="" style="edgeStyle=entityRelationEdgeStyle;fontSize=12;html=1;endArrow=ERoneToMany;rounded=0;entryX=0;entryY=0.5;entryDx=0;entryDy=0;exitX=1;exitY=0.5;exitDx=0;exitDy=0;" parent="1" source="Mkx7goT2RhF-vi3lxjEB-96" target="Mkx7goT2RhF-vi3lxjEB-387" edge="1">
          <mxGeometry width="100" height="100" relative="1" as="geometry">
            <mxPoint x="-236" y="776" as="sourcePoint" />
            <mxPoint x="155" y="595" as="targetPoint" />
            <Array as="points">
              <mxPoint x="-44" y="696" />
              <mxPoint x="20" y="727" />
              <mxPoint x="20" y="731" />
              <mxPoint x="-65" y="704" />
              <mxPoint x="-66" y="701" />
            </Array>
          </mxGeometry>
        </mxCell>
        <mxCell id="Mkx7goT2RhF-vi3lxjEB-321" value="DIM_CUSTOMERS" style="shape=table;startSize=30;container=1;collapsible=1;childLayout=tableLayout;fixedRows=1;rowLines=0;fontStyle=1;align=center;resizeLast=1;fontSize=15;" parent="1" vertex="1">
          <mxGeometry x="527" y="786" width="321" height="361" as="geometry" />
        </mxCell>
        <mxCell id="Mkx7goT2RhF-vi3lxjEB-322" value="" style="shape=partialRectangle;collapsible=0;dropTarget=0;pointerEvents=0;fillColor=none;points=[[0,0.5],[1,0.5]];portConstraint=eastwest;top=0;left=0;right=0;bottom=1;" parent="Mkx7goT2RhF-vi3lxjEB-321" vertex="1">
          <mxGeometry y="30" width="321" height="30" as="geometry" />
        </mxCell>
        <mxCell id="Mkx7goT2RhF-vi3lxjEB-323" value="PK" style="shape=partialRectangle;overflow=hidden;connectable=0;fillColor=none;top=0;left=0;bottom=0;right=0;fontStyle=1;" parent="Mkx7goT2RhF-vi3lxjEB-322" vertex="1">
          <mxGeometry width="30" height="30" as="geometry">
            <mxRectangle width="30" height="30" as="alternateBounds" />
          </mxGeometry>
        </mxCell>
        <mxCell id="Mkx7goT2RhF-vi3lxjEB-324" value="CUSTOMER_SURR_ID" style="shape=partialRectangle;overflow=hidden;connectable=0;fillColor=none;top=0;left=0;bottom=0;right=0;align=left;spacingLeft=6;fontStyle=5;" parent="Mkx7goT2RhF-vi3lxjEB-322" vertex="1">
          <mxGeometry x="30" width="166.91664632161417" height="30" as="geometry">
            <mxRectangle width="166.91664632161417" height="30" as="alternateBounds" />
          </mxGeometry>
        </mxCell>
        <mxCell id="Mkx7goT2RhF-vi3lxjEB-325" value="BIGINT NOT NULL" style="shape=partialRectangle;overflow=hidden;connectable=0;fillColor=none;top=0;left=0;bottom=0;right=0;align=left;spacingLeft=6;fontStyle=5;" parent="Mkx7goT2RhF-vi3lxjEB-322" vertex="1">
          <mxGeometry x="196.91664632161417" width="124.08335367838583" height="30" as="geometry">
            <mxRectangle width="124.08335367838583" height="30" as="alternateBounds" />
          </mxGeometry>
        </mxCell>
        <mxCell id="Mkx7goT2RhF-vi3lxjEB-326" value="" style="shape=partialRectangle;collapsible=0;dropTarget=0;pointerEvents=0;fillColor=none;points=[[0,0.5],[1,0.5]];portConstraint=eastwest;top=0;left=0;right=0;bottom=0;" parent="Mkx7goT2RhF-vi3lxjEB-321" vertex="1">
          <mxGeometry y="60" width="321" height="30" as="geometry" />
        </mxCell>
        <mxCell id="Mkx7goT2RhF-vi3lxjEB-327" value="" style="shape=partialRectangle;overflow=hidden;connectable=0;fillColor=none;top=0;left=0;bottom=0;right=0;" parent="Mkx7goT2RhF-vi3lxjEB-326" vertex="1">
          <mxGeometry width="30" height="30" as="geometry">
            <mxRectangle width="30" height="30" as="alternateBounds" />
          </mxGeometry>
        </mxCell>
        <mxCell id="Mkx7goT2RhF-vi3lxjEB-328" value="CUSTOMER_FIRST_NAME" style="shape=partialRectangle;overflow=hidden;connectable=0;fillColor=none;top=0;left=0;bottom=0;right=0;align=left;spacingLeft=6;fontStyle=1" parent="Mkx7goT2RhF-vi3lxjEB-326" vertex="1">
          <mxGeometry x="30" width="166.91664632161417" height="30" as="geometry">
            <mxRectangle width="166.91664632161417" height="30" as="alternateBounds" />
          </mxGeometry>
        </mxCell>
        <mxCell id="Mkx7goT2RhF-vi3lxjEB-329" value="VARCHAR(100)" style="shape=partialRectangle;overflow=hidden;connectable=0;fillColor=none;top=0;left=0;bottom=0;right=0;align=left;spacingLeft=6;fontStyle=1" parent="Mkx7goT2RhF-vi3lxjEB-326" vertex="1">
          <mxGeometry x="196.91664632161417" width="124.08335367838583" height="30" as="geometry">
            <mxRectangle width="124.08335367838583" height="30" as="alternateBounds" />
          </mxGeometry>
        </mxCell>
        <mxCell id="Mkx7goT2RhF-vi3lxjEB-330" value="" style="shape=partialRectangle;collapsible=0;dropTarget=0;pointerEvents=0;fillColor=none;points=[[0,0.5],[1,0.5]];portConstraint=eastwest;top=0;left=0;right=0;bottom=0;" parent="Mkx7goT2RhF-vi3lxjEB-321" vertex="1">
          <mxGeometry y="90" width="321" height="30" as="geometry" />
        </mxCell>
        <mxCell id="Mkx7goT2RhF-vi3lxjEB-331" value="" style="shape=partialRectangle;overflow=hidden;connectable=0;fillColor=none;top=0;left=0;bottom=0;right=0;" parent="Mkx7goT2RhF-vi3lxjEB-330" vertex="1">
          <mxGeometry width="30" height="30" as="geometry">
            <mxRectangle width="30" height="30" as="alternateBounds" />
          </mxGeometry>
        </mxCell>
        <mxCell id="Mkx7goT2RhF-vi3lxjEB-332" value="CUSTOMER_LAST_NAME" style="shape=partialRectangle;overflow=hidden;connectable=0;fillColor=none;top=0;left=0;bottom=0;right=0;align=left;spacingLeft=6;fontStyle=1" parent="Mkx7goT2RhF-vi3lxjEB-330" vertex="1">
          <mxGeometry x="30" width="166.91664632161417" height="30" as="geometry">
            <mxRectangle width="166.91664632161417" height="30" as="alternateBounds" />
          </mxGeometry>
        </mxCell>
        <mxCell id="Mkx7goT2RhF-vi3lxjEB-333" value="VARCHAR(100)" style="shape=partialRectangle;overflow=hidden;connectable=0;fillColor=none;top=0;left=0;bottom=0;right=0;align=left;spacingLeft=6;fontStyle=1" parent="Mkx7goT2RhF-vi3lxjEB-330" vertex="1">
          <mxGeometry x="196.91664632161417" width="124.08335367838583" height="30" as="geometry">
            <mxRectangle width="124.08335367838583" height="30" as="alternateBounds" />
          </mxGeometry>
        </mxCell>
        <mxCell id="Mkx7goT2RhF-vi3lxjEB-334" style="shape=partialRectangle;collapsible=0;dropTarget=0;pointerEvents=0;fillColor=none;points=[[0,0.5],[1,0.5]];portConstraint=eastwest;top=0;left=0;right=0;bottom=0;" parent="Mkx7goT2RhF-vi3lxjEB-321" vertex="1">
          <mxGeometry y="120" width="321" height="31" as="geometry" />
        </mxCell>
        <mxCell id="Mkx7goT2RhF-vi3lxjEB-335" value="" style="shape=partialRectangle;overflow=hidden;connectable=0;fillColor=none;top=0;left=0;bottom=0;right=0;" parent="Mkx7goT2RhF-vi3lxjEB-334" vertex="1">
          <mxGeometry width="30" height="31" as="geometry">
            <mxRectangle width="30" height="31" as="alternateBounds" />
          </mxGeometry>
        </mxCell>
        <mxCell id="Mkx7goT2RhF-vi3lxjEB-336" value="CUSTOMER_GENDER" style="shape=partialRectangle;overflow=hidden;connectable=0;fillColor=none;top=0;left=0;bottom=0;right=0;align=left;spacingLeft=6;fontStyle=1" parent="Mkx7goT2RhF-vi3lxjEB-334" vertex="1">
          <mxGeometry x="30" width="166.91664632161417" height="31" as="geometry">
            <mxRectangle width="166.91664632161417" height="31" as="alternateBounds" />
          </mxGeometry>
        </mxCell>
        <mxCell id="Mkx7goT2RhF-vi3lxjEB-337" value="VARCHAR(30)" style="shape=partialRectangle;overflow=hidden;connectable=0;fillColor=none;top=0;left=0;bottom=0;right=0;align=left;spacingLeft=6;fontStyle=1" parent="Mkx7goT2RhF-vi3lxjEB-334" vertex="1">
          <mxGeometry x="196.91664632161417" width="124.08335367838583" height="31" as="geometry">
            <mxRectangle width="124.08335367838583" height="31" as="alternateBounds" />
          </mxGeometry>
        </mxCell>
        <mxCell id="Mkx7goT2RhF-vi3lxjEB-338" style="shape=partialRectangle;collapsible=0;dropTarget=0;pointerEvents=0;fillColor=none;points=[[0,0.5],[1,0.5]];portConstraint=eastwest;top=0;left=0;right=0;bottom=0;" parent="Mkx7goT2RhF-vi3lxjEB-321" vertex="1">
          <mxGeometry y="151" width="321" height="30" as="geometry" />
        </mxCell>
        <mxCell id="Mkx7goT2RhF-vi3lxjEB-339" style="shape=partialRectangle;overflow=hidden;connectable=0;fillColor=none;top=0;left=0;bottom=0;right=0;" parent="Mkx7goT2RhF-vi3lxjEB-338" vertex="1">
          <mxGeometry width="30" height="30" as="geometry">
            <mxRectangle width="30" height="30" as="alternateBounds" />
          </mxGeometry>
        </mxCell>
        <mxCell id="Mkx7goT2RhF-vi3lxjEB-340" value="CUSTOMER_DOB" style="shape=partialRectangle;overflow=hidden;connectable=0;fillColor=none;top=0;left=0;bottom=0;right=0;align=left;spacingLeft=6;fontStyle=1" parent="Mkx7goT2RhF-vi3lxjEB-338" vertex="1">
          <mxGeometry x="30" width="166.91664632161417" height="30" as="geometry">
            <mxRectangle width="166.91664632161417" height="30" as="alternateBounds" />
          </mxGeometry>
        </mxCell>
        <mxCell id="Mkx7goT2RhF-vi3lxjEB-341" value="DATE" style="shape=partialRectangle;overflow=hidden;connectable=0;fillColor=none;top=0;left=0;bottom=0;right=0;align=left;spacingLeft=6;fontStyle=1" parent="Mkx7goT2RhF-vi3lxjEB-338" vertex="1">
          <mxGeometry x="196.91664632161417" width="124.08335367838583" height="30" as="geometry">
            <mxRectangle width="124.08335367838583" height="30" as="alternateBounds" />
          </mxGeometry>
        </mxCell>
        <mxCell id="Mkx7goT2RhF-vi3lxjEB-342" style="shape=partialRectangle;collapsible=0;dropTarget=0;pointerEvents=0;fillColor=none;points=[[0,0.5],[1,0.5]];portConstraint=eastwest;top=0;left=0;right=0;bottom=0;" parent="Mkx7goT2RhF-vi3lxjEB-321" vertex="1">
          <mxGeometry y="181" width="321" height="30" as="geometry" />
        </mxCell>
        <mxCell id="Mkx7goT2RhF-vi3lxjEB-343" style="shape=partialRectangle;overflow=hidden;connectable=0;fillColor=none;top=0;left=0;bottom=0;right=0;" parent="Mkx7goT2RhF-vi3lxjEB-342" vertex="1">
          <mxGeometry width="30" height="30" as="geometry">
            <mxRectangle width="30" height="30" as="alternateBounds" />
          </mxGeometry>
        </mxCell>
        <mxCell id="Mkx7goT2RhF-vi3lxjEB-344" value="CUSTOMER_PHONE" style="shape=partialRectangle;overflow=hidden;connectable=0;fillColor=none;top=0;left=0;bottom=0;right=0;align=left;spacingLeft=6;fontStyle=1" parent="Mkx7goT2RhF-vi3lxjEB-342" vertex="1">
          <mxGeometry x="30" width="166.91664632161417" height="30" as="geometry">
            <mxRectangle width="166.91664632161417" height="30" as="alternateBounds" />
          </mxGeometry>
        </mxCell>
        <mxCell id="Mkx7goT2RhF-vi3lxjEB-345" value="VARCHAR(20)" style="shape=partialRectangle;overflow=hidden;connectable=0;fillColor=none;top=0;left=0;bottom=0;right=0;align=left;spacingLeft=6;fontStyle=1" parent="Mkx7goT2RhF-vi3lxjEB-342" vertex="1">
          <mxGeometry x="196.91664632161417" width="124.08335367838583" height="30" as="geometry">
            <mxRectangle width="124.08335367838583" height="30" as="alternateBounds" />
          </mxGeometry>
        </mxCell>
        <mxCell id="Mkx7goT2RhF-vi3lxjEB-346" style="shape=partialRectangle;collapsible=0;dropTarget=0;pointerEvents=0;fillColor=none;points=[[0,0.5],[1,0.5]];portConstraint=eastwest;top=0;left=0;right=0;bottom=0;" parent="Mkx7goT2RhF-vi3lxjEB-321" vertex="1">
          <mxGeometry y="211" width="321" height="30" as="geometry" />
        </mxCell>
        <mxCell id="Mkx7goT2RhF-vi3lxjEB-347" style="shape=partialRectangle;overflow=hidden;connectable=0;fillColor=none;top=0;left=0;bottom=0;right=0;" parent="Mkx7goT2RhF-vi3lxjEB-346" vertex="1">
          <mxGeometry width="30" height="30" as="geometry">
            <mxRectangle width="30" height="30" as="alternateBounds" />
          </mxGeometry>
        </mxCell>
        <mxCell id="Mkx7goT2RhF-vi3lxjEB-348" value="TA_INSERT_DT" style="shape=partialRectangle;overflow=hidden;connectable=0;fillColor=none;top=0;left=0;bottom=0;right=0;align=left;spacingLeft=6;fontStyle=1" parent="Mkx7goT2RhF-vi3lxjEB-346" vertex="1">
          <mxGeometry x="30" width="166.91664632161417" height="30" as="geometry">
            <mxRectangle width="166.91664632161417" height="30" as="alternateBounds" />
          </mxGeometry>
        </mxCell>
        <mxCell id="Mkx7goT2RhF-vi3lxjEB-349" value="DATE" style="shape=partialRectangle;overflow=hidden;connectable=0;fillColor=none;top=0;left=0;bottom=0;right=0;align=left;spacingLeft=6;fontStyle=1" parent="Mkx7goT2RhF-vi3lxjEB-346" vertex="1">
          <mxGeometry x="196.91664632161417" width="124.08335367838583" height="30" as="geometry">
            <mxRectangle width="124.08335367838583" height="30" as="alternateBounds" />
          </mxGeometry>
        </mxCell>
        <mxCell id="Mkx7goT2RhF-vi3lxjEB-350" style="shape=partialRectangle;collapsible=0;dropTarget=0;pointerEvents=0;fillColor=none;points=[[0,0.5],[1,0.5]];portConstraint=eastwest;top=0;left=0;right=0;bottom=0;" parent="Mkx7goT2RhF-vi3lxjEB-321" vertex="1">
          <mxGeometry y="241" width="321" height="30" as="geometry" />
        </mxCell>
        <mxCell id="Mkx7goT2RhF-vi3lxjEB-351" style="shape=partialRectangle;overflow=hidden;connectable=0;fillColor=none;top=0;left=0;bottom=0;right=0;" parent="Mkx7goT2RhF-vi3lxjEB-350" vertex="1">
          <mxGeometry width="30" height="30" as="geometry">
            <mxRectangle width="30" height="30" as="alternateBounds" />
          </mxGeometry>
        </mxCell>
        <mxCell id="Mkx7goT2RhF-vi3lxjEB-352" value="TA_UPDATE_DT" style="shape=partialRectangle;overflow=hidden;connectable=0;fillColor=none;top=0;left=0;bottom=0;right=0;align=left;spacingLeft=6;fontStyle=1" parent="Mkx7goT2RhF-vi3lxjEB-350" vertex="1">
          <mxGeometry x="30" width="166.91664632161417" height="30" as="geometry">
            <mxRectangle width="166.91664632161417" height="30" as="alternateBounds" />
          </mxGeometry>
        </mxCell>
        <mxCell id="Mkx7goT2RhF-vi3lxjEB-353" value="DATE" style="shape=partialRectangle;overflow=hidden;connectable=0;fillColor=none;top=0;left=0;bottom=0;right=0;align=left;spacingLeft=6;fontStyle=1" parent="Mkx7goT2RhF-vi3lxjEB-350" vertex="1">
          <mxGeometry x="196.91664632161417" width="124.08335367838583" height="30" as="geometry">
            <mxRectangle width="124.08335367838583" height="30" as="alternateBounds" />
          </mxGeometry>
        </mxCell>
        <mxCell id="Mkx7goT2RhF-vi3lxjEB-354" style="shape=partialRectangle;collapsible=0;dropTarget=0;pointerEvents=0;fillColor=none;points=[[0,0.5],[1,0.5]];portConstraint=eastwest;top=0;left=0;right=0;bottom=0;" parent="Mkx7goT2RhF-vi3lxjEB-321" vertex="1">
          <mxGeometry y="271" width="321" height="30" as="geometry" />
        </mxCell>
        <mxCell id="Mkx7goT2RhF-vi3lxjEB-355" style="shape=partialRectangle;overflow=hidden;connectable=0;fillColor=none;top=0;left=0;bottom=0;right=0;" parent="Mkx7goT2RhF-vi3lxjEB-354" vertex="1">
          <mxGeometry width="30" height="30" as="geometry">
            <mxRectangle width="30" height="30" as="alternateBounds" />
          </mxGeometry>
        </mxCell>
        <mxCell id="Mkx7goT2RhF-vi3lxjEB-356" value="CUSTOMER_SRC_ID" style="shape=partialRectangle;overflow=hidden;connectable=0;fillColor=none;top=0;left=0;bottom=0;right=0;align=left;spacingLeft=6;fontStyle=1" parent="Mkx7goT2RhF-vi3lxjEB-354" vertex="1">
          <mxGeometry x="30" width="166.91664632161417" height="30" as="geometry">
            <mxRectangle width="166.91664632161417" height="30" as="alternateBounds" />
          </mxGeometry>
        </mxCell>
        <mxCell id="Mkx7goT2RhF-vi3lxjEB-357" value="VARCHAR" style="shape=partialRectangle;overflow=hidden;connectable=0;fillColor=none;top=0;left=0;bottom=0;right=0;align=left;spacingLeft=6;fontStyle=1" parent="Mkx7goT2RhF-vi3lxjEB-354" vertex="1">
          <mxGeometry x="196.91664632161417" width="124.08335367838583" height="30" as="geometry">
            <mxRectangle width="124.08335367838583" height="30" as="alternateBounds" />
          </mxGeometry>
        </mxCell>
        <mxCell id="Mkx7goT2RhF-vi3lxjEB-358" style="shape=partialRectangle;collapsible=0;dropTarget=0;pointerEvents=0;fillColor=none;points=[[0,0.5],[1,0.5]];portConstraint=eastwest;top=0;left=0;right=0;bottom=0;" parent="Mkx7goT2RhF-vi3lxjEB-321" vertex="1">
          <mxGeometry y="301" width="321" height="30" as="geometry" />
        </mxCell>
        <mxCell id="Mkx7goT2RhF-vi3lxjEB-359" style="shape=partialRectangle;overflow=hidden;connectable=0;fillColor=none;top=0;left=0;bottom=0;right=0;" parent="Mkx7goT2RhF-vi3lxjEB-358" vertex="1">
          <mxGeometry width="30" height="30" as="geometry">
            <mxRectangle width="30" height="30" as="alternateBounds" />
          </mxGeometry>
        </mxCell>
        <mxCell id="Mkx7goT2RhF-vi3lxjEB-360" value="SOURCE_SYSTEM" style="shape=partialRectangle;overflow=hidden;connectable=0;fillColor=none;top=0;left=0;bottom=0;right=0;align=left;spacingLeft=6;fontStyle=1" parent="Mkx7goT2RhF-vi3lxjEB-358" vertex="1">
          <mxGeometry x="30" width="166.91664632161417" height="30" as="geometry">
            <mxRectangle width="166.91664632161417" height="30" as="alternateBounds" />
          </mxGeometry>
        </mxCell>
        <mxCell id="Mkx7goT2RhF-vi3lxjEB-361" value="VARCHAR" style="shape=partialRectangle;overflow=hidden;connectable=0;fillColor=none;top=0;left=0;bottom=0;right=0;align=left;spacingLeft=6;fontStyle=1" parent="Mkx7goT2RhF-vi3lxjEB-358" vertex="1">
          <mxGeometry x="196.91664632161417" width="124.08335367838583" height="30" as="geometry">
            <mxRectangle width="124.08335367838583" height="30" as="alternateBounds" />
          </mxGeometry>
        </mxCell>
        <mxCell id="Mkx7goT2RhF-vi3lxjEB-362" style="shape=partialRectangle;collapsible=0;dropTarget=0;pointerEvents=0;fillColor=none;points=[[0,0.5],[1,0.5]];portConstraint=eastwest;top=0;left=0;right=0;bottom=0;" parent="Mkx7goT2RhF-vi3lxjEB-321" vertex="1">
          <mxGeometry y="331" width="321" height="30" as="geometry" />
        </mxCell>
        <mxCell id="Mkx7goT2RhF-vi3lxjEB-363" style="shape=partialRectangle;overflow=hidden;connectable=0;fillColor=none;top=0;left=0;bottom=0;right=0;" parent="Mkx7goT2RhF-vi3lxjEB-362" vertex="1">
          <mxGeometry width="30" height="30" as="geometry">
            <mxRectangle width="30" height="30" as="alternateBounds" />
          </mxGeometry>
        </mxCell>
        <mxCell id="Mkx7goT2RhF-vi3lxjEB-364" value="SOURCE_ENTITY" style="shape=partialRectangle;overflow=hidden;connectable=0;fillColor=none;top=0;left=0;bottom=0;right=0;align=left;spacingLeft=6;fontStyle=1" parent="Mkx7goT2RhF-vi3lxjEB-362" vertex="1">
          <mxGeometry x="30" width="166.91664632161417" height="30" as="geometry">
            <mxRectangle width="166.91664632161417" height="30" as="alternateBounds" />
          </mxGeometry>
        </mxCell>
        <mxCell id="Mkx7goT2RhF-vi3lxjEB-365" value="VARCHAR" style="shape=partialRectangle;overflow=hidden;connectable=0;fillColor=none;top=0;left=0;bottom=0;right=0;align=left;spacingLeft=6;fontStyle=1" parent="Mkx7goT2RhF-vi3lxjEB-362" vertex="1">
          <mxGeometry x="196.91664632161417" width="124.08335367838583" height="30" as="geometry">
            <mxRectangle width="124.08335367838583" height="30" as="alternateBounds" />
          </mxGeometry>
        </mxCell>
      </root>
    </mxGraphModel>
  </diagram>
</mxfile>
